<svg width="46" height="46" viewBox="0 0 46 46" fill="none" xmlns="http://www.w3.org/2000/svg">
<circle cx="23" cy="22.75" r="22.5" fill="#2B2A29"/>
<path d="M16.3818 22C15.9676 22 15.6318 22.3358 15.6318 22.75C15.6318 23.1642 15.9676 23.5 16.3818 23.5V22ZM29.4857 23.2803C29.7786 22.9874 29.7786 22.5126 29.4857 22.2197L24.7127 17.4467C24.4198 17.1538 23.945 17.1538 23.6521 17.4467C23.3592 17.7396 23.3592 18.2145 23.6521 18.5074L27.8947 22.75L23.6521 26.9926C23.3592 27.2855 23.3592 27.7604 23.6521 28.0533C23.945 28.3462 24.4198 28.3462 24.7127 28.0533L29.4857 23.2803ZM16.3818 23.5H28.9554V22H16.3818V23.5Z" fill="#FEFEFE"/>
</svg>
