<svg width="60" height="60" viewBox="0 0 60 60" fill="none" xmlns="http://www.w3.org/2000/svg">
    <circle cx="30" cy="30" r="30" fill="#2b2a29"/>
    <path d="M21.1758 29C20.6235 29 20.1758 29.4477 20.1758 30C20.1758 30.5523 20.6235 31 21.1758 31V29ZM38.6476 30.7071C39.0381 30.3166 39.0381 29.6834 38.6476 29.2929L32.2836 22.9289C31.8931 22.5384 31.2599 22.5384 30.8694 22.9289C30.4789 23.3195 30.4789 23.9526 30.8694 24.3431L36.5263 30L30.8694 35.6569C30.4789 36.0474 30.4789 36.6805 30.8694 37.0711C31.2599 37.4616 31.8931 37.4616 32.2836 37.0711L38.6476 30.7071ZM21.1758 31H37.9405V29H21.1758V31Z" fill="#FEFEFE"/>
</svg>
