<svg width="14" height="18" viewBox="0 0 14 18" fill="none" xmlns="http://www.w3.org/2000/svg">
<path d="M5.84258 1.14367C5.76917 1.09982 5.68524 1.07666 5.59973 1.07666C5.51421 1.07666 5.43029 1.09982 5.35687 1.14367C5.29631 1.19165 5.25545 1.26018 5.24202 1.33626C5.22859 1.41235 5.24353 1.49072 5.28401 1.55653C6.77758 4.14296 7.0933 7.66439 5.0533 9.60725C4.26842 8.94767 3.64529 8.11684 3.23187 7.17867C2.47747 7.59766 1.85226 8.21531 1.42412 8.96455C0.995981 9.7138 0.78127 10.566 0.803297 11.4287C0.834093 12.1892 1.01669 12.9358 1.34034 13.6247C1.66399 14.3135 2.12216 14.9307 2.68789 15.4398C3.25361 15.949 3.91547 16.3398 4.6345 16.5894C5.35353 16.839 6.11521 16.9422 6.87473 16.893C10.7847 16.893 12.8126 14.4644 12.9462 11.4287C13.104 7.78582 10.5176 3.3051 5.84258 1.14367Z" stroke="#FEFEFE" stroke-linecap="round" stroke-linejoin="round"/>
<path d="M9.91002 11.4287C9.91002 12.0728 9.65415 12.6905 9.1987 13.146C8.74326 13.6014 8.12554 13.8573 7.48145 13.8573" stroke="#FEFEFE" stroke-linecap="round" stroke-linejoin="round"/>
</svg>
