<svg width="60" height="60" viewBox="0 0 60 60" fill="none" xmlns="http://www.w3.org/2000/svg">
    <circle cx="30" cy="30" r="30" transform="matrix(-1 0 0 1 60 0)" fill="#8e8e8e"/>
    <path d="M38.8242 29C39.3765 29 39.8242 29.4477 39.8242 30C39.8242 30.5523 39.3765 31 38.8242 31V29ZM21.3524 30.7071C20.9619 30.3166 20.9619 29.6834 21.3524 29.2929L27.7164 22.9289C28.1069 22.5384 28.7401 22.5384 29.1306 22.9289C29.5211 23.3195 29.5211 23.9526 29.1306 24.3431L23.4737 30L29.1306 35.6569C29.5211 36.0474 29.5211 36.6805 29.1306 37.0711C28.7401 37.4616 28.1069 37.4616 27.7164 37.0711L21.3524 30.7071ZM38.8242 31H22.0595V29H38.8242V31Z" fill="#FEFEFE"/>
</svg>
