<svg width="11" height="9" viewBox="0 0 11 9" fill="none" xmlns="http://www.w3.org/2000/svg">
<path d="M8.71233 0.378133C8.88842 0.210494 9.12274 0.117816 9.36585 0.119656C9.60897 0.121495 9.84186 0.217708 10.0154 0.387992C10.1889 0.558276 10.2895 0.789313 10.2959 1.03235C10.3024 1.27539 10.2141 1.51142 10.0498 1.69063L5.06233 7.92813C4.97657 8.02051 4.87306 8.09464 4.758 8.14609C4.64293 8.19755 4.51867 8.22527 4.39265 8.2276C4.26662 8.22994 4.14142 8.20683 4.02453 8.15967C3.90763 8.11251 3.80145 8.04227 3.71233 7.95313L0.404831 4.64563C0.312722 4.5598 0.238845 4.4563 0.187605 4.34131C0.136365 4.22631 0.108812 4.10216 0.106591 3.97629C0.10437 3.85041 0.127526 3.72537 0.174678 3.60864C0.221829 3.4919 0.29201 3.38586 0.381033 3.29683C0.470057 3.20781 0.576099 3.13763 0.692834 3.09048C0.809569 3.04333 0.934606 3.02017 1.06048 3.02239C1.18636 3.02461 1.3105 3.05217 1.4255 3.10341C1.5405 3.15465 1.644 3.22852 1.72983 3.32063L4.34733 5.93688L8.68858 0.405633C8.6964 0.396009 8.70474 0.386828 8.71358 0.378133H8.71233Z" fill="#F9F9F9"/>
</svg>
