<svg width="25" height="16" viewBox="0 0 25 16" fill="none" xmlns="http://www.w3.org/2000/svg">
<path d="M12.625 6.25C14.0747 6.25 15.25 5.07475 15.25 3.625C15.25 2.17525 14.0747 1 12.625 1C11.1753 1 10 2.17525 10 3.625C10 5.07475 11.1753 6.25 12.625 6.25Z" stroke="#8E8E8E" stroke-width="2" stroke-linecap="round" stroke-linejoin="round"/>
<path d="M1.25 3.625H10" stroke="#8E8E8E" stroke-width="2" stroke-linecap="round" stroke-linejoin="round"/>
<path d="M15.25 3.625H24" stroke="#8E8E8E" stroke-width="2" stroke-linecap="round" stroke-linejoin="round"/>
<path d="M21.375 15C22.8247 15 24 13.8247 24 12.375C24 10.9253 22.8247 9.75 21.375 9.75C19.9253 9.75 18.75 10.9253 18.75 12.375C18.75 13.8247 19.9253 15 21.375 15Z" stroke="#8E8E8E" stroke-width="2" stroke-linecap="round" stroke-linejoin="round"/>
<path d="M18.75 12.375H1.25" stroke="#8E8E8E" stroke-width="2" stroke-linecap="round" stroke-linejoin="round"/>
</svg>
