<svg width="28" height="28" viewBox="0 0 28 28" fill="none" xmlns="http://www.w3.org/2000/svg">
<g clip-path="url(#clip0_912_21226)">
<path d="M9 21L25 21C26.1046 21 27 20.1046 27 19L27 3C27 1.89543 26.1046 1 25 1L9 1C7.89543 1 7 1.89543 7 3L7 19C7 20.1046 7.89543 21 9 21Z" stroke="#FEFEFE" stroke-linecap="round" stroke-linejoin="round"/>
<path d="M21 27H3C2.46957 27 1.96086 26.7893 1.58579 26.4142C1.21071 26.0391 1 25.5304 1 25V7" stroke="#FEFEFE" stroke-linecap="round" stroke-linejoin="round"/>
<path d="M15 7H21V13" stroke="#FEFEFE" stroke-linecap="round" stroke-linejoin="round"/>
<path d="M21 7L13 15" stroke="#FEFEFE" stroke-linecap="round" stroke-linejoin="round"/>
</g>
<defs>
<clipPath id="clip0_912_21226">
<rect width="28" height="28" fill="white"/>
</clipPath>
</defs>
</svg>
