<svg width="27" height="27" viewBox="0 0 27 27" fill="none" xmlns="http://www.w3.org/2000/svg">
<path fill-rule="evenodd" clip-rule="evenodd" d="M24.0735 2.47941C23.6946 2.54682 23.1573 2.72312 22.2972 3.00985L8.40321 7.64116C6.01969 8.43567 4.33243 9.00037 3.22971 9.53682C2.04295 10.1141 2.02734 10.4271 2.02734 10.4872C2.02734 10.5473 2.04295 10.8603 3.22971 11.4376C4.33243 11.9741 6.01969 12.5388 8.40321 13.3333L9.65808 13.7516C9.71149 13.7694 9.76452 13.7869 9.81715 13.8044C10.5883 14.0599 11.2739 14.287 11.7794 14.7925C12.2849 15.298 12.512 15.9836 12.7676 16.7548C12.785 16.8074 12.8026 16.8604 12.8204 16.9138L13.2387 18.1687C14.0332 20.5522 14.5979 22.2395 15.1343 23.3422C15.7116 24.529 16.0246 24.5446 16.0847 24.5446C16.1448 24.5446 16.4578 24.529 17.0351 23.3422C17.5715 22.2395 18.1362 20.5522 18.9307 18.1687L23.5621 4.27476C23.8488 3.41458 24.0251 2.87736 24.0925 2.49845C24.0939 2.49057 24.0952 2.48289 24.0965 2.47543C24.089 2.47668 24.0813 2.47801 24.0735 2.47941ZM24.3324 2.4563C24.3322 2.45648 24.3289 2.45621 24.3232 2.45495C24.3298 2.45548 24.3326 2.45612 24.3324 2.4563ZM24.117 2.24874C24.1157 2.24298 24.1154 2.23969 24.1156 2.23949C24.1158 2.23928 24.1164 2.24216 24.117 2.24874ZM23.7232 0.510328C24.2742 0.41231 25.0287 0.383123 25.6087 0.96318C26.1888 1.54324 26.1596 2.29774 26.0616 2.84874C25.9653 3.39018 25.7388 4.06931 25.4833 4.83562L25.4594 4.90721L20.8281 18.8012L20.8011 18.8823C20.0395 21.167 19.4348 22.9812 18.8336 24.2171C18.2661 25.3836 17.4661 26.5446 16.0847 26.5446C14.7033 26.5446 13.9033 25.3836 13.3358 24.2171C12.7346 22.9812 12.1299 21.1669 11.3683 18.8822L11.3413 18.8012L10.923 17.5463C10.5809 16.52 10.4929 16.3344 10.3652 16.2067C10.2375 16.079 10.0519 15.991 9.02563 15.6489L7.77076 15.2306L7.68966 15.2036C5.40494 14.442 3.5907 13.8373 2.35479 13.2361C1.18834 12.6686 0.0273438 11.8686 0.0273438 10.4872C0.0273438 9.10583 1.18834 8.30579 2.3548 7.73834C3.59071 7.1371 5.40496 6.53237 7.68969 5.77082L7.77076 5.74379L21.6647 1.11248L21.7363 1.0886C22.5026 0.833089 23.1817 0.606644 23.7232 0.510328Z" fill="#EB6320"/>
</svg>
