<svg width="27" height="27" viewBox="0 0 27 27" fill="none" xmlns="http://www.w3.org/2000/svg">
<path d="M3.70697 3.59815L5.09801 2.20711C5.48854 1.81658 6.1217 1.81658 6.51223 2.20711L10.8758 6.57067C11.2663 6.96119 11.2663 7.59436 10.8758 7.98488L9.08653 9.77415C8.85212 10.0086 8.79401 10.3667 8.94226 10.6632C10.6563 14.0913 13.436 16.871 16.8642 18.5851C17.1607 18.7333 17.5188 18.6752 17.7532 18.4408L19.5425 16.6516C19.933 16.261 20.5661 16.261 20.9567 16.6516L25.3202 21.0151C25.7108 21.4056 25.7108 22.0388 25.3202 22.4293L23.9292 23.8204C21.8178 25.9317 18.4753 26.1693 16.0866 24.3777L11.3226 20.8048C9.57905 19.4971 8.03023 17.9483 6.72258 16.2048L3.14961 11.4408C1.35807 9.05207 1.59562 5.7095 3.70697 3.59815Z" stroke="#EB6320" stroke-width="2"/>
</svg>
