<svg width="32" height="32" viewBox="0 0 32 32" fill="none" xmlns="http://www.w3.org/2000/svg">
<path d="M16 31C14.0302 31 12.0796 30.612 10.2597 29.8582C8.43986 29.1044 6.78628 27.9995 5.3934 26.6066C4.00052 25.2137 2.89563 23.5601 2.14181 21.7403C1.38799 19.9204 1 17.9698 1 16C1 14.0302 1.38799 12.0796 2.14181 10.2597C2.89563 8.43986 4.00052 6.78628 5.3934 5.3934C6.78628 4.00052 8.43987 2.89563 10.2598 2.14181C12.0796 1.38799 14.0302 1 16 1C17.9698 1 19.9204 1.38799 21.7403 2.14181C23.5601 2.89563 25.2137 4.00052 26.6066 5.3934C27.9995 6.78628 29.1044 8.43987 29.8582 10.2598C30.612 12.0796 31 14.0302 31 16C31 17.9698 30.612 19.9204 29.8582 21.7403C29.1044 23.5601 27.9995 25.2137 26.6066 26.6066C25.2137 27.9995 23.5601 29.1044 21.7402 29.8582C19.9204 30.612 17.9698 31 16 31L16 31Z" stroke="#FEFEFE" stroke-linecap="round"/>
</svg>
