<svg width="19" height="16" viewBox="0 0 19 16" fill="none" xmlns="http://www.w3.org/2000/svg">
    <path d="M1.17578 7C0.623496 7 0.175781 7.44772 0.175781 8C0.175781 8.55228 0.623496 9 1.17578 9V7ZM18.6476 8.70711C19.0381 8.31658 19.0381 7.68342 18.6476 7.29289L12.2836 0.928932C11.8931 0.538408 11.2599 0.538408 10.8694 0.928932C10.4789 1.31946 10.4789 1.95262 10.8694 2.34315L16.5263 8L10.8694 13.6569C10.4789 14.0474 10.4789 14.6805 10.8694 15.0711C11.2599 15.4616 11.8931 15.4616 12.2836 15.0711L18.6476 8.70711ZM1.17578 9H17.9405V7H1.17578V9Z"
          fill="#FEFEFE"/>
</svg>