<svg width="18" height="17" viewBox="0 0 18 17" fill="none" xmlns="http://www.w3.org/2000/svg">
<path d="M8.37799 15.9366L8.37778 15.9364C8.10691 15.772 7.80134 15.5725 7.46955 15.3491C6.52777 14.7123 5.58645 14.0087 4.71625 13.2113C2.1451 10.8536 0.674316 8.35315 0.674316 5.77188C0.674316 3.39416 2.60149 1.46729 4.9789 1.46729C6.40097 1.46729 7.72169 2.18472 8.53522 3.28435L8.92869 3.81618L9.33296 3.29252C10.1774 2.19875 11.5101 1.46729 12.8409 1.46729C15.2184 1.46729 17.1455 3.39416 17.1455 5.77188C17.1455 8.35315 15.6747 10.8536 13.1036 13.2113C12.2334 14.0086 11.2922 14.7122 10.3504 15.349C10.0186 15.5725 9.71297 15.772 9.44207 15.9364L9.44186 15.9366C9.34108 15.9978 9.27237 16.0412 9.22109 16.0736C9.16962 16.1061 9.13571 16.1275 9.10456 16.1448L9.10364 16.1453C8.99096 16.208 8.82889 16.208 8.71621 16.1453L8.71528 16.1448C8.68413 16.1275 8.65023 16.1061 8.59876 16.0736C8.54748 16.0412 8.47877 15.9978 8.37799 15.9366Z" stroke="#2B2A29"/>
</svg>
