<svg width="133" height="131" viewBox="0 0 133 131" fill="none" xmlns="http://www.w3.org/2000/svg">
<path d="M126.358 69.536C127.527 69.536 128.462 70.4713 128.462 71.6403C128.462 72.8094 127.527 73.7446 126.358 73.7446C125.189 73.7446 124.253 72.8094 124.253 71.6403C124.253 70.4713 125.189 69.536 126.358 69.536Z" fill="#8E8E8E"/>
<path d="M116.304 117.701C117.473 117.701 118.408 118.637 118.408 119.806C118.408 120.975 117.473 121.91 116.304 121.91C115.134 121.91 114.199 120.975 114.199 119.806C114.199 118.637 115.134 117.701 116.304 117.701Z" fill="#8E8E8E"/>
<path d="M95.7254 0.795166C96.8945 0.795166 97.8297 1.73042 97.8297 2.89948C97.8297 4.06854 96.8945 5.00379 95.7254 5.00379C94.5563 5.00379 93.6211 4.06854 93.6211 2.89948C93.6211 1.73042 94.5563 0.795166 95.7254 0.795166Z" fill="#8E8E8E"/>
<path d="M84.0345 85.6693C85.2035 85.6693 86.1388 86.6045 86.1388 87.7736C86.1388 88.9426 85.2035 89.8779 84.0345 89.8779C82.8654 89.8779 81.9302 88.9426 81.9302 87.7736C81.9302 86.6045 82.8654 85.6693 84.0345 85.6693Z" fill="#8E8E8E"/>
<path d="M52.0052 11.0828C53.1742 11.0828 54.1095 12.018 54.1095 13.1871C54.1095 14.3561 53.1742 15.2914 52.0052 15.2914C50.8361 15.2914 49.9009 14.3561 49.9009 13.1871C49.9009 12.018 50.8361 11.0828 52.0052 11.0828Z" fill="#8E8E8E"/>
<path d="M15.2957 92.683C16.4579 92.683 17.4 91.7409 17.4 90.5787C17.4 89.4165 16.4579 88.4744 15.2957 88.4744C14.1335 88.4744 13.1914 89.4165 13.1914 90.5787C13.1914 91.7409 14.1335 92.683 15.2957 92.683Z" fill="#8E8E8E"/>
<path d="M2.20195 60.6509C3.36413 60.6509 4.30625 59.7088 4.30625 58.5466C4.30625 57.3844 3.36413 56.4423 2.20195 56.4423C1.03977 56.4423 0.0976562 57.3844 0.0976562 58.5466C0.0976562 59.7088 1.03977 60.6509 2.20195 60.6509Z" fill="#8E8E8E"/>
<path d="M84.0357 43.1147C80.7624 43.1147 78.1904 40.5428 78.1904 37.2694C78.1904 33.9961 80.7624 31.4241 84.0357 31.4241C87.3091 31.4241 89.881 33.9961 89.881 37.2694C89.881 40.5428 87.3091 43.1147 84.0357 43.1147ZM84.0357 34.4637C82.399 34.4637 80.9962 35.8666 80.9962 37.5032C80.9962 39.1399 82.399 40.5428 84.0357 40.5428C85.6724 40.5428 87.0753 39.1399 87.0753 37.5032C87.0753 35.8666 85.6724 34.4637 84.0357 34.4637Z" fill="#8E8E8E"/>
<path d="M100.168 43.1147C96.8947 43.1147 94.3228 40.5428 94.3228 37.2694C94.3228 33.9961 96.8947 31.4241 100.168 31.4241C103.441 31.4241 106.013 33.9961 106.013 37.2694C106.013 40.5428 103.441 43.1147 100.168 43.1147ZM100.168 34.4637C98.5314 34.4637 97.1285 35.8666 97.1285 37.5032C97.1285 39.1399 98.5314 40.5428 100.168 40.5428C101.805 40.5428 103.208 39.1399 103.208 37.5032C103.208 35.8666 101.805 34.4637 100.168 34.4637Z" fill="#8E8E8E"/>
<path d="M116.302 43.1147C113.029 43.1147 110.457 40.5428 110.457 37.2694C110.457 33.9961 113.029 31.4241 116.302 31.4241C119.576 31.4241 122.148 33.9961 122.148 37.2694C122.148 40.5428 119.342 43.1147 116.302 43.1147ZM116.302 34.4637C114.666 34.4637 113.263 35.8666 113.263 37.5032C113.263 39.1399 114.666 40.5428 116.302 40.5428C117.939 40.5428 119.342 39.1399 119.342 37.5032C119.342 35.8666 117.705 34.4637 116.302 34.4637Z" fill="#8E8E8E"/>
<path d="M48.2642 96.8919C47.5628 96.8919 46.8613 96.1905 46.8613 95.489V89.1761C46.8613 88.4747 47.5628 87.7733 48.2642 87.7733C48.9657 87.7733 49.667 88.4747 49.667 89.1761V95.489C49.667 96.1905 48.9657 96.8919 48.2642 96.8919Z" fill="#8E8E8E"/>
<path d="M35.4019 96.6581C34.7005 96.6581 33.999 95.9567 33.999 95.2552V89.1761C33.999 88.4747 34.7005 87.7733 35.4019 87.7733C36.1033 87.7733 36.8047 88.4747 36.8047 89.1761V95.2552C36.8047 95.9567 36.1033 96.6581 35.4019 96.6581Z" fill="#8E8E8E"/>
<path d="M80.9952 130.795H2.90184C2.2004 130.795 1.49902 130.094 1.49902 129.392V125.183C1.49902 121.676 2.43423 117.234 4.30473 113.493C6.40904 109.05 9.21477 106.011 12.2543 104.608L23.7112 99.6979C25.5817 98.9965 27.4521 97.8274 28.855 96.6584C30.4917 95.2555 31.427 94.3203 32.596 92.9174C33.0636 92.2159 33.9989 92.2159 34.7003 92.6836C35.4018 93.1512 35.4018 94.0865 34.9341 94.7879C33.5313 96.6584 32.1284 97.8275 30.7255 99.2303C28.8551 100.633 26.9846 101.802 24.8802 102.738L13.4234 107.648C11.0853 108.583 8.74719 111.389 7.1105 115.13C5.47382 118.637 4.53855 122.378 4.53855 125.651V128.457H79.5923V125.651C79.5923 119.104 75.6174 109.986 70.7074 107.881L59.2506 102.971C57.1463 102.036 55.042 100.867 53.1715 99.4641C53.1715 99.4641 52.9377 99.2303 52.7039 99.2303C51.301 98.0613 50.1319 96.8922 48.729 95.0217C48.2614 94.3203 48.4953 93.385 48.9629 92.9174C49.6643 92.4498 50.5995 92.6836 51.0672 93.1512C52.2362 94.7879 53.1715 95.4893 54.5744 96.6584L54.8082 96.8922C56.4449 98.2951 58.3153 99.2303 60.1858 100.166L71.6427 105.076C78.4232 108.115 82.398 119.104 82.398 125.651V129.86C82.398 130.094 81.6966 130.795 80.9952 130.795Z" fill="#8E8E8E"/>
<path d="M60.6552 67.6655H60.4213C59.7199 67.4317 59.0185 66.7302 59.2523 66.0288C62.5256 50.831 56.9142 44.7519 53.8746 42.6476V43.349C53.8746 44.0505 53.1732 44.7519 52.4717 44.7519C51.7703 44.7519 51.0688 44.0505 51.0688 43.349V40.3095C51.0688 39.8418 51.3027 39.3742 51.7703 39.1404C52.238 38.9066 52.7055 38.6728 53.1731 38.9066C53.407 38.9066 56.9142 40.0757 59.9538 44.2843C62.5257 48.0253 65.0976 54.8058 62.5256 66.7303C62.058 67.1979 61.3566 67.6655 60.6552 67.6655Z" fill="#8E8E8E"/>
<path d="M60.6548 67.6654C60.1872 67.6654 59.4857 67.4316 59.2519 66.7301L56.68 60.1834C56.4461 59.482 56.68 58.5467 57.3814 58.3129C58.0829 58.0791 59.0181 58.3129 59.2519 59.0143L61.8239 65.5611C62.0577 66.2625 61.8239 67.1978 61.1224 67.4316C61.1224 67.6654 60.8886 67.6654 60.6548 67.6654Z" fill="#8E8E8E"/>
<path d="M53.8718 62.7554C53.638 62.7554 53.1704 62.5216 52.9366 62.2878C52.469 61.8202 52.4689 61.3526 52.4689 60.8849L52.9366 58.7806L48.2604 60.6511C47.7927 60.8849 47.3251 60.6511 46.8575 60.4173C46.3898 60.1835 46.156 59.7159 46.3898 59.0144V58.0792C42.8826 59.482 36.1021 61.1187 25.5805 58.7806C23.0086 58.313 20.4367 57.3777 17.8648 56.4425C17.1633 56.2087 16.6957 55.2734 16.9295 54.572C17.1633 53.8705 18.0986 53.4029 18.8 53.6368C21.3719 54.572 23.7101 55.2734 26.0482 55.741C40.5446 59.0144 47.0913 54.3382 47.0913 54.3382C47.5589 53.8706 48.2603 53.8706 48.7279 54.3382C49.1956 54.572 49.4294 55.2734 49.4294 55.741L49.1956 56.9101L54.3394 55.0396C54.807 54.8058 55.5085 55.0396 55.7423 55.2734C56.2099 55.7411 56.4438 56.2087 56.21 56.6763L55.7423 58.7806L57.6128 58.0792C58.3143 57.8454 59.2495 58.313 59.4833 59.0144C59.7171 59.7159 59.2495 60.6511 58.5481 60.8849L54.1057 62.5216C54.1057 62.7554 53.8718 62.7554 53.8718 62.7554Z" fill="#8E8E8E"/>
<path d="M18.1033 56.6765C17.8694 56.6765 17.6357 56.6765 17.4019 56.4426C16.7004 56.2088 16.2328 55.2736 16.7004 54.5721C22.0781 42.6477 31.6644 39.842 38.9126 39.6082C46.3946 39.3744 52.7075 41.9463 52.9413 41.9463C53.6428 42.1801 54.1104 43.1153 53.6427 43.8168C53.4089 44.5182 52.4737 44.9858 51.7723 44.5182C51.7723 44.5182 45.6932 42.1801 38.9126 42.4139C29.7939 42.6477 23.2471 47.324 19.5061 55.7412C19.0385 56.4426 18.5709 56.6765 18.1033 56.6765Z" fill="#8E8E8E"/>
<path d="M41.9485 91.7479C39.3765 91.7479 37.0384 91.2803 34.9341 90.345C28.3873 87.5393 24.1787 81.2263 24.1787 73.9781V57.3775C24.1787 56.676 24.8802 55.9746 25.5816 55.9746C26.283 55.9746 26.9845 56.676 26.9845 57.3775V73.9781C26.9845 79.8235 30.4916 85.2011 35.8693 87.5393C37.7398 88.2407 39.6103 88.7083 41.7146 88.7083C43.5851 88.7083 45.6894 88.2407 47.3261 87.5393C49.1966 86.8378 50.8333 85.6688 52.0024 84.2659C54.8081 81.4601 56.4449 77.7191 56.4449 73.7443V59.7156C56.211 59.0142 56.6786 58.3127 57.3801 58.0789C58.0815 57.8451 59.0167 58.0789 59.2506 59.0142V73.7443C59.2506 78.4206 57.3801 82.863 54.1067 86.3702C52.47 88.0069 50.5995 89.4098 48.2614 90.1112C46.6247 91.2803 44.2866 91.7479 41.9485 91.7479Z" fill="#8E8E8E"/>
<path d="M41.9529 81.6942C40.3162 81.6942 38.6795 80.9927 37.7443 79.8237C37.2766 79.3561 37.2766 78.4208 37.7443 77.7194C38.2119 77.2517 39.1471 77.2517 39.8486 77.7194C40.55 78.4208 41.2514 78.6546 42.1867 78.6546C43.1219 78.6546 43.8234 78.4208 44.5248 77.7194C44.9924 77.2517 45.9277 77.2517 46.6291 77.7194C47.0967 78.187 47.0967 79.1222 46.6291 79.8237C44.9924 80.9927 43.5896 81.6942 41.9529 81.6942Z" fill="#8E8E8E"/>
<path d="M68.1387 130.795C67.4373 130.795 66.7358 130.094 66.7358 129.392V118.637C66.7358 117.936 67.4373 117.234 68.1387 117.234C68.8402 117.234 69.5415 117.936 69.5415 118.637V129.392C69.7754 130.094 69.074 130.795 68.1387 130.795Z" fill="#8E8E8E"/>
<path d="M15.9957 130.795C15.2942 130.795 14.5928 130.094 14.5928 129.392V118.637C14.5928 117.936 15.2942 117.234 15.9957 117.234C16.6971 117.234 17.3985 117.936 17.3985 118.637V129.392C17.3985 130.094 16.9309 130.795 15.9957 130.795Z" fill="#8E8E8E"/>
<path d="M48.2645 111.622C47.7968 111.622 47.3292 111.388 47.0954 110.921L40.7824 102.503C40.3148 102.036 40.3148 101.1 41.0163 100.633L49.1997 92.4494C49.6673 91.9818 50.6026 91.9818 51.304 92.4494C52.0054 92.917 51.7716 93.8523 51.304 94.5537L44.0558 101.802L48.0306 107.413L52.7069 97.1257C52.9407 96.4242 53.8759 96.1904 54.5773 96.4242C55.2788 96.658 55.5126 97.5933 55.2788 98.2947L49.4335 110.921C49.1997 111.154 48.7321 111.622 48.2645 111.622Z" fill="#8E8E8E"/>
<path d="M35.403 111.622C34.7015 111.622 34.2339 111.154 34.0001 110.687L28.3886 98.0608C28.3886 97.827 28.1548 97.5932 28.1548 97.3594C28.1548 96.658 28.8562 95.9565 29.5577 95.9565C30.2591 95.9565 30.7267 96.4242 30.9605 96.8918L35.403 107.18L39.6116 101.568L34.2339 96.1903L32.831 94.7875C32.5972 94.5537 32.3634 94.086 32.3634 93.8522C32.3634 93.1508 33.0648 92.4493 33.7663 92.4493C34.2339 92.4493 34.4677 92.6831 34.9353 92.917L36.3382 94.3198L42.8849 100.867C43.3526 101.334 43.3526 102.269 43.1188 102.737L36.572 111.154C36.3382 111.388 35.8706 111.622 35.403 111.622Z" fill="#8E8E8E"/>
<path d="M77.489 67.8997C77.0214 67.8997 76.7875 67.6658 76.5537 67.432C76.0861 66.9644 76.0862 66.263 76.32 65.7953L80.2947 56.9105C72.1113 52.2342 67.4351 44.986 67.4351 37.0364C67.4351 23.2415 82.1652 12.2523 100.403 12.2523C118.64 12.2523 132.903 23.7091 132.903 37.2702C132.903 50.8314 118.172 62.0543 99.9349 62.0543C97.363 62.0543 94.7911 61.8205 92.2192 61.3529L77.7228 67.6658C77.9566 67.8997 77.7228 67.8997 77.489 67.8997ZM100.169 15.2919C83.5681 15.2919 70.2408 25.112 70.2408 37.2702C70.2408 44.2846 74.9171 51.0652 82.8667 55.04C83.5681 55.5076 83.8019 56.209 83.5681 56.9105L80.5286 63.691L91.7515 58.781C91.9853 58.5472 92.2192 58.5472 92.6868 58.781C95.2588 59.2486 97.5968 59.4824 100.169 59.4824C116.769 59.4824 130.097 49.6623 130.097 37.5041C130.097 25.3458 116.536 15.2919 100.169 15.2919Z" fill="#8E8E8E"/>
<path d="M15.9952 28.6187C10.3837 28.6187 5.70752 23.9424 5.70752 18.3309C5.70752 12.7194 10.3837 8.04321 15.9952 8.04321C21.6067 8.04321 26.283 12.7194 26.283 18.3309C26.283 23.9424 21.6067 28.6187 15.9952 28.6187ZM15.9952 11.0828C12.0204 11.0828 8.74705 14.3561 8.74705 18.3309C8.74705 22.3058 12.0204 25.5791 15.9952 25.5791C19.9701 25.5791 23.2434 22.3058 23.2434 18.3309C23.2434 14.3561 20.2039 11.0828 15.9952 11.0828Z" fill="#8E8E8E"/>
<path d="M112.563 106.011C107.653 106.011 103.678 102.036 103.678 97.1261C103.678 92.2161 107.653 88.2413 112.563 88.2413C117.473 88.2413 121.448 92.2161 121.448 97.1261C121.448 102.036 117.473 106.011 112.563 106.011ZM112.563 91.2808C109.29 91.2808 106.718 93.8528 106.718 97.1261C106.718 100.4 109.29 102.971 112.563 102.971C115.837 102.971 118.408 100.4 118.408 97.1261C118.408 93.8528 115.837 91.2808 112.563 91.2808Z" fill="#8E8E8E"/>
<path d="M126.358 69.536C127.527 69.536 128.462 70.4713 128.462 71.6403C128.462 72.8094 127.527 73.7446 126.358 73.7446C125.189 73.7446 124.253 72.8094 124.253 71.6403C124.253 70.4713 125.189 69.536 126.358 69.536Z" fill="#8E8E8E"/>
<path d="M116.304 117.701C117.473 117.701 118.408 118.637 118.408 119.806C118.408 120.975 117.473 121.91 116.304 121.91C115.134 121.91 114.199 120.975 114.199 119.806C114.199 118.637 115.134 117.701 116.304 117.701Z" fill="#8E8E8E"/>
<path d="M95.7254 0.795166C96.8945 0.795166 97.8297 1.73042 97.8297 2.89948C97.8297 4.06854 96.8945 5.00379 95.7254 5.00379C94.5563 5.00379 93.6211 4.06854 93.6211 2.89948C93.6211 1.73042 94.5563 0.795166 95.7254 0.795166Z" fill="#8E8E8E"/>
<path d="M84.0345 85.6693C85.2035 85.6693 86.1388 86.6045 86.1388 87.7736C86.1388 88.9426 85.2035 89.8779 84.0345 89.8779C82.8654 89.8779 81.9302 88.9426 81.9302 87.7736C81.9302 86.6045 82.8654 85.6693 84.0345 85.6693Z" fill="#8E8E8E"/>
<path d="M52.0052 11.0828C53.1742 11.0828 54.1095 12.018 54.1095 13.1871C54.1095 14.3561 53.1742 15.2914 52.0052 15.2914C50.8361 15.2914 49.9009 14.3561 49.9009 13.1871C49.9009 12.018 50.8361 11.0828 52.0052 11.0828Z" fill="#8E8E8E"/>
<path d="M15.2957 92.683C16.4579 92.683 17.4 91.7409 17.4 90.5787C17.4 89.4165 16.4579 88.4744 15.2957 88.4744C14.1335 88.4744 13.1914 89.4165 13.1914 90.5787C13.1914 91.7409 14.1335 92.683 15.2957 92.683Z" fill="#8E8E8E"/>
<path d="M2.20195 60.6509C3.36413 60.6509 4.30625 59.7088 4.30625 58.5466C4.30625 57.3844 3.36413 56.4423 2.20195 56.4423C1.03977 56.4423 0.0976562 57.3844 0.0976562 58.5466C0.0976562 59.7088 1.03977 60.6509 2.20195 60.6509Z" fill="#8E8E8E"/>
<path d="M84.0357 43.1147C80.7624 43.1147 78.1904 40.5428 78.1904 37.2694C78.1904 33.9961 80.7624 31.4241 84.0357 31.4241C87.3091 31.4241 89.881 33.9961 89.881 37.2694C89.881 40.5428 87.3091 43.1147 84.0357 43.1147ZM84.0357 34.4637C82.399 34.4637 80.9962 35.8666 80.9962 37.5032C80.9962 39.1399 82.399 40.5428 84.0357 40.5428C85.6724 40.5428 87.0753 39.1399 87.0753 37.5032C87.0753 35.8666 85.6724 34.4637 84.0357 34.4637Z" fill="#8E8E8E"/>
<path d="M100.168 43.1147C96.8947 43.1147 94.3228 40.5428 94.3228 37.2694C94.3228 33.9961 96.8947 31.4241 100.168 31.4241C103.441 31.4241 106.013 33.9961 106.013 37.2694C106.013 40.5428 103.441 43.1147 100.168 43.1147ZM100.168 34.4637C98.5314 34.4637 97.1285 35.8666 97.1285 37.5032C97.1285 39.1399 98.5314 40.5428 100.168 40.5428C101.805 40.5428 103.208 39.1399 103.208 37.5032C103.208 35.8666 101.805 34.4637 100.168 34.4637Z" fill="#8E8E8E"/>
<path d="M116.302 43.1147C113.029 43.1147 110.457 40.5428 110.457 37.2694C110.457 33.9961 113.029 31.4241 116.302 31.4241C119.576 31.4241 122.148 33.9961 122.148 37.2694C122.148 40.5428 119.342 43.1147 116.302 43.1147ZM116.302 34.4637C114.666 34.4637 113.263 35.8666 113.263 37.5032C113.263 39.1399 114.666 40.5428 116.302 40.5428C117.939 40.5428 119.342 39.1399 119.342 37.5032C119.342 35.8666 117.705 34.4637 116.302 34.4637Z" fill="#8E8E8E"/>
<path d="M48.2642 96.8919C47.5628 96.8919 46.8613 96.1905 46.8613 95.489V89.1761C46.8613 88.4747 47.5628 87.7733 48.2642 87.7733C48.9657 87.7733 49.667 88.4747 49.667 89.1761V95.489C49.667 96.1905 48.9657 96.8919 48.2642 96.8919Z" fill="#8E8E8E"/>
<path d="M35.4019 96.6581C34.7005 96.6581 33.999 95.9567 33.999 95.2552V89.1761C33.999 88.4747 34.7005 87.7733 35.4019 87.7733C36.1033 87.7733 36.8047 88.4747 36.8047 89.1761V95.2552C36.8047 95.9567 36.1033 96.6581 35.4019 96.6581Z" fill="#8E8E8E"/>
<path d="M80.9952 130.795H2.90184C2.2004 130.795 1.49902 130.094 1.49902 129.392V125.183C1.49902 121.676 2.43423 117.234 4.30473 113.493C6.40904 109.05 9.21477 106.011 12.2543 104.608L23.7112 99.6979C25.5817 98.9965 27.4521 97.8274 28.855 96.6584C30.4917 95.2555 31.427 94.3203 32.596 92.9174C33.0636 92.2159 33.9989 92.2159 34.7003 92.6836C35.4018 93.1512 35.4018 94.0865 34.9341 94.7879C33.5313 96.6584 32.1284 97.8275 30.7255 99.2303C28.8551 100.633 26.9846 101.802 24.8802 102.738L13.4234 107.648C11.0853 108.583 8.74719 111.389 7.1105 115.13C5.47382 118.637 4.53855 122.378 4.53855 125.651V128.457H79.5923V125.651C79.5923 119.104 75.6174 109.986 70.7074 107.881L59.2506 102.971C57.1463 102.036 55.042 100.867 53.1715 99.4641C53.1715 99.4641 52.9377 99.2303 52.7039 99.2303C51.301 98.0613 50.1319 96.8922 48.729 95.0217C48.2614 94.3203 48.4953 93.385 48.9629 92.9174C49.6643 92.4498 50.5995 92.6836 51.0672 93.1512C52.2362 94.7879 53.1715 95.4893 54.5744 96.6584L54.8082 96.8922C56.4449 98.2951 58.3153 99.2303 60.1858 100.166L71.6427 105.076C78.4232 108.115 82.398 119.104 82.398 125.651V129.86C82.398 130.094 81.6966 130.795 80.9952 130.795Z" fill="#8E8E8E"/>
<path d="M60.6552 67.6655H60.4213C59.7199 67.4317 59.0185 66.7302 59.2523 66.0288C62.5256 50.831 56.9142 44.7519 53.8746 42.6476V43.349C53.8746 44.0505 53.1732 44.7519 52.4717 44.7519C51.7703 44.7519 51.0688 44.0505 51.0688 43.349V40.3095C51.0688 39.8418 51.3027 39.3742 51.7703 39.1404C52.238 38.9066 52.7055 38.6728 53.1731 38.9066C53.407 38.9066 56.9142 40.0757 59.9538 44.2843C62.5257 48.0253 65.0976 54.8058 62.5256 66.7303C62.058 67.1979 61.3566 67.6655 60.6552 67.6655Z" fill="#8E8E8E"/>
<path d="M60.6548 67.6654C60.1872 67.6654 59.4857 67.4316 59.2519 66.7301L56.68 60.1834C56.4461 59.482 56.68 58.5467 57.3814 58.3129C58.0829 58.0791 59.0181 58.3129 59.2519 59.0143L61.8239 65.5611C62.0577 66.2625 61.8239 67.1978 61.1224 67.4316C61.1224 67.6654 60.8886 67.6654 60.6548 67.6654Z" fill="#8E8E8E"/>
<path d="M53.8718 62.7554C53.638 62.7554 53.1704 62.5216 52.9366 62.2878C52.469 61.8202 52.4689 61.3526 52.4689 60.8849L52.9366 58.7806L48.2604 60.6511C47.7927 60.8849 47.3251 60.6511 46.8575 60.4173C46.3898 60.1835 46.156 59.7159 46.3898 59.0144V58.0792C42.8826 59.482 36.1021 61.1187 25.5805 58.7806C23.0086 58.313 20.4367 57.3777 17.8648 56.4425C17.1633 56.2087 16.6957 55.2734 16.9295 54.572C17.1633 53.8705 18.0986 53.4029 18.8 53.6368C21.3719 54.572 23.7101 55.2734 26.0482 55.741C40.5446 59.0144 47.0913 54.3382 47.0913 54.3382C47.5589 53.8706 48.2603 53.8706 48.7279 54.3382C49.1956 54.572 49.4294 55.2734 49.4294 55.741L49.1956 56.9101L54.3394 55.0396C54.807 54.8058 55.5085 55.0396 55.7423 55.2734C56.2099 55.7411 56.4438 56.2087 56.21 56.6763L55.7423 58.7806L57.6128 58.0792C58.3143 57.8454 59.2495 58.313 59.4833 59.0144C59.7171 59.7159 59.2495 60.6511 58.5481 60.8849L54.1057 62.5216C54.1057 62.7554 53.8718 62.7554 53.8718 62.7554Z" fill="#8E8E8E"/>
<path d="M18.1033 56.6765C17.8694 56.6765 17.6357 56.6765 17.4019 56.4426C16.7004 56.2088 16.2328 55.2736 16.7004 54.5721C22.0781 42.6477 31.6644 39.842 38.9126 39.6082C46.3946 39.3744 52.7075 41.9463 52.9413 41.9463C53.6428 42.1801 54.1104 43.1153 53.6427 43.8168C53.4089 44.5182 52.4737 44.9858 51.7723 44.5182C51.7723 44.5182 45.6932 42.1801 38.9126 42.4139C29.7939 42.6477 23.2471 47.324 19.5061 55.7412C19.0385 56.4426 18.5709 56.6765 18.1033 56.6765Z" fill="#8E8E8E"/>
<path d="M41.9485 91.7479C39.3765 91.7479 37.0384 91.2803 34.9341 90.345C28.3873 87.5393 24.1787 81.2263 24.1787 73.9781V57.3775C24.1787 56.676 24.8802 55.9746 25.5816 55.9746C26.283 55.9746 26.9845 56.676 26.9845 57.3775V73.9781C26.9845 79.8235 30.4916 85.2011 35.8693 87.5393C37.7398 88.2407 39.6103 88.7083 41.7146 88.7083C43.5851 88.7083 45.6894 88.2407 47.3261 87.5393C49.1966 86.8378 50.8333 85.6688 52.0024 84.2659C54.8081 81.4601 56.4449 77.7191 56.4449 73.7443V59.7156C56.211 59.0142 56.6786 58.3127 57.3801 58.0789C58.0815 57.8451 59.0167 58.0789 59.2506 59.0142V73.7443C59.2506 78.4206 57.3801 82.863 54.1067 86.3702C52.47 88.0069 50.5995 89.4098 48.2614 90.1112C46.6247 91.2803 44.2866 91.7479 41.9485 91.7479Z" fill="#8E8E8E"/>
<path d="M41.9529 81.6942C40.3162 81.6942 38.6795 80.9927 37.7443 79.8237C37.2766 79.3561 37.2766 78.4208 37.7443 77.7194C38.2119 77.2517 39.1471 77.2517 39.8486 77.7194C40.55 78.4208 41.2514 78.6546 42.1867 78.6546C43.1219 78.6546 43.8234 78.4208 44.5248 77.7194C44.9924 77.2517 45.9277 77.2517 46.6291 77.7194C47.0967 78.187 47.0967 79.1222 46.6291 79.8237C44.9924 80.9927 43.5896 81.6942 41.9529 81.6942Z" fill="#8E8E8E"/>
<path d="M68.1387 130.795C67.4373 130.795 66.7358 130.094 66.7358 129.392V118.637C66.7358 117.936 67.4373 117.234 68.1387 117.234C68.8402 117.234 69.5415 117.936 69.5415 118.637V129.392C69.7754 130.094 69.074 130.795 68.1387 130.795Z" fill="#8E8E8E"/>
<path d="M15.9957 130.795C15.2942 130.795 14.5928 130.094 14.5928 129.392V118.637C14.5928 117.936 15.2942 117.234 15.9957 117.234C16.6971 117.234 17.3985 117.936 17.3985 118.637V129.392C17.3985 130.094 16.9309 130.795 15.9957 130.795Z" fill="#8E8E8E"/>
<path d="M48.2645 111.622C47.7968 111.622 47.3292 111.388 47.0954 110.921L40.7824 102.503C40.3148 102.036 40.3148 101.1 41.0163 100.633L49.1997 92.4494C49.6673 91.9818 50.6026 91.9818 51.304 92.4494C52.0054 92.917 51.7716 93.8523 51.304 94.5537L44.0558 101.802L48.0306 107.413L52.7069 97.1257C52.9407 96.4242 53.8759 96.1904 54.5773 96.4242C55.2788 96.658 55.5126 97.5933 55.2788 98.2947L49.4335 110.921C49.1997 111.154 48.7321 111.622 48.2645 111.622Z" fill="#8E8E8E"/>
<path d="M35.403 111.622C34.7015 111.622 34.2339 111.154 34.0001 110.687L28.3886 98.0608C28.3886 97.827 28.1548 97.5932 28.1548 97.3594C28.1548 96.658 28.8562 95.9565 29.5577 95.9565C30.2591 95.9565 30.7267 96.4242 30.9605 96.8918L35.403 107.18L39.6116 101.568L34.2339 96.1903L32.831 94.7875C32.5972 94.5537 32.3634 94.086 32.3634 93.8522C32.3634 93.1508 33.0648 92.4493 33.7663 92.4493C34.2339 92.4493 34.4677 92.6831 34.9353 92.917L36.3382 94.3198L42.8849 100.867C43.3526 101.334 43.3526 102.269 43.1188 102.737L36.572 111.154C36.3382 111.388 35.8706 111.622 35.403 111.622Z" fill="#8E8E8E"/>
<path d="M77.489 67.8997C77.0214 67.8997 76.7875 67.6658 76.5537 67.432C76.0861 66.9644 76.0862 66.263 76.32 65.7953L80.2947 56.9105C72.1113 52.2342 67.4351 44.986 67.4351 37.0364C67.4351 23.2415 82.1652 12.2523 100.403 12.2523C118.64 12.2523 132.903 23.7091 132.903 37.2702C132.903 50.8314 118.172 62.0543 99.9349 62.0543C97.363 62.0543 94.7911 61.8205 92.2192 61.3529L77.7228 67.6658C77.9566 67.8997 77.7228 67.8997 77.489 67.8997ZM100.169 15.2919C83.5681 15.2919 70.2408 25.112 70.2408 37.2702C70.2408 44.2846 74.9171 51.0652 82.8667 55.04C83.5681 55.5076 83.8019 56.209 83.5681 56.9105L80.5286 63.691L91.7515 58.781C91.9853 58.5472 92.2192 58.5472 92.6868 58.781C95.2588 59.2486 97.5968 59.4824 100.169 59.4824C116.769 59.4824 130.097 49.6623 130.097 37.5041C130.097 25.3458 116.536 15.2919 100.169 15.2919Z" fill="#8E8E8E"/>
<path d="M15.9952 28.6187C10.3837 28.6187 5.70752 23.9424 5.70752 18.3309C5.70752 12.7194 10.3837 8.04321 15.9952 8.04321C21.6067 8.04321 26.283 12.7194 26.283 18.3309C26.283 23.9424 21.6067 28.6187 15.9952 28.6187ZM15.9952 11.0828C12.0204 11.0828 8.74705 14.3561 8.74705 18.3309C8.74705 22.3058 12.0204 25.5791 15.9952 25.5791C19.9701 25.5791 23.2434 22.3058 23.2434 18.3309C23.2434 14.3561 20.2039 11.0828 15.9952 11.0828Z" fill="#8E8E8E"/>
<path d="M112.563 106.011C107.653 106.011 103.678 102.036 103.678 97.1261C103.678 92.2161 107.653 88.2413 112.563 88.2413C117.473 88.2413 121.448 92.2161 121.448 97.1261C121.448 102.036 117.473 106.011 112.563 106.011ZM112.563 91.2808C109.29 91.2808 106.718 93.8528 106.718 97.1261C106.718 100.4 109.29 102.971 112.563 102.971C115.837 102.971 118.408 100.4 118.408 97.1261C118.408 93.8528 115.837 91.2808 112.563 91.2808Z" fill="#8E8E8E"/>
</svg>
