<svg width="232" height="293" viewBox="0 0 232 293" fill="none" xmlns="http://www.w3.org/2000/svg">
<g opacity="0.4">
<g opacity="0.1">
<path d="M129.728 226.635L112.483 203.921L104.575 208.315L111.662 224.722C106.152 227.627 98.2247 231.161 88.7206 233.528C77.0517 236.438 67.0763 236.873 62.168 236.873C61.8321 236.873 61.5101 236.873 61.2069 236.868L60.5957 225.28L32.8999 233.202C27.749 231.464 20.2838 228.478 12.5947 223.834C9.45002 221.93 6.32866 219.823 3.29127 217.551L8.31158 204.223L-11.611 203.638L-17.8491 194.406L-22.9814 184.651C-24.2505 181.901 -25.4776 178.948 -26.5693 176.001L-29.2381 167.596L-18.7169 154.486L-31.6643 150.215C-32.2662 143.483 -32.2429 136.817 -31.5943 130.373C-30.5819 120.245 -28.375 111.849 -26.6067 106.374L10.1872 76.0914L6.98185 71.4521L-23.4713 89.8201L-17.1866 75.2552L26.4566 45.9977L23.7878 41.0277L0.053257 51.4968L4.15442 39.1475L39.7819 20.0378L62.2986 21.7952L48.7027 8.85065L89.5698 10.712L113.458 22.6881L107.859 8.6853L142.022 29.6281L150.611 53.6794L159.49 60.3501L175.391 70.838L181.046 83.3006L192.178 94.2043L207.682 107.928L227.927 124.199L225.515 133.213L223.028 136.935L222.916 137.205C222.916 137.205 221.974 139.534 219.025 147.121C217.117 152.02 216.239 153.683 215.969 154.146L215.488 154.543L212.414 154.326L207.393 165.565L207.258 165.711L206.091 158.762L202.037 153.711L180.705 162.725L171.393 194.855L174.033 200.614L179.506 202.182L191.101 200.279L195.015 197.95L197.385 193.306L198.057 197.109L197.404 202.324L200.488 208.107L184.69 241.04L147.369 266.23L129.728 226.635Z" fill="#FEFEFE"/>
<path d="M120.551 238.137C103.792 248.733 84.0048 254.875 62.7851 254.875C2.44339 254.875 -46.472 205.341 -46.472 144.242C-46.472 126.214 -42.1889 109.207 -34.6304 94.1691L-23.6986 68.8659L-12.8742 61.5905L-4.33591 32.6495L35.318 12.2217L20.3971 0L-18.4544 16.8326L-17.7498 52.4962L-22.5182 38.4179L-50.1393 68.3367L-70.2859 70.5099L-86 110.232L-60.5998 134.93L-73.7991 128.401L-72.4181 169.328L-85.1695 185.286L-68.5455 224.607L-33.324 223.893L-47.2279 228.721L-17.6799 256.689L-15.5336 277.089L23.6911 293H23.6957L48.0881 267.281L41.6401 280.646L82.0592 279.248L97.82 292.154L136.653 275.326V275.308L120.551 238.137Z" fill="#EB6320"/>
<path d="M156.216 94.6364L159.174 97.4851L165.137 99.7905L170.568 102.394L171.053 103.277L170.666 103.915L163.443 104.652L159.855 104.061L143.562 91.7876L142.788 90.7105L150.934 89.9262L161.017 91.0034L163.294 92.6238L164.217 95.3733L163.924 95.7182L159.804 93.9986L157.429 93.3088L155.637 93.7529L156.216 94.6364ZM225.306 123.993L206.904 126.332L204.511 122.514L202.976 122.779L204.744 134.878L220.136 138.756L215.466 149.107L206.12 147.95L170.101 160.394L153.841 197.578L170.591 213.112L193.691 206.772L196.07 209.007L182.316 237.036L181.084 229.623L174.207 240.962L159.836 252.031L159.925 239.176L148.555 254.884L144.85 238.996L137.469 213.221L122.193 200.437L86.8458 179.371L88.6981 151.521L91.3436 119.207L91.7822 172.318L140.002 193.563L159.043 155.093L136.302 154.021L177.734 139.026L177.114 137.24L132.243 143.131L142.116 134.561L159.398 132.331L182.232 132.506L182.582 130.81L157.984 124.744L173.414 118.584L201.674 116.855L201.847 116.113L159.132 77.0762L156.132 77.4352L147.318 77.61L147.584 76.6321L154.373 72.9708L147.584 70.3819L140.357 68.2418L140.254 67.2544H160.252L173.33 76.8022L174.459 82.2776L192.314 97.6835L226.267 122.514L225.306 123.993ZM71.7429 81.3706L55.0303 74.1991L42.8621 86.52L41.7843 109.286L35.3129 83.6335L50.5605 66.2434L76.054 75.1345L71.7429 81.3706ZM35.089 226.047L53.3786 142.337L57.4704 219.353L35.089 226.047ZM7.46324 198.523L-8.69416 198.967L34.2165 127.555L7.46324 198.523ZM-18.9028 150.213L-28.0849 146.726L18.0684 104.146L-18.9028 150.213ZM209.526 105.79L194.129 92.1608L183.375 81.6304L177.599 68.9032L161.161 58.0657L152.959 51.9052L144.323 27.7169L102.098 1.83252L108.089 16.8274L90.2845 7.8985L41.2711 5.66864L54.5824 18.3439L39.1855 17.1439L1.85503 37.1654L-4.61633 56.6484L24.913 43.6283L-19.4253 73.3487L-29.5359 96.7812L8.41504 73.8873L-28.9994 104.685H-29.0087C-30.833 110.179 -33.2872 119.127 -34.3836 130.083C-35.2468 138.695 -34.8969 146.466 -34.2763 152.343L-23.4705 155.901L-32.3727 166.993L-29.1953 176.99C-28.1689 179.768 -26.9325 182.791 -25.4534 185.98L-20.2512 195.873L-13.1873 206.337C-13.1593 206.37 -13.1359 206.403 -13.1126 206.432L4.28587 206.942L-0.0812454 218.531C3.1521 221.044 6.90335 223.694 11.1585 226.269C19.2815 231.178 27.1246 234.291 32.8401 236.171H32.8448L57.9837 228.976L58.5482 239.62V239.629C61.8002 239.795 74.1411 240.088 89.3933 236.285C100.894 233.412 110.142 228.858 115.265 225.981L108.173 209.555L111.728 207.58L127.307 228.102L146.175 270.446L186.879 242.974L203.638 208.038L200.302 201.774L200.895 197.035L199.5 189.122L198.021 186.887L196.425 186.642L195.622 190.582L192.898 195.916L190.131 197.555L179.67 199.275L176.036 198.235L174.384 194.626L183.025 164.82L201.184 157.143L203.452 159.973L205.239 170.622L206.466 170.716L209.76 167.164L214.164 157.29L216.39 157.45L217.999 156.137C217.999 156.137 218.694 155.717 221.634 148.158C224.573 140.599 225.511 138.279 225.511 138.279L228.101 134.415L231.119 123.133L209.526 105.79Z" fill="#2B2A29"/>
<path d="M120.551 238.137C103.792 248.733 84.0048 254.875 62.7851 254.875C2.44339 254.875 -46.472 205.341 -46.472 144.242C-46.472 126.214 -42.1889 109.207 -34.6304 94.1691L-23.6986 68.8659L-12.8742 61.5905L-4.33591 32.6495L35.318 12.2217L20.3971 0L-18.4544 16.8326L-17.7498 52.4962L-22.5182 38.4179L-50.1393 68.3367L-70.2859 70.5099L-86 110.232L-60.5998 134.93L-73.7991 128.401L-72.4181 169.328L-85.1695 185.286L-68.5455 224.607L-33.324 223.893L-47.2279 228.721L-17.6799 256.689L-15.5336 277.089L23.6911 293H23.6957L48.0881 267.281L41.6401 280.646L82.0592 279.248L97.82 292.154L136.653 275.326V275.308L120.551 238.137Z" fill="#EB6320"/>
</g>
</g>
</svg>
