<svg width="616" height="652" viewBox="0 0 616 652" fill="none" xmlns="http://www.w3.org/2000/svg">
<g opacity="0.05">
<path d="M306.825 607.196L254.241 546.34L230.126 558.111L251.737 602.07C234.935 609.854 210.763 619.321 181.782 625.663C146.199 633.459 115.781 634.624 100.814 634.624C99.7896 634.624 98.8079 634.624 97.8831 634.611L96.0193 603.563L11.566 624.789C-4.14099 620.131 -26.9047 612.132 -50.3513 599.69C-59.9405 594.589 -69.4586 588.944 -78.7206 582.856L-63.412 547.15L-124.163 545.58L-143.185 520.848L-158.835 494.711C-162.704 487.345 -166.446 479.434 -169.775 471.536L-177.913 449.019L-145.831 413.895L-185.312 402.453C-187.147 384.416 -187.076 366.557 -185.098 349.292C-182.011 322.155 -175.281 299.663 -169.889 284.994L-57.6926 203.861L-67.4668 191.432L-160.328 240.643L-141.164 201.621L-8.08195 123.235L-16.22 109.919L-88.5943 137.968L-76.0885 104.882L32.5513 53.6832L101.212 58.3917L59.7539 23.7109L184.371 28.6979L257.215 60.7839L240.142 23.2679L344.314 79.3774L370.507 143.815L397.581 161.687L446.068 189.786L463.312 223.176L497.258 252.389L544.535 289.158L606.268 332.749L598.912 356.899L591.329 366.873L590.987 367.595C590.987 367.595 588.114 373.835 579.122 394.162C573.303 407.288 570.628 411.743 569.803 412.983L568.338 414.047L558.962 413.464L543.653 443.576L543.241 443.968L539.684 425.35L527.32 411.819L462.273 435.969L433.875 522.051L441.928 537.48L458.617 541.682L493.971 536.581L505.908 530.341L513.136 517.899L515.184 528.088L513.193 542.062L522.597 557.554L474.423 645.788L360.619 713.276L306.825 607.196Z" fill="#FEFEFE"/>
<path d="M278.843 638.012C227.739 666.402 167.401 682.856 102.695 682.856C-81.3071 682.856 -230.466 550.146 -230.466 386.45C-230.466 338.15 -217.406 292.584 -194.357 252.296L-161.023 184.504L-128.015 165.012L-101.979 87.474L18.9385 32.7442L-26.5605 0L-145.031 45.0976L-142.883 140.647L-157.423 102.928L-241.649 183.087L-303.082 188.909L-351 295.331L-273.547 361.502L-313.796 344.01L-309.584 453.66L-348.468 496.416L-297.776 601.762L-190.374 599.85L-232.771 612.786L-142.67 687.717L-136.125 742.371L-16.516 785H-16.5017L57.8787 716.094L38.2165 751.901L161.468 748.155L209.528 782.734L327.941 737.649V737.599L278.843 638.012Z" fill="#EFEFEF"/>
<path d="M387.595 253.548L396.615 261.181L414.797 267.357L431.358 274.332L432.837 276.699L431.656 278.407L409.633 280.382L398.692 278.8L349.01 245.916L346.648 243.03L371.489 240.929L402.234 243.815L409.177 248.156L411.994 255.523L411.098 256.447L398.535 251.84L391.294 249.992L385.83 251.182L387.595 253.548ZM598.273 332.2L542.16 338.466L534.862 328.239L530.181 328.948L535.573 361.363L582.509 371.754L568.267 399.486L539.77 396.385L429.935 429.724L380.353 529.349L431.429 570.966L501.868 553.98L509.124 559.967L467.182 635.062L463.426 615.203L442.455 645.58L398.635 675.236L398.905 640.796L364.233 682.881L352.937 640.315L330.429 571.257L283.849 537.007L176.063 480.568L181.711 405.954L189.778 319.379L191.115 461.671L338.155 518.591L396.216 415.523L326.872 412.65L453.211 372.476L451.319 367.691L314.495 383.475L344.6 360.515L397.298 354.54L466.926 355.009L467.993 350.465L392.987 334.213L440.036 317.708L526.211 313.075L526.738 311.088L396.487 206.502L387.339 207.464L360.463 207.932L361.274 205.312L381.975 195.502L361.274 188.566L339.236 182.833L338.923 180.187H399.901L439.78 205.767L443.223 220.437L497.671 261.712L601.203 328.239L598.273 332.2ZM130.009 218.007L79.0468 198.793L41.942 231.803L38.6555 292.798L18.9222 224.07L65.4171 177.479L143.155 201.299L130.009 218.007ZM18.2393 605.622L74.0103 381.348L86.4877 587.686L18.2393 605.622ZM-66.0007 531.881L-115.27 533.07L15.5788 341.744L-66.0007 531.881ZM-146.399 402.448L-174.399 393.107L-33.662 279.027L-146.399 402.448ZM550.156 283.432L503.206 246.916L470.412 218.703L452.798 184.605L402.675 155.569L377.664 139.064L351.329 74.259L222.572 4.91016L240.84 45.0841L186.548 21.162L37.0905 15.1878L77.681 49.1471L30.7309 45.9322L-83.1019 99.5735L-102.835 151.772L-12.7905 116.889L-147.993 196.515L-178.823 259.295L-63.0983 197.958L-177.187 280.47H-177.216C-182.778 295.191 -190.262 319.163 -193.605 348.516C-196.237 371.59 -195.17 392.411 -193.278 408.156L-160.328 417.687L-187.473 447.406L-177.785 474.189C-174.655 481.631 -170.884 489.732 -166.374 498.276L-150.511 524.78L-128.971 552.816C-128.885 552.904 -128.814 552.993 -128.743 553.069L-75.6895 554.436L-89.0062 585.484C-79.1467 592.218 -67.7079 599.318 -54.7326 606.216C-29.9629 619.367 -6.04674 627.708 11.3817 632.746H11.3959L88.0527 613.469L89.7742 641.986V642.011C99.6906 642.454 137.322 643.239 183.831 633.05C218.901 625.354 247.1 613.153 262.721 605.444L241.096 561.435L251.937 556.144L299.442 611.127L356.977 724.574L481.096 650.972L532.201 557.372L522.028 540.589L523.835 527.894L519.581 506.693L515.071 500.706L510.206 500.048L507.758 510.604L499.45 524.894L491.013 529.286L459.115 533.893L448.032 531.108L442.996 521.438L469.345 441.584L524.717 421.016L531.632 428.598L537.081 457.127L540.823 457.38L550.867 447.862L564.298 421.408L571.084 421.839L575.993 418.32C575.993 418.32 578.112 417.194 587.076 396.942C596.039 376.69 598.899 370.476 598.899 370.476L606.795 360.122L616 329.897L550.156 283.432Z" fill="#2B2A29"/>
<path d="M278.843 638.012C227.739 666.402 167.401 682.856 102.695 682.856C-81.3071 682.856 -230.466 550.146 -230.466 386.45C-230.466 338.15 -217.406 292.584 -194.357 252.296L-161.023 184.504L-128.015 165.012L-101.979 87.474L18.9385 32.7442L-26.5605 0L-145.031 45.0976L-142.883 140.647L-157.423 102.928L-241.649 183.087L-303.082 188.909L-351 295.331L-273.547 361.502L-313.796 344.01L-309.584 453.66L-348.468 496.416L-297.776 601.762L-190.374 599.85L-232.771 612.786L-142.67 687.717L-136.125 742.371L-16.516 785H-16.5017L57.8787 716.094L38.2165 751.901L161.468 748.155L209.528 782.734L327.941 737.649V737.599L278.843 638.012Z" fill="#EFEFEF"/>
</g>
</svg>
