<svg width="318" height="293" viewBox="0 0 318 293" fill="none" xmlns="http://www.w3.org/2000/svg">
<g opacity="0.1">
<path d="M215.728 226.635L198.483 203.921L190.575 208.315L197.662 224.722C192.152 227.627 184.225 231.161 174.721 233.528C163.052 236.438 153.077 236.873 148.168 236.873C147.832 236.873 147.51 236.873 147.207 236.868L146.596 225.28L118.9 233.202C113.749 231.464 106.284 228.478 98.595 223.834C95.4503 221.93 92.3289 219.823 89.2915 217.551L94.3118 204.223L74.3892 203.638L68.1511 194.406L63.0188 184.651C61.7498 181.901 60.5227 178.948 59.4309 176.001L56.7621 167.596L67.2833 154.486L54.3359 150.215C53.7341 143.483 53.7574 136.817 54.4059 130.373C55.4184 120.245 57.6253 111.849 59.3936 106.374L96.1874 76.0914L92.9821 71.4521L62.5289 89.8201L68.8137 75.2552L112.457 45.9977L109.788 41.0277L86.0535 51.4968L90.1547 39.1475L125.782 20.0378L148.299 21.7952L134.703 8.85065L175.57 10.712L199.459 22.6881L193.86 8.6853L228.022 29.6281L236.612 53.6794L245.491 60.3501L261.391 70.838L267.046 83.3006L278.179 94.2043L293.683 107.928L313.927 124.199L311.515 133.213L309.028 136.935L308.916 137.205C308.916 137.205 307.974 139.534 305.025 147.121C303.117 152.02 302.24 153.683 301.969 154.146L301.488 154.543L298.414 154.326L293.393 165.565L293.258 165.711L292.092 158.762L288.037 153.711L266.706 162.725L257.393 194.855L260.034 200.614L265.506 202.182L277.101 200.279L281.015 197.95L283.385 193.306L284.057 197.109L283.404 202.324L286.488 208.107L270.69 241.04L233.369 266.23L215.728 226.635Z" fill="#FEFEFE"/>
<path d="M206.551 238.137C189.792 248.733 170.005 254.875 148.785 254.875C88.4434 254.875 39.528 205.341 39.528 144.242C39.528 126.214 43.8111 109.207 51.3696 94.1691L62.3014 68.8659L73.1258 61.5905L81.6641 32.6495L121.318 12.2217L106.397 0L67.5456 16.8326L68.2502 52.4962L63.4818 38.4179L35.8607 68.3367L15.7141 70.5099L0 110.232L25.4002 134.93L12.2009 128.401L13.5819 169.328L0.830498 185.286L17.4545 224.607L52.676 223.893L38.7721 228.721L68.3201 256.689L70.4664 277.089L109.691 293H109.696L134.088 267.281L127.64 280.646L168.059 279.248L183.82 292.154L222.653 275.326V275.308L206.551 238.137Z" fill="#EB6320"/>
<path d="M242.216 94.6364L245.174 97.4851L251.136 99.7905L256.567 102.394L257.053 103.277L256.665 103.915L249.443 104.652L245.855 104.061L229.562 91.7876L228.788 90.7105L236.934 89.9262L247.017 91.0034L249.293 92.6238L250.217 95.3733L249.923 95.7182L245.803 93.9986L243.429 93.3088L241.637 93.7529L242.216 94.6364ZM311.306 123.993L292.904 126.332L290.51 122.514L288.975 122.779L290.744 134.878L306.136 138.756L301.466 149.107L292.12 147.95L256.101 160.394L239.841 197.578L256.591 213.112L279.691 206.772L282.07 209.007L268.316 237.036L267.084 229.623L260.207 240.962L245.836 252.031L245.925 239.176L234.554 254.884L230.85 238.996L223.469 213.221L208.193 200.437L172.846 179.371L174.698 151.521L177.343 119.207L177.782 172.318L226.002 193.563L245.043 155.093L222.302 154.021L263.734 139.026L263.113 137.24L218.243 143.131L228.116 134.561L245.398 132.331L268.232 132.506L268.582 130.81L243.984 124.744L259.413 118.584L287.674 116.855L287.846 116.113L245.132 77.0762L242.132 77.4352L233.318 77.61L233.584 76.6321L240.373 72.9708L233.584 70.3819L226.357 68.2418L226.254 67.2544H246.251L259.329 76.8022L260.458 82.2776L278.314 97.6835L312.267 122.514L311.306 123.993ZM157.743 81.3706L141.03 74.1991L128.862 86.52L127.784 109.286L121.313 83.6335L136.56 66.2434L162.054 75.1345L157.743 81.3706ZM121.089 226.047L139.378 142.337L143.47 219.353L121.089 226.047ZM93.463 198.523L77.3056 198.967L120.216 127.555L93.463 198.523ZM67.097 150.213L57.9149 146.726L104.068 104.146L67.097 150.213ZM295.526 105.79L280.129 92.1608L269.375 81.6304L263.599 68.9032L247.161 58.0657L238.959 51.9052L230.323 27.7169L188.098 1.83252L194.089 16.8274L176.284 7.8985L127.271 5.66864L140.582 18.3439L125.185 17.1439L87.8548 37.1654L81.3834 56.6484L110.913 43.6283L66.5744 73.3487L56.4638 96.7812L94.4148 73.8873L57.0004 104.685H56.991C55.1667 110.179 52.7126 119.127 51.6161 130.083C50.753 138.695 51.1029 146.466 51.7234 152.343L62.5293 155.901L53.6271 166.993L56.8044 176.99C57.8309 179.768 59.0673 182.791 60.5463 185.98L65.7486 195.873L72.8125 206.337C72.8405 206.37 72.8638 206.403 72.8872 206.432L90.2856 206.942L85.9185 218.531C89.1519 221.044 92.9031 223.694 97.1582 226.269C105.281 231.178 113.124 234.291 118.84 236.171H118.845L143.983 228.976L144.548 239.62V239.629C147.8 239.795 160.141 240.088 175.393 236.285C186.894 233.412 196.142 228.858 201.264 225.981L194.173 209.555L197.728 207.58L213.307 228.102L232.175 270.446L272.879 242.974L289.638 208.038L286.302 201.774L286.895 197.035L285.499 189.122L284.02 186.887L282.425 186.642L281.622 190.582L278.897 195.916L276.131 197.555L265.67 199.275L262.036 198.235L260.384 194.626L269.025 164.82L287.184 157.143L289.451 159.973L291.238 170.622L292.465 170.716L295.759 167.164L300.164 157.29L302.389 157.45L303.999 156.137C303.999 156.137 304.694 155.717 307.634 148.158C310.573 140.599 311.511 138.279 311.511 138.279L314.1 134.415L317.119 123.133L295.526 105.79Z" fill="#2B2A29"/>
<path d="M206.551 238.137C189.792 248.733 170.005 254.875 148.785 254.875C88.4434 254.875 39.528 205.341 39.528 144.242C39.528 126.214 43.8111 109.207 51.3696 94.1691L62.3014 68.8659L73.1258 61.5905L81.6641 32.6495L121.318 12.2217L106.397 0L67.5456 16.8326L68.2502 52.4962L63.4818 38.4179L35.8607 68.3367L15.7141 70.5099L0 110.232L25.4002 134.93L12.2009 128.401L13.5819 169.328L0.830498 185.286L17.4545 224.607L52.676 223.893L38.7721 228.721L68.3201 256.689L70.4664 277.089L109.691 293H109.696L134.088 267.281L127.64 280.646L168.059 279.248L183.82 292.154L222.653 275.326V275.308L206.551 238.137Z" fill="#EB6320"/>
</g>
</svg>
