<svg width="651" height="665" viewBox="0 0 651 665" fill="none" xmlns="http://www.w3.org/2000/svg">
<g opacity="0.1">
<path d="M341.826 607.463L289.241 546.607L265.126 558.378L286.737 602.337C269.935 610.121 245.763 619.588 216.782 625.93C181.199 633.727 150.781 634.891 135.814 634.891C134.79 634.891 133.808 634.891 132.883 634.878L131.019 603.83L46.566 625.056C30.8591 620.398 8.09537 612.399 -15.3512 599.957C-24.9405 594.856 -34.4585 589.211 -43.7205 583.123L-28.4119 547.417L-89.1626 545.847L-108.184 521.115L-123.835 494.978C-127.704 487.612 -131.446 479.701 -134.775 471.803L-142.913 449.286L-110.831 414.162L-150.312 402.72C-152.147 384.683 -152.076 366.824 -150.098 349.559C-147.011 322.422 -140.281 299.931 -134.889 285.261L-22.6926 204.128L-32.4667 191.699L-125.328 240.91L-106.164 201.888L26.9181 123.502L18.7801 110.186L-53.5943 138.235L-41.0885 105.149L67.5513 53.9503L136.212 58.6588L94.754 23.978L219.371 28.965L292.215 61.051L275.142 23.535L379.315 79.6445L405.507 144.082L432.582 161.954L481.068 190.053L498.312 223.443L532.258 252.656L579.536 289.425L641.268 333.017L633.912 357.166L626.329 367.14L625.988 367.862C625.988 367.862 623.114 374.102 614.122 394.429C608.303 407.555 605.628 412.01 604.803 413.251L603.338 414.314L593.962 413.732L578.653 443.843L578.241 444.235L574.684 425.617L562.32 412.086L497.273 436.236L468.875 522.318L476.928 537.747L493.617 541.949L528.972 536.848L540.908 530.608L548.136 518.166L550.185 528.355L548.193 542.329L557.597 557.821L509.423 646.055L395.619 713.543L341.826 607.463Z" fill="#FEFEFE"/>
<path d="M313.843 638.279C262.739 666.669 202.401 683.123 137.695 683.123C-46.307 683.123 -195.466 550.413 -195.466 386.717C-195.466 338.417 -182.406 292.851 -159.357 252.563L-126.023 184.771L-93.0153 165.279L-66.9793 87.7411L53.9386 33.0113L8.43964 0.26709L-110.031 45.3647L-107.883 140.914L-122.423 103.195L-206.649 183.354L-268.082 189.176L-316 295.598L-238.547 361.77L-278.796 344.277L-274.584 453.927L-313.468 496.683L-262.776 602.029L-155.374 600.117L-197.771 613.053L-107.669 687.984L-101.125 742.638L18.4841 785.267H18.4984L92.8788 716.361L73.2166 752.168L196.468 748.422L244.528 783.001L362.942 737.916V737.866L313.843 638.279Z" fill="#EB6320"/>
<path d="M422.594 253.816L431.615 261.448L449.797 267.625L466.358 274.599L467.837 276.966L466.656 278.674L444.633 280.649L433.692 279.067L384.01 246.183L381.648 243.297L406.489 241.196L437.234 244.082L444.177 248.424L446.994 255.79L446.098 256.714L433.535 252.107L426.294 250.259L420.83 251.449L422.594 253.816ZM633.273 332.467L577.16 338.733L569.861 328.506L565.181 329.215L570.573 361.63L617.509 372.021L603.267 399.753L574.77 396.652L464.935 429.991L415.353 529.616L466.429 571.233L536.868 554.247L544.124 560.234L502.182 635.329L498.426 615.47L477.455 645.847L433.635 675.503L433.905 641.063L399.233 683.148L387.937 640.582L365.429 571.524L318.849 537.274L211.063 480.835L216.711 406.221L224.778 319.646L226.115 461.938L373.154 518.858L431.216 415.79L361.872 412.917L488.211 372.743L486.319 367.958L349.494 383.742L379.599 360.782L432.297 354.807L501.926 355.276L502.993 350.732L427.987 334.48L475.036 317.975L561.211 313.342L561.738 311.355L431.487 206.769L422.338 207.731L395.463 208.199L396.274 205.579L416.975 195.77L396.274 188.833L374.236 183.1L373.923 180.454H434.901L474.78 206.035L478.223 220.704L532.671 261.979L636.203 328.506L633.273 332.467ZM165.009 218.274L114.047 199.06L76.9418 232.07L73.6553 293.066L53.922 224.337L100.417 177.746L178.155 201.567L165.009 218.274ZM53.2391 605.889L109.01 381.615L121.488 587.953L53.2391 605.889ZM-31.0009 532.148L-80.2701 533.337L50.5786 342.011L-31.0009 532.148ZM-111.399 402.715L-139.399 393.374L1.33781 279.295L-111.399 402.715ZM585.156 283.699L538.206 247.183L505.412 218.97L487.798 184.872L437.675 155.836L412.664 139.331L386.329 74.5261L257.572 5.17725L275.84 45.3512L221.548 21.4291L72.0903 15.4549L112.681 49.4142L65.7307 46.1993L-48.1021 99.8405L-67.8354 152.039L22.2093 117.156L-112.993 196.782L-143.824 259.562L-28.0985 198.225L-142.187 280.737H-142.216C-147.779 295.458 -155.262 319.431 -158.606 348.783C-161.238 371.857 -160.171 392.678 -158.278 408.423L-125.328 417.954L-152.474 447.673L-142.785 474.456C-139.655 481.899 -135.885 489.999 -131.375 498.543L-115.511 525.047L-93.971 553.083C-93.8856 553.171 -93.8145 553.26 -93.7433 553.336L-40.6897 554.703L-54.0065 585.751C-44.1469 592.485 -32.7082 599.585 -19.7328 606.483C5.03691 619.634 28.953 627.975 46.3815 633.013H46.3957L123.053 613.736L124.774 642.253V642.278C134.69 642.721 172.322 643.506 218.831 633.317C253.901 625.621 282.1 613.42 297.721 605.711L276.096 561.702L286.937 556.412L334.442 611.394L391.977 724.841L516.096 651.239L567.201 557.639L557.028 540.856L558.835 528.161L554.581 506.96L550.071 500.973L545.205 500.315L542.758 510.871L534.45 525.161L526.013 529.553L494.115 534.16L483.032 531.376L477.996 521.706L504.345 441.851L559.717 421.283L566.632 428.865L572.081 457.394L575.823 457.647L585.867 448.129L599.298 421.676L606.084 422.106L610.993 418.587C610.993 418.587 613.112 417.461 622.076 397.209C631.039 376.958 633.898 370.743 633.898 370.743L641.795 360.389L651 330.164L585.156 283.699Z" fill="#2B2A29"/>
<path d="M313.843 638.279C262.739 666.669 202.401 683.123 137.695 683.123C-46.307 683.123 -195.466 550.413 -195.466 386.717C-195.466 338.417 -182.406 292.851 -159.357 252.563L-126.023 184.771L-93.0153 165.279L-66.9793 87.7411L53.9386 33.0113L8.43964 0.26709L-110.031 45.3647L-107.883 140.914L-122.423 103.195L-206.649 183.354L-268.082 189.176L-316 295.598L-238.547 361.77L-278.796 344.277L-274.584 453.927L-313.468 496.683L-262.776 602.029L-155.374 600.117L-197.771 613.053L-107.669 687.984L-101.125 742.638L18.4841 785.267H18.4984L92.8788 716.361L73.2166 752.168L196.468 748.422L244.528 783.001L362.942 737.916V737.866L313.843 638.279Z" fill="#EB6320"/>
</g>
</svg>
