<svg width="20" height="20" viewBox="0 0 20 20" fill="none" xmlns="http://www.w3.org/2000/svg">
<rect width="20" height="20" rx="5" fill="#EB6320"/>
<path d="M13.7114 6.21261C13.8874 6.04497 14.1218 5.95229 14.3649 5.95413C14.608 5.95597 14.8409 6.05218 15.0144 6.22246C15.1879 6.39275 15.2885 6.62379 15.295 6.86682C15.3014 7.10986 15.2131 7.34589 15.0489 7.52511L10.0614 13.7626C9.97559 13.855 9.87209 13.9291 9.75702 13.9806C9.64195 14.032 9.51769 14.0597 9.39167 14.0621C9.26564 14.0644 9.14044 14.0413 9.02355 13.9941C8.90666 13.947 8.80048 13.8767 8.71135 13.7876L5.40385 10.4801C5.31175 10.3943 5.23787 10.2908 5.18663 10.1758C5.13539 10.0608 5.10784 9.93664 5.10561 9.81076C5.10339 9.68488 5.12655 9.55984 5.1737 9.44311C5.22085 9.32637 5.29103 9.22033 5.38006 9.13131C5.46908 9.04228 5.57512 8.9721 5.69186 8.92495C5.80859 8.8778 5.93363 8.85464 6.05951 8.85687C6.18539 8.85909 6.30953 8.88664 6.42453 8.93788C6.53953 8.98912 6.64303 9.063 6.72885 9.15511L9.34635 11.7714L13.6876 6.24011C13.6954 6.23048 13.7038 6.2213 13.7126 6.21261H13.7114Z" fill="#F9F9F9"/>
</svg>
