<svg width="78" height="75" viewBox="0 0 78 75" fill="none" xmlns="http://www.w3.org/2000/svg">
<path d="M69.6418 66.9644H10.5723V33.5527H69.6418V66.9644Z" fill="white"/>
<path d="M71.3337 0.845947C74.2942 0.845947 76.6909 3.24257 76.6909 6.20309C76.6909 9.16362 74.2942 11.5602 71.3337 11.5602C68.3732 11.5602 65.9766 9.16362 65.9766 6.20309C65.9766 3.24257 68.3732 0.845947 71.3337 0.845947Z" fill="white"/>
<path d="M8.8799 9.72729C10.8536 9.72729 12.4043 11.278 12.4043 13.2517C12.4043 15.2254 10.8536 16.7762 8.8799 16.7762C6.90622 16.7762 5.35547 15.2254 5.35547 13.2517C5.35547 11.278 6.90622 9.72729 8.8799 9.72729Z" fill="white"/>
<path d="M58.2227 54.8401C60.3374 54.8401 62.1701 56.5318 62.1701 58.7874C62.1701 60.9021 60.4784 62.7348 58.2227 62.7348C56.1081 62.7348 54.2754 61.0431 54.2754 58.7874C54.2754 57.6596 54.6983 56.8138 55.4032 56.1089C56.2491 55.263 57.2359 54.8401 58.2227 54.8401Z" fill="white"/>
<path d="M46.6629 43.28C48.7776 43.28 50.6104 44.9718 50.6104 47.2274C50.6104 48.3552 50.1874 49.2011 49.4825 49.906C48.7776 50.6109 47.7908 51.0338 46.8039 51.0338C45.8171 51.0338 44.8302 50.6109 44.1253 49.906C43.4205 49.2011 42.9975 48.2142 42.9975 47.2274C42.7156 44.9718 44.4073 43.28 46.6629 43.28Z" fill="white"/>
<path d="M36.2298 55.9679C36.9347 56.6728 37.3576 57.6596 37.3576 58.6465C37.3576 60.7611 35.6659 62.5938 33.4102 62.5938C31.2956 62.5938 29.4629 60.9021 29.4629 58.6465C29.4629 57.5187 29.8858 56.6728 30.5907 55.9679C31.2956 55.263 32.2824 54.8401 33.2692 54.8401C34.538 54.8401 35.5249 55.263 36.2298 55.9679Z" fill="white"/>
<path d="M74.4348 19.4548C75.1396 19.4548 75.7036 20.0187 75.7036 20.7236C75.7036 21.4285 75.1396 21.9924 74.4348 21.9924C73.7299 21.9924 73.166 21.4285 73.166 20.7236C73.166 20.0187 73.7299 19.4548 74.4348 19.4548Z" fill="#EB6320"/>
<path d="M74.4348 40.6016C75.1396 40.6016 75.7036 41.1655 75.7036 41.8704C75.7036 42.5752 75.1396 43.1392 74.4348 43.1392C73.7299 43.1392 73.166 42.5752 73.166 41.8704C73.166 41.1655 73.7299 40.6016 74.4348 40.6016Z" fill="#EB6320"/>
<path d="M72.3212 29.1824V33.5527H69.6427H10.5731H7.89453V29.1824H72.3212Z" fill="white"/>
<path d="M66.2592 21.1467C69.6427 21.1467 72.3212 23.8253 72.3212 27.2088V29.1824H7.89453V27.2088C7.89453 23.8253 10.5732 21.1467 13.9566 21.1467H66.2592Z" fill="white"/>
<path d="M69.6418 66.9644V69.079C69.6418 71.8986 67.3862 74.0132 64.7076 74.0132H15.5065C12.6869 74.0132 10.5723 71.7576 10.5723 69.079V66.9644H69.6418Z" fill="white"/>
<path d="M58.6457 0.141113C59.3506 0.141113 59.9145 0.705025 59.9145 1.40991C59.9145 2.1148 59.3506 2.67871 58.6457 2.67871C57.9408 2.67871 57.377 2.1148 57.377 1.40991C57.377 0.705025 57.9408 0.141113 58.6457 0.141113Z" fill="#EB6320"/>
<path d="M42.716 7.18994C43.4209 7.18994 43.9848 7.75385 43.9848 8.45874C43.9848 9.16363 43.4209 9.72754 42.716 9.72754C42.0111 9.72754 41.4473 9.16363 41.4473 8.45874C41.4473 7.75385 42.0111 7.18994 42.716 7.18994Z" fill="#EB6320"/>
<path d="M21.8513 43.28C23.966 43.28 25.7987 44.9718 25.7987 47.2274C25.7987 48.3552 25.3758 49.2011 24.6709 49.906C23.966 50.6109 22.9791 51.0338 21.9923 51.0338C19.8776 51.0338 18.0449 49.3421 18.0449 47.0864C18.0449 44.8308 19.5957 43.28 21.8513 43.28Z" fill="white"/>
<path d="M18.0441 1.83276C18.749 1.83276 19.313 2.39668 19.313 3.10156C19.313 3.80645 18.749 4.37036 18.0441 4.37036C17.3392 4.37036 16.7754 3.80645 16.7754 3.10156C16.7754 2.39668 17.3392 1.83276 18.0441 1.83276Z" fill="#EB6320"/>
<path d="M6.05805 58.6503C6.05964 57.9495 5.49287 57.3802 4.79213 57.3786C4.0914 57.377 3.52205 57.9438 3.52046 58.6445C3.51887 59.3452 4.08564 59.9146 4.78637 59.9162C5.48711 59.9178 6.05646 59.351 6.05805 58.6503Z" fill="#EB6320"/>
<path d="M2.54047 34.8273C2.54206 34.1265 1.97529 33.5572 1.27455 33.5556C0.573818 33.5541 0.00446881 34.1208 0.00287888 34.8215C0.00128896 35.5222 0.56806 36.0916 1.2688 36.0932C1.96953 36.0948 2.53888 35.528 2.54047 34.8273Z" fill="#EB6320"/>
<path d="M72.3214 34.3983H69.6428C69.2199 34.3983 68.7969 33.9753 68.7969 33.5524C68.7969 33.1295 69.2199 32.7065 69.6428 32.7065H71.4755V27.2084C71.4755 24.3889 69.2198 22.1332 66.4003 22.1332H13.9568C11.1372 22.1332 8.88152 24.3889 8.88152 27.2084V32.7065H10.5733C10.9962 32.7065 11.4191 33.1295 11.4191 33.5524C11.4191 33.9753 10.9962 34.3983 10.5733 34.3983H7.89466C7.47173 34.3983 7.04883 33.9753 7.04883 33.5524V27.2084C7.04883 23.402 10.1504 20.3005 13.9568 20.3005H66.2594C70.0657 20.3005 73.1673 23.402 73.1673 27.2084V33.5524C73.1673 33.9753 72.7443 34.3983 72.3214 34.3983Z" fill="#EB6320"/>
<path d="M21.5688 26.9267C21.1459 26.9267 20.723 26.5038 20.723 26.0809C20.723 25.6579 21.1459 25.235 21.5688 25.235C23.8244 25.235 25.5161 23.4023 25.5161 21.2876C25.5161 19.032 23.6834 17.3403 21.5688 17.3403C19.3131 17.3403 17.6214 19.173 17.6214 21.2876C17.6214 21.7106 17.1985 22.1335 16.7756 22.1335C16.3527 22.1335 15.9297 21.7106 15.9297 21.2876C15.9297 18.1861 18.4673 15.5076 21.7098 15.5076C24.9523 15.5076 27.4899 18.0452 27.4899 21.2876C27.3489 24.3891 24.8113 26.9267 21.5688 26.9267Z" fill="#EB6320"/>
<path d="M31.2973 26.9267C30.8744 26.9267 30.4514 26.5038 30.4514 26.0809C30.4514 25.6579 30.8744 25.235 31.2973 25.235C33.5529 25.235 35.2447 23.4023 35.2447 21.2876C35.2447 19.032 33.412 17.3403 31.2973 17.3403C29.0417 17.3403 27.3499 19.173 27.3499 21.2876C27.3499 21.7106 26.927 22.1335 26.504 22.1335C26.0811 22.1335 25.6582 21.7106 25.6582 21.2876C25.6582 18.1861 28.1958 15.5076 31.4382 15.5076C34.6807 15.5076 37.2184 18.0452 37.2184 21.2876C37.0774 24.3891 34.3988 26.9267 31.2973 26.9267Z" fill="#EB6320"/>
<path d="M41.0239 26.9267C40.6009 26.9267 40.178 26.5038 40.178 26.0809C40.178 25.6579 40.6009 25.235 41.0239 25.235C43.2795 25.235 44.9713 23.4023 44.9713 21.2876C44.9713 19.032 43.1385 17.3403 41.0239 17.3403C38.9092 17.3403 37.0765 19.173 37.0765 21.2876C37.0765 21.7106 36.6536 22.1335 36.2307 22.1335C35.8077 22.1335 35.3848 21.7106 35.3848 21.2876C35.3848 18.1861 37.9224 15.5076 41.1649 15.5076C44.4074 15.5076 46.9449 18.0452 46.9449 21.2876C46.663 24.3891 44.1254 26.9267 41.0239 26.9267Z" fill="#EB6320"/>
<path d="M50.6098 26.9267C50.1869 26.9267 49.7639 26.5038 49.7639 26.0809C49.7639 25.6579 50.1869 25.235 50.6098 25.235C52.8654 25.235 54.5572 23.4023 54.5572 21.2876C54.5572 19.032 52.7245 17.3403 50.6098 17.3403C48.4951 17.3403 46.6624 19.173 46.6624 21.2876C46.6624 21.7106 46.2395 22.1335 45.8165 22.1335C45.3936 22.1335 44.9707 21.7106 44.9707 21.2876C44.9707 18.1861 47.5083 15.5076 50.7507 15.5076C53.9932 15.5076 56.5308 18.0452 56.5308 21.2876C56.3898 24.3891 53.8523 26.9267 50.6098 26.9267Z" fill="#EB6320"/>
<path d="M60.3383 26.9267C59.9154 26.9267 59.4925 26.5038 59.4925 26.0809C59.4925 25.6579 59.9154 25.235 60.3383 25.235C62.594 25.235 64.2857 23.4023 64.2857 21.2876C64.2857 19.032 62.453 17.3403 60.3383 17.3403C58.0827 17.3403 56.391 19.173 56.391 21.2876C56.391 21.7106 55.9681 22.1335 55.5451 22.1335C55.1222 22.1335 54.6992 21.7106 54.6992 21.2876C54.6992 18.1861 57.2369 15.5076 60.4793 15.5076C63.7218 15.5076 66.2594 18.0452 66.2594 21.2876C66.1184 24.3891 63.5808 26.9267 60.3383 26.9267Z" fill="#EB6320"/>
<path d="M72.3214 30.0284H7.89466C7.47173 30.0284 7.04883 29.6055 7.04883 29.1825C7.04883 28.7596 7.47173 28.3367 7.89466 28.3367H72.1804C72.6033 28.3367 73.0262 28.7596 73.0262 29.1825C73.1672 29.6055 72.7443 30.0284 72.3214 30.0284Z" fill="#EB6320"/>
<path d="M8.88198 17.6222C6.48537 17.6222 4.51172 15.6485 4.51172 13.2519C4.51172 10.8553 6.48537 8.88159 8.88198 8.88159C11.2786 8.88159 13.2523 10.8553 13.2523 13.2519C13.2523 15.6485 11.2786 17.6222 8.88198 17.6222ZM8.88198 10.5733C7.47221 10.5733 6.20347 11.7011 6.20347 13.2519C6.20347 14.8027 7.33123 15.9305 8.88198 15.9305C10.4327 15.9305 11.5606 14.8027 11.5606 13.2519C11.5606 11.7011 10.2918 10.5733 8.88198 10.5733Z" fill="#EB6320"/>
<path d="M64.5671 75H15.507C12.2645 75 9.58594 72.3214 9.58594 69.079V33.5526C9.58594 33.1297 10.0089 32.7068 10.4319 32.7068H69.5014C69.9243 32.7068 70.3473 33.1297 70.3473 33.5526V69.079C70.4882 72.3214 67.8096 75 64.5671 75ZM11.4186 34.3985V69.079C11.4186 71.3346 13.2514 73.1673 15.507 73.1673H64.5671C66.8228 73.1673 68.6555 71.3346 68.6555 69.079V34.3985H11.4186Z" fill="#EB6320"/>
<path d="M71.3338 12.406C67.9504 12.406 65.1309 9.58647 65.1309 6.20301C65.1309 2.81955 67.9504 0 71.3338 0C74.7173 0 77.5369 2.81955 77.5369 6.20301C77.5369 9.58647 74.7173 12.406 71.3338 12.406ZM71.3338 1.8327C68.9372 1.8327 66.9635 3.80639 66.9635 6.20301C66.9635 8.59963 68.9372 10.5733 71.3338 10.5733C73.7304 10.5733 75.7042 8.59963 75.7042 6.20301C75.7042 3.80639 73.7304 1.8327 71.3338 1.8327Z" fill="#EB6320"/>
<path d="M21.8519 51.8797C19.1733 51.8797 17.0586 49.765 17.0586 47.0864C17.0586 44.4079 19.1733 42.2932 21.8519 42.2932C24.5304 42.2932 26.6451 44.4079 26.6451 47.0864C26.6451 48.3552 26.0812 49.4831 25.2354 50.4699C24.2485 51.3158 23.1207 51.8797 21.8519 51.8797ZM21.8519 44.1259C20.1601 44.1259 18.8914 45.5357 18.8914 47.0864C18.8914 48.6372 20.3011 50.047 21.8519 50.047C22.6977 50.047 23.4026 49.765 23.9665 49.2011C24.5304 48.6372 24.8124 47.9323 24.8124 47.0864C24.8124 45.3947 23.4026 44.1259 21.8519 44.1259Z" fill="#EB6320"/>
<path d="M33.4105 63.4397C30.7319 63.4397 28.6172 61.3251 28.6172 58.6465C28.6172 57.3777 29.1811 56.2499 30.027 55.263C30.8728 54.4172 32.1417 53.8533 33.4105 53.8533C34.6793 53.8533 35.807 54.4172 36.7939 55.263C37.6397 56.1089 38.2036 57.3777 38.2036 58.6465C38.2036 61.3251 36.089 63.4397 33.4105 63.4397ZM33.4105 55.686C32.5646 55.686 31.8597 55.9679 31.2958 56.5318C30.7319 57.0958 30.4499 57.8006 30.4499 58.6465C30.4499 60.3382 31.8597 61.607 33.4105 61.607C35.1022 61.607 36.3709 60.1973 36.3709 58.6465C36.3709 57.8006 36.089 57.0958 35.5251 56.5318C34.9612 56.1089 34.2563 55.686 33.4105 55.686Z" fill="#EB6320"/>
<path d="M30.7323 56.8139C30.4503 56.8139 30.3094 56.6729 30.1684 56.5319L23.9654 50.3289C23.6834 50.0469 23.6834 49.483 23.9654 49.0601C24.2473 48.7781 24.8113 48.7781 25.2342 49.0601L31.4372 55.2631C31.7191 55.5451 31.7191 56.109 31.4372 56.5319C31.1552 56.8139 30.8733 56.8139 30.7323 56.8139Z" fill="#EB6320"/>
<path d="M46.6623 51.8797C45.3935 51.8797 44.2658 51.3158 43.2789 50.4699C42.4331 49.624 41.8691 48.3552 41.8691 47.0864C41.8691 44.4079 43.9838 42.2932 46.6623 42.2932C49.3409 42.2932 51.4556 44.4079 51.4556 47.0864C51.4556 48.3552 50.8917 49.4831 50.0458 50.4699C49.059 51.3158 47.9311 51.8797 46.6623 51.8797ZM46.6623 44.1259C44.9706 44.1259 43.7018 45.5357 43.7018 47.0864C43.7018 47.9323 43.9838 48.6372 44.5477 49.2011C45.1116 49.765 45.8165 50.047 46.6623 50.047C47.5082 50.047 48.2131 49.765 48.777 49.2011C49.3409 48.6372 49.6229 47.9323 49.6229 47.0864C49.6229 45.3947 48.2131 44.1259 46.6623 44.1259Z" fill="#EB6320"/>
<path d="M58.2229 63.4397C55.5443 63.4397 53.4297 61.3251 53.4297 58.6465C53.4297 57.3777 53.9936 56.2499 54.8395 55.263C55.6853 54.4172 56.9541 53.8533 58.2229 53.8533C60.9014 53.8533 63.0161 55.9679 63.0161 58.6465C63.0161 61.3251 60.9014 63.4397 58.2229 63.4397ZM58.2229 55.686C57.377 55.686 56.6721 55.9679 56.1082 56.5318C55.5443 57.0958 55.2624 57.8006 55.2624 58.6465C55.2624 60.3382 56.6721 61.607 58.2229 61.607C59.9146 61.607 61.1834 60.1973 61.1834 58.6465C61.1834 57.0958 59.9146 55.686 58.2229 55.686Z" fill="#EB6320"/>
<path d="M55.5449 56.8139C55.2629 56.8139 55.1219 56.6729 54.9809 56.5319L48.7779 50.3289C48.4959 50.0469 48.4959 49.483 48.7779 49.0601C49.0598 48.7781 49.6238 48.7781 50.0467 49.0601L56.2497 55.2631C56.5317 55.5451 56.5317 56.109 56.2497 56.5319C55.9678 56.8139 55.6858 56.8139 55.5449 56.8139Z" fill="#EB6320"/>
<path d="M36.2295 56.814C35.9476 56.814 35.6656 56.6731 35.5246 56.5321C35.2427 56.1091 35.2427 55.5452 35.6656 55.2633L43.4193 49.0603C43.8423 48.7783 44.4062 48.7783 44.6882 49.2013C44.9701 49.6242 44.9701 50.1881 44.5471 50.47L36.7934 56.6731C36.5114 56.814 36.3705 56.814 36.2295 56.814Z" fill="#EB6320"/>
<path d="M69.642 67.951H10.5724C10.1495 67.951 9.72656 67.5281 9.72656 67.1052C9.72656 66.6822 10.1495 66.2593 10.5724 66.2593H69.642C70.0649 66.2593 70.4878 66.6822 70.4878 67.1052C70.4878 67.5281 70.0649 67.951 69.642 67.951Z" fill="#EB6320"/>
<path d="M69.6418 66.9644H10.5723V33.5527H69.6418V66.9644Z" fill="white"/>
<path d="M71.3337 0.845947C74.2942 0.845947 76.6909 3.24257 76.6909 6.20309C76.6909 9.16362 74.2942 11.5602 71.3337 11.5602C68.3732 11.5602 65.9766 9.16362 65.9766 6.20309C65.9766 3.24257 68.3732 0.845947 71.3337 0.845947Z" fill="white"/>
<path d="M8.8799 9.72729C10.8536 9.72729 12.4043 11.278 12.4043 13.2517C12.4043 15.2254 10.8536 16.7762 8.8799 16.7762C6.90622 16.7762 5.35547 15.2254 5.35547 13.2517C5.35547 11.278 6.90622 9.72729 8.8799 9.72729Z" fill="white"/>
<path d="M58.2227 54.8401C60.3374 54.8401 62.1701 56.5318 62.1701 58.7874C62.1701 60.9021 60.4784 62.7348 58.2227 62.7348C56.1081 62.7348 54.2754 61.0431 54.2754 58.7874C54.2754 57.6596 54.6983 56.8138 55.4032 56.1089C56.2491 55.263 57.2359 54.8401 58.2227 54.8401Z" fill="white"/>
<path d="M46.6629 43.28C48.7776 43.28 50.6104 44.9718 50.6104 47.2274C50.6104 48.3552 50.1874 49.2011 49.4825 49.906C48.7776 50.6109 47.7908 51.0338 46.8039 51.0338C45.8171 51.0338 44.8302 50.6109 44.1253 49.906C43.4205 49.2011 42.9975 48.2142 42.9975 47.2274C42.7156 44.9718 44.4073 43.28 46.6629 43.28Z" fill="white"/>
<path d="M36.2298 55.9679C36.9347 56.6728 37.3576 57.6596 37.3576 58.6465C37.3576 60.7611 35.6659 62.5938 33.4102 62.5938C31.2956 62.5938 29.4629 60.9021 29.4629 58.6465C29.4629 57.5187 29.8858 56.6728 30.5907 55.9679C31.2956 55.263 32.2824 54.8401 33.2692 54.8401C34.538 54.8401 35.5249 55.263 36.2298 55.9679Z" fill="white"/>
<path d="M74.4348 19.4548C75.1396 19.4548 75.7036 20.0187 75.7036 20.7236C75.7036 21.4285 75.1396 21.9924 74.4348 21.9924C73.7299 21.9924 73.166 21.4285 73.166 20.7236C73.166 20.0187 73.7299 19.4548 74.4348 19.4548Z" fill="#EB6320"/>
<path d="M74.4348 40.6016C75.1396 40.6016 75.7036 41.1655 75.7036 41.8704C75.7036 42.5752 75.1396 43.1392 74.4348 43.1392C73.7299 43.1392 73.166 42.5752 73.166 41.8704C73.166 41.1655 73.7299 40.6016 74.4348 40.6016Z" fill="#EB6320"/>
<path d="M72.3212 29.1824V33.5527H69.6427H10.5731H7.89453V29.1824H72.3212Z" fill="white"/>
<path d="M66.2592 21.1467C69.6427 21.1467 72.3212 23.8253 72.3212 27.2088V29.1824H7.89453V27.2088C7.89453 23.8253 10.5732 21.1467 13.9566 21.1467H66.2592Z" fill="white"/>
<path d="M69.6418 66.9644V69.079C69.6418 71.8986 67.3862 74.0132 64.7076 74.0132H15.5065C12.6869 74.0132 10.5723 71.7576 10.5723 69.079V66.9644H69.6418Z" fill="white"/>
<path d="M58.6457 0.141113C59.3506 0.141113 59.9145 0.705025 59.9145 1.40991C59.9145 2.1148 59.3506 2.67871 58.6457 2.67871C57.9408 2.67871 57.377 2.1148 57.377 1.40991C57.377 0.705025 57.9408 0.141113 58.6457 0.141113Z" fill="#EB6320"/>
<path d="M42.716 7.18994C43.4209 7.18994 43.9848 7.75385 43.9848 8.45874C43.9848 9.16363 43.4209 9.72754 42.716 9.72754C42.0111 9.72754 41.4473 9.16363 41.4473 8.45874C41.4473 7.75385 42.0111 7.18994 42.716 7.18994Z" fill="#EB6320"/>
<path d="M21.8513 43.28C23.966 43.28 25.7987 44.9718 25.7987 47.2274C25.7987 48.3552 25.3758 49.2011 24.6709 49.906C23.966 50.6109 22.9791 51.0338 21.9923 51.0338C19.8776 51.0338 18.0449 49.3421 18.0449 47.0864C18.0449 44.8308 19.5957 43.28 21.8513 43.28Z" fill="white"/>
<path d="M18.0441 1.83276C18.749 1.83276 19.313 2.39668 19.313 3.10156C19.313 3.80645 18.749 4.37036 18.0441 4.37036C17.3392 4.37036 16.7754 3.80645 16.7754 3.10156C16.7754 2.39668 17.3392 1.83276 18.0441 1.83276Z" fill="#EB6320"/>
<path d="M6.05805 58.6503C6.05964 57.9495 5.49287 57.3802 4.79213 57.3786C4.0914 57.377 3.52205 57.9438 3.52046 58.6445C3.51887 59.3452 4.08564 59.9146 4.78637 59.9162C5.48711 59.9178 6.05646 59.351 6.05805 58.6503Z" fill="#EB6320"/>
<path d="M2.54047 34.8273C2.54206 34.1265 1.97529 33.5572 1.27455 33.5556C0.573818 33.5541 0.00446881 34.1208 0.00287888 34.8215C0.00128896 35.5222 0.56806 36.0916 1.2688 36.0932C1.96953 36.0948 2.53888 35.528 2.54047 34.8273Z" fill="#EB6320"/>
<path d="M72.3214 34.3983H69.6428C69.2199 34.3983 68.7969 33.9753 68.7969 33.5524C68.7969 33.1295 69.2199 32.7065 69.6428 32.7065H71.4755V27.2084C71.4755 24.3889 69.2198 22.1332 66.4003 22.1332H13.9568C11.1372 22.1332 8.88152 24.3889 8.88152 27.2084V32.7065H10.5733C10.9962 32.7065 11.4191 33.1295 11.4191 33.5524C11.4191 33.9753 10.9962 34.3983 10.5733 34.3983H7.89466C7.47173 34.3983 7.04883 33.9753 7.04883 33.5524V27.2084C7.04883 23.402 10.1504 20.3005 13.9568 20.3005H66.2594C70.0657 20.3005 73.1673 23.402 73.1673 27.2084V33.5524C73.1673 33.9753 72.7443 34.3983 72.3214 34.3983Z" fill="#EB6320"/>
<path d="M21.5688 26.9267C21.1459 26.9267 20.723 26.5038 20.723 26.0809C20.723 25.6579 21.1459 25.235 21.5688 25.235C23.8244 25.235 25.5161 23.4023 25.5161 21.2876C25.5161 19.032 23.6834 17.3403 21.5688 17.3403C19.3131 17.3403 17.6214 19.173 17.6214 21.2876C17.6214 21.7106 17.1985 22.1335 16.7756 22.1335C16.3527 22.1335 15.9297 21.7106 15.9297 21.2876C15.9297 18.1861 18.4673 15.5076 21.7098 15.5076C24.9523 15.5076 27.4899 18.0452 27.4899 21.2876C27.3489 24.3891 24.8113 26.9267 21.5688 26.9267Z" fill="#EB6320"/>
<path d="M31.2973 26.9267C30.8744 26.9267 30.4514 26.5038 30.4514 26.0809C30.4514 25.6579 30.8744 25.235 31.2973 25.235C33.5529 25.235 35.2447 23.4023 35.2447 21.2876C35.2447 19.032 33.412 17.3403 31.2973 17.3403C29.0417 17.3403 27.3499 19.173 27.3499 21.2876C27.3499 21.7106 26.927 22.1335 26.504 22.1335C26.0811 22.1335 25.6582 21.7106 25.6582 21.2876C25.6582 18.1861 28.1958 15.5076 31.4382 15.5076C34.6807 15.5076 37.2184 18.0452 37.2184 21.2876C37.0774 24.3891 34.3988 26.9267 31.2973 26.9267Z" fill="#EB6320"/>
<path d="M41.0239 26.9267C40.6009 26.9267 40.178 26.5038 40.178 26.0809C40.178 25.6579 40.6009 25.235 41.0239 25.235C43.2795 25.235 44.9713 23.4023 44.9713 21.2876C44.9713 19.032 43.1385 17.3403 41.0239 17.3403C38.9092 17.3403 37.0765 19.173 37.0765 21.2876C37.0765 21.7106 36.6536 22.1335 36.2307 22.1335C35.8077 22.1335 35.3848 21.7106 35.3848 21.2876C35.3848 18.1861 37.9224 15.5076 41.1649 15.5076C44.4074 15.5076 46.9449 18.0452 46.9449 21.2876C46.663 24.3891 44.1254 26.9267 41.0239 26.9267Z" fill="#EB6320"/>
<path d="M50.6098 26.9267C50.1869 26.9267 49.7639 26.5038 49.7639 26.0809C49.7639 25.6579 50.1869 25.235 50.6098 25.235C52.8654 25.235 54.5572 23.4023 54.5572 21.2876C54.5572 19.032 52.7245 17.3403 50.6098 17.3403C48.4951 17.3403 46.6624 19.173 46.6624 21.2876C46.6624 21.7106 46.2395 22.1335 45.8165 22.1335C45.3936 22.1335 44.9707 21.7106 44.9707 21.2876C44.9707 18.1861 47.5083 15.5076 50.7507 15.5076C53.9932 15.5076 56.5308 18.0452 56.5308 21.2876C56.3898 24.3891 53.8523 26.9267 50.6098 26.9267Z" fill="#EB6320"/>
<path d="M60.3383 26.9267C59.9154 26.9267 59.4925 26.5038 59.4925 26.0809C59.4925 25.6579 59.9154 25.235 60.3383 25.235C62.594 25.235 64.2857 23.4023 64.2857 21.2876C64.2857 19.032 62.453 17.3403 60.3383 17.3403C58.0827 17.3403 56.391 19.173 56.391 21.2876C56.391 21.7106 55.9681 22.1335 55.5451 22.1335C55.1222 22.1335 54.6992 21.7106 54.6992 21.2876C54.6992 18.1861 57.2369 15.5076 60.4793 15.5076C63.7218 15.5076 66.2594 18.0452 66.2594 21.2876C66.1184 24.3891 63.5808 26.9267 60.3383 26.9267Z" fill="#EB6320"/>
<path d="M72.3214 30.0284H7.89466C7.47173 30.0284 7.04883 29.6055 7.04883 29.1825C7.04883 28.7596 7.47173 28.3367 7.89466 28.3367H72.1804C72.6033 28.3367 73.0262 28.7596 73.0262 29.1825C73.1672 29.6055 72.7443 30.0284 72.3214 30.0284Z" fill="#EB6320"/>
<path d="M8.88198 17.6222C6.48537 17.6222 4.51172 15.6485 4.51172 13.2519C4.51172 10.8553 6.48537 8.88159 8.88198 8.88159C11.2786 8.88159 13.2523 10.8553 13.2523 13.2519C13.2523 15.6485 11.2786 17.6222 8.88198 17.6222ZM8.88198 10.5733C7.47221 10.5733 6.20347 11.7011 6.20347 13.2519C6.20347 14.8027 7.33123 15.9305 8.88198 15.9305C10.4327 15.9305 11.5606 14.8027 11.5606 13.2519C11.5606 11.7011 10.2918 10.5733 8.88198 10.5733Z" fill="#EB6320"/>
<path d="M64.5671 75H15.507C12.2645 75 9.58594 72.3214 9.58594 69.079V33.5526C9.58594 33.1297 10.0089 32.7068 10.4319 32.7068H69.5014C69.9243 32.7068 70.3473 33.1297 70.3473 33.5526V69.079C70.4882 72.3214 67.8096 75 64.5671 75ZM11.4186 34.3985V69.079C11.4186 71.3346 13.2514 73.1673 15.507 73.1673H64.5671C66.8228 73.1673 68.6555 71.3346 68.6555 69.079V34.3985H11.4186Z" fill="#EB6320"/>
<path d="M71.3338 12.406C67.9504 12.406 65.1309 9.58647 65.1309 6.20301C65.1309 2.81955 67.9504 0 71.3338 0C74.7173 0 77.5369 2.81955 77.5369 6.20301C77.5369 9.58647 74.7173 12.406 71.3338 12.406ZM71.3338 1.8327C68.9372 1.8327 66.9635 3.80639 66.9635 6.20301C66.9635 8.59963 68.9372 10.5733 71.3338 10.5733C73.7304 10.5733 75.7042 8.59963 75.7042 6.20301C75.7042 3.80639 73.7304 1.8327 71.3338 1.8327Z" fill="#EB6320"/>
<path d="M21.8519 51.8797C19.1733 51.8797 17.0586 49.765 17.0586 47.0864C17.0586 44.4079 19.1733 42.2932 21.8519 42.2932C24.5304 42.2932 26.6451 44.4079 26.6451 47.0864C26.6451 48.3552 26.0812 49.4831 25.2354 50.4699C24.2485 51.3158 23.1207 51.8797 21.8519 51.8797ZM21.8519 44.1259C20.1601 44.1259 18.8914 45.5357 18.8914 47.0864C18.8914 48.6372 20.3011 50.047 21.8519 50.047C22.6977 50.047 23.4026 49.765 23.9665 49.2011C24.5304 48.6372 24.8124 47.9323 24.8124 47.0864C24.8124 45.3947 23.4026 44.1259 21.8519 44.1259Z" fill="#EB6320"/>
<path d="M33.4105 63.4397C30.7319 63.4397 28.6172 61.3251 28.6172 58.6465C28.6172 57.3777 29.1811 56.2499 30.027 55.263C30.8728 54.4172 32.1417 53.8533 33.4105 53.8533C34.6793 53.8533 35.807 54.4172 36.7939 55.263C37.6397 56.1089 38.2036 57.3777 38.2036 58.6465C38.2036 61.3251 36.089 63.4397 33.4105 63.4397ZM33.4105 55.686C32.5646 55.686 31.8597 55.9679 31.2958 56.5318C30.7319 57.0958 30.4499 57.8006 30.4499 58.6465C30.4499 60.3382 31.8597 61.607 33.4105 61.607C35.1022 61.607 36.3709 60.1973 36.3709 58.6465C36.3709 57.8006 36.089 57.0958 35.5251 56.5318C34.9612 56.1089 34.2563 55.686 33.4105 55.686Z" fill="#EB6320"/>
<path d="M30.7323 56.8139C30.4503 56.8139 30.3094 56.6729 30.1684 56.5319L23.9654 50.3289C23.6834 50.0469 23.6834 49.483 23.9654 49.0601C24.2473 48.7781 24.8113 48.7781 25.2342 49.0601L31.4372 55.2631C31.7191 55.5451 31.7191 56.109 31.4372 56.5319C31.1552 56.8139 30.8733 56.8139 30.7323 56.8139Z" fill="#EB6320"/>
<path d="M46.6623 51.8797C45.3935 51.8797 44.2658 51.3158 43.2789 50.4699C42.4331 49.624 41.8691 48.3552 41.8691 47.0864C41.8691 44.4079 43.9838 42.2932 46.6623 42.2932C49.3409 42.2932 51.4556 44.4079 51.4556 47.0864C51.4556 48.3552 50.8917 49.4831 50.0458 50.4699C49.059 51.3158 47.9311 51.8797 46.6623 51.8797ZM46.6623 44.1259C44.9706 44.1259 43.7018 45.5357 43.7018 47.0864C43.7018 47.9323 43.9838 48.6372 44.5477 49.2011C45.1116 49.765 45.8165 50.047 46.6623 50.047C47.5082 50.047 48.2131 49.765 48.777 49.2011C49.3409 48.6372 49.6229 47.9323 49.6229 47.0864C49.6229 45.3947 48.2131 44.1259 46.6623 44.1259Z" fill="#EB6320"/>
<path d="M58.2229 63.4397C55.5443 63.4397 53.4297 61.3251 53.4297 58.6465C53.4297 57.3777 53.9936 56.2499 54.8395 55.263C55.6853 54.4172 56.9541 53.8533 58.2229 53.8533C60.9014 53.8533 63.0161 55.9679 63.0161 58.6465C63.0161 61.3251 60.9014 63.4397 58.2229 63.4397ZM58.2229 55.686C57.377 55.686 56.6721 55.9679 56.1082 56.5318C55.5443 57.0958 55.2624 57.8006 55.2624 58.6465C55.2624 60.3382 56.6721 61.607 58.2229 61.607C59.9146 61.607 61.1834 60.1973 61.1834 58.6465C61.1834 57.0958 59.9146 55.686 58.2229 55.686Z" fill="#EB6320"/>
<path d="M55.5449 56.8139C55.2629 56.8139 55.1219 56.6729 54.9809 56.5319L48.7779 50.3289C48.4959 50.0469 48.4959 49.483 48.7779 49.0601C49.0598 48.7781 49.6238 48.7781 50.0467 49.0601L56.2497 55.2631C56.5317 55.5451 56.5317 56.109 56.2497 56.5319C55.9678 56.8139 55.6858 56.8139 55.5449 56.8139Z" fill="#EB6320"/>
<path d="M36.2295 56.814C35.9476 56.814 35.6656 56.6731 35.5246 56.5321C35.2427 56.1091 35.2427 55.5452 35.6656 55.2633L43.4193 49.0603C43.8423 48.7783 44.4062 48.7783 44.6882 49.2013C44.9701 49.6242 44.9701 50.1881 44.5471 50.47L36.7934 56.6731C36.5114 56.814 36.3705 56.814 36.2295 56.814Z" fill="#EB6320"/>
<path d="M69.642 67.951H10.5724C10.1495 67.951 9.72656 67.5281 9.72656 67.1052C9.72656 66.6822 10.1495 66.2593 10.5724 66.2593H69.642C70.0649 66.2593 70.4878 66.6822 70.4878 67.1052C70.4878 67.5281 70.0649 67.951 69.642 67.951Z" fill="#EB6320"/>
</svg>
