<svg width="73" height="75" viewBox="0 0 73 75" fill="none" xmlns="http://www.w3.org/2000/svg">
<path d="M65.3349 59.665C67.1391 59.665 68.5566 61.0826 68.5566 62.8867C68.5566 64.6908 67.1391 66.1083 65.3349 66.1083C63.5308 66.1083 62.1133 64.6908 62.1133 62.8867C62.1133 61.0826 63.5308 59.665 65.3349 59.665Z" fill="white"/>
<path d="M4.89716 3.35059C7.08788 3.35059 8.89205 5.15472 8.89205 7.34544C8.89205 9.53616 7.08788 11.3403 4.89716 11.3403C2.70644 11.3403 0.902344 9.53616 0.902344 7.34544C0.902344 5.15472 2.70644 3.35059 4.89716 3.35059Z" fill="white"/>
<path d="M38.6602 43.1702C43.6859 43.1702 48.454 44.33 52.7066 46.5207C50.0004 55.799 44.7169 62.1135 38.6602 62.1135V43.1702Z" fill="white"/>
<path d="M38.6602 31.4431H54.7684C54.7684 36.8555 53.9952 42.0101 52.7066 46.5204C48.454 44.3297 43.6859 43.1699 38.6602 43.1699V31.4431Z" fill="white"/>
<path d="M38.659 31.4431V43.1699C35.824 43.1699 33.1178 43.5565 30.5405 44.2009C28.7364 41.4947 26.1591 39.304 23.0663 38.1442C22.8085 35.9534 22.6797 33.7627 22.6797 31.4431H38.659Z" fill="white"/>
<path d="M54.7689 31.4431H69.3307C69.3307 39.6905 66.1091 47.1648 60.8256 52.5772C58.506 50.1287 55.6709 48.0668 52.5781 46.3916C53.9957 42.0101 54.7689 36.9844 54.7689 31.4431Z" fill="white"/>
<path d="M71.3922 14.6907C72.0366 14.6907 72.552 15.2062 72.552 15.8505C72.552 16.4948 72.0366 17.0103 71.3922 17.0103C70.7479 17.0103 70.2324 16.4948 70.2324 15.8505C70.2324 15.2062 70.7479 14.6907 71.3922 14.6907Z" fill="#EB6320"/>
<path d="M69.3307 31.4431H54.7689C54.7689 26.0307 53.9957 20.8761 52.707 16.3658C55.7998 14.8194 58.506 12.7575 60.9544 10.1802C66.109 15.7214 69.3307 23.1956 69.3307 31.4431Z" fill="white"/>
<path d="M61.7262 1.80396C62.3706 1.80396 62.886 2.31945 62.886 2.96378C62.886 3.60811 62.3706 4.12357 61.7262 4.12357C61.0819 4.12357 60.5664 3.60811 60.5664 2.96378C60.5664 2.31945 61.0819 1.80396 61.7262 1.80396Z" fill="#EB6320"/>
<path d="M38.6602 0.773438C47.423 0.773438 55.2839 4.38168 60.8251 10.3095C58.5055 12.758 55.6704 14.8198 52.5777 16.4951C49.8715 7.08788 44.7169 0.773438 38.6602 0.773438Z" fill="white"/>
<path d="M60.8251 52.5775C55.2839 58.3764 47.423 62.1135 38.6602 62.1135C44.7169 62.1135 49.8715 55.7991 52.7066 46.5208C55.7994 48.0671 58.5055 50.129 60.8251 52.5775Z" fill="white"/>
<path d="M55.1539 67.0103C55.7982 67.0103 56.3137 67.5257 56.3137 68.17C56.3137 68.8144 55.7982 69.3299 55.1539 69.3299C54.5096 69.3299 53.9941 68.8144 53.9941 68.17C53.9941 67.5257 54.5096 67.0103 55.1539 67.0103Z" fill="#EB6320"/>
<path d="M54.7684 31.4433H38.6602V19.7165C43.6859 19.7165 48.454 18.5567 52.7066 16.366C53.9952 20.8763 54.7684 26.0309 54.7684 31.4433Z" fill="white"/>
<path d="M52.7066 16.3662C48.454 18.5569 43.6859 19.7167 38.6602 19.7167V0.773438C44.7169 0.773438 49.8715 7.08788 52.7066 16.3662Z" fill="white"/>
<path d="M38.6594 43.1702V62.1135C35.6955 62.1135 32.8605 61.7269 30.1543 60.9537C31.8296 58.6341 32.8605 56.0568 32.8605 52.5774C32.8605 49.4846 31.9584 46.6496 30.412 44.2011C33.1182 43.5568 35.8244 43.1702 38.6594 43.1702Z" fill="white"/>
<path d="M38.659 19.7165V31.4433H22.6797C22.6797 26.0309 23.4529 20.8763 24.7415 16.366C28.8652 18.5567 33.6332 19.7165 38.659 19.7165Z" fill="white"/>
<path d="M38.6596 0.773438V19.7167C33.6339 19.7167 28.8659 18.5569 24.6133 16.3662C27.4483 7.08788 32.7318 0.773438 38.6596 0.773438Z" fill="white"/>
<path d="M35.1812 65.4639C35.8256 65.4639 36.3411 65.9793 36.3411 66.6237C36.3411 67.268 35.8256 67.7834 35.1812 67.7834C34.5369 67.7834 34.0215 67.268 34.0215 66.6237C34.0215 65.9793 34.5369 65.4639 35.1812 65.4639Z" fill="#EB6320"/>
<path d="M32.9903 52.5774C32.9903 62.5001 23.712 65.7218 17.5264 74.2269C11.3408 65.8506 2.0625 62.629 2.0625 52.5774C2.0625 44.0723 9.02126 37.1135 17.5264 37.1135C26.0316 37.1135 32.9903 44.0723 32.9903 52.5774Z" fill="white"/>
<path d="M38.659 0.773438C32.6023 0.773438 27.4477 7.08788 24.6127 16.3662C21.5199 14.8198 18.8137 12.758 16.3652 10.3095C22.0353 4.38168 29.8961 0.773438 38.659 0.773438Z" fill="white"/>
<path d="M17.5258 41.3662C23.7114 41.3662 28.7371 46.392 28.7371 52.5776C28.7371 58.7631 23.7114 63.7889 17.5258 63.7889C11.3402 63.7889 6.31445 58.7631 6.31445 52.5776C6.31445 46.392 11.3402 41.3662 17.5258 41.3662Z" fill="white"/>
<path d="M17.5268 44.5876C21.9083 44.5876 25.5164 48.1959 25.5164 52.5774C25.5164 56.9588 21.9083 60.567 17.5268 60.567C13.1454 60.567 9.53711 56.9588 9.53711 52.5774C9.53711 48.1959 13.1454 44.5876 17.5268 44.5876Z" fill="white"/>
<path d="M22.6811 31.4433C22.6811 33.7629 22.8099 35.9536 23.0676 38.1443C21.3924 37.5 19.5882 37.1134 17.6553 37.1134C14.5625 37.1134 11.5986 38.0155 9.27897 39.5619C8.50577 36.9845 8.11914 34.1495 8.11914 31.3145L22.6811 31.4433Z" fill="white"/>
<path d="M24.7428 16.366C23.4541 20.8764 22.681 25.9021 22.681 31.4433H7.99023C7.99023 23.1959 11.2119 15.7217 16.4954 10.3093C18.8149 12.7578 21.65 14.8197 24.7428 16.366Z" fill="white"/>
<path d="M20.8768 53.2216C21.0056 53.4794 21.0056 53.8659 21.0056 54.2525C21.0056 54.768 20.8768 55.1546 20.7479 55.4123C20.6191 55.7989 20.3613 56.0567 20.1036 56.1855C19.8459 56.4433 19.4593 56.5721 19.2015 56.701C18.8149 56.8298 18.4283 56.8298 18.0417 56.8298V58.2474H17.1396V56.8298C16.6242 56.8298 15.9798 56.701 15.4644 56.4433C14.9489 56.3144 14.4334 56.0567 13.918 55.6701L14.82 53.8659C14.82 53.8659 14.9489 53.9948 15.0778 54.1237C15.2067 54.2525 15.4644 54.3814 15.5933 54.3814C15.851 54.5103 16.1087 54.6391 16.3665 54.6391C16.6242 54.768 16.8819 54.768 17.2685 54.8969V53.2216L16.6242 53.0927C16.2376 52.9639 15.851 52.835 15.5933 52.7061C15.3356 52.5773 15.0778 52.4484 14.82 52.1907C14.5623 52.0618 14.4335 51.8041 14.4335 51.5463V50.902C14.4335 50.5154 14.5623 50.1288 14.6912 49.7422C14.8201 49.3556 15.0778 49.0979 15.3355 48.8401C15.5933 48.5824 15.851 48.4536 16.2376 48.3247C16.6242 48.1958 17.0108 48.067 17.3974 48.067V46.7783H18.2994V48.067C18.8149 48.067 19.3304 48.1958 19.8458 48.4536C20.3613 48.5824 20.7479 48.8402 21.1345 49.0979L20.2324 50.7731C20.2324 50.7731 20.1035 50.6443 19.9747 50.6443C19.8458 50.6443 19.717 50.5154 19.4593 50.3866C19.3304 50.2577 19.0727 50.2577 18.8149 50.1288C18.5572 49.9999 18.2995 50 18.1706 50V51.6752H18.2994C18.686 51.8041 19.0727 51.9329 19.4593 52.0618C19.8459 52.1907 20.1035 52.3196 20.3613 52.5773C20.619 52.7062 20.7479 52.9639 20.8768 53.2216ZM17.9129 55.1546C18.5572 55.1546 18.8149 54.8969 18.8149 54.5103C18.8149 54.2525 18.6861 54.1236 18.5572 53.9948C18.4283 53.8659 18.1706 53.7371 17.9129 53.6082V55.1546ZM17.3974 51.4175V49.8711C16.8819 49.8711 16.4953 50.1288 16.4953 50.6443C16.4953 50.902 16.6242 51.0309 16.753 51.1598C16.8819 51.1598 17.0108 51.2886 17.3974 51.4175Z" fill="#EB6320"/>
<path d="M6.95865 68.6855C7.60298 68.6855 8.1184 69.201 8.1184 69.8453C8.1184 70.4897 7.60298 71.0051 6.95865 71.0051C6.31432 71.0051 5.79883 70.4897 5.79883 69.8453C5.79883 69.201 6.31432 68.6855 6.95865 68.6855Z" fill="#EB6320"/>
<path d="M3.73795 17.1392C4.38228 17.1392 4.8977 17.6546 4.8977 18.2989C4.8977 18.9433 4.38228 19.4587 3.73795 19.4587C3.09362 19.4587 2.57812 18.9433 2.57812 18.2989C2.57812 17.6546 3.09362 17.1392 3.73795 17.1392Z" fill="#EB6320"/>
<path d="M38.6588 20.6185C33.6331 20.6185 28.7362 19.4587 24.3547 17.1391C21.262 15.5927 18.4269 13.402 15.9785 10.8247C15.7207 10.5669 15.7207 10.0515 15.9785 9.66489C16.2362 9.40716 16.7516 9.40716 17.1382 9.66489C19.4578 12.1133 22.164 14.0463 25.1279 15.5927C29.3805 17.7835 34.0197 18.8144 38.7877 18.8144C43.5558 18.8144 48.1949 17.6546 52.4475 15.5927C55.4114 14.0463 58.1176 12.1133 60.4372 9.66489C60.6949 9.40716 61.2104 9.27829 61.597 9.66489C61.8547 9.92262 61.9836 10.4381 61.597 10.8247C59.1485 13.402 56.3135 15.4639 53.2207 17.1391C48.5815 19.4587 43.6846 20.6185 38.6588 20.6185Z" fill="#EB6320"/>
<path d="M60.8246 53.4792C60.5668 53.4792 60.438 53.3504 60.1802 53.2215C57.8606 50.773 55.1544 48.84 52.1905 47.2937C47.938 45.1029 43.2988 44.072 38.5308 44.072C35.8246 44.072 33.1184 44.4586 30.6699 45.1029C30.2833 45.2318 29.7679 44.9741 29.639 44.5875C29.5101 44.2009 29.7679 43.6854 30.1545 43.5566C32.8607 42.7834 35.6957 42.3967 38.5308 42.3967C43.5565 42.3967 48.4534 43.5565 52.8349 45.8761C55.9276 47.4225 58.7627 49.6132 61.2111 52.1905C61.4689 52.4483 61.4689 52.9637 61.2111 53.3503C61.2111 53.3503 61.0823 53.4792 60.8246 53.4792Z" fill="#EB6320"/>
<path d="M69.3301 32.2165H7.98996C7.60336 32.2165 7.2168 31.8299 7.2168 31.4433C7.2168 31.0567 7.60336 30.6702 7.98996 30.6702H69.3301C69.7167 30.6702 70.1034 31.0567 70.1034 31.4433C70.2322 31.9588 69.8456 32.2165 69.3301 32.2165Z" fill="#EB6320"/>
<path d="M38.6599 62.8866C38.2733 62.8866 37.8867 62.5 37.8867 62.1134V0.773204C37.8867 0.386606 38.2733 0 38.6599 0C39.0465 0 39.4331 0.386606 39.4331 0.773204V62.1134C39.4331 62.6289 39.1753 62.8866 38.6599 62.8866Z" fill="#EB6320"/>
<path d="M17.5266 61.3402C12.6297 61.3402 8.76367 57.3454 8.76367 52.5774C8.76367 47.8093 12.7586 43.8145 17.5266 43.8145C22.2947 43.8145 26.2895 47.8093 26.2895 52.5774C26.2895 57.3454 22.4235 61.3402 17.5266 61.3402ZM17.5266 45.4897C13.5318 45.4897 10.3101 48.7114 10.3101 52.7062C10.3101 56.701 13.5318 59.9227 17.5266 59.9227C21.5215 59.9227 24.7431 56.701 24.7431 52.7062C24.7431 48.7114 21.5215 45.4897 17.5266 45.4897Z" fill="#EB6320"/>
<path d="M17.5256 64.5618C10.9534 64.5618 5.54102 59.1495 5.54102 52.5773C5.54102 46.0052 10.9534 40.5928 17.5256 40.5928C24.0978 40.5928 29.5101 46.0052 29.5101 52.5773C29.5101 59.1495 24.0978 64.5618 17.5256 64.5618ZM17.5256 42.2681C11.8555 42.2681 7.08742 46.9072 7.08742 52.7062C7.08742 58.5051 11.7266 63.1443 17.5256 63.1443C23.3246 63.1443 27.9637 58.5051 27.9637 52.7062C27.9637 46.9072 23.3246 42.2681 17.5256 42.2681Z" fill="#EB6320"/>
<path d="M38.6595 62.8867C35.6956 62.8867 32.7317 62.5001 30.0255 61.7269C29.6389 61.598 29.3812 61.2114 29.5101 60.696C29.639 60.3094 30.0255 60.0516 30.541 60.1805C33.2472 60.9537 35.9534 61.3403 38.7885 61.3403C39.175 61.3403 39.5616 61.7269 39.5616 62.1135C39.4328 62.6289 39.175 62.8867 38.6595 62.8867Z" fill="#EB6320"/>
<path d="M38.6599 62.8866C38.2733 62.8866 37.8867 62.5 37.8867 62.1134C37.8867 61.7268 38.2733 61.3402 38.6599 61.3402C44.0723 61.3402 49.098 55.5412 51.9331 46.2629C53.2217 41.7526 53.995 36.5979 53.995 31.4433C53.995 26.2886 53.3506 21.134 51.9331 16.6237C49.2269 7.34535 44.0723 1.54641 38.6599 1.54641C38.2733 1.54641 37.8867 1.1598 37.8867 0.773204C37.8867 0.386606 38.2733 0 38.6599 0C43.0413 0 47.2939 0.902062 51.2887 2.57732C55.1547 4.25258 58.5053 6.70103 61.4692 9.66495C67.1393 15.5928 70.232 23.3247 70.232 31.4433C70.232 39.5618 67.1393 47.2938 61.4692 53.2217C58.5053 56.3144 55.1547 58.634 51.2887 60.3093C47.2939 62.1134 43.0413 62.8866 38.6599 62.8866ZM45.1032 2.31961C46.0052 2.96394 46.7785 3.73712 47.5517 4.63918C50.0001 7.47423 52.0619 11.4691 53.4795 16.2371C54.897 20.8763 55.5414 26.1598 55.5414 31.5722C55.5414 36.9845 54.7681 42.268 53.4795 46.9072C52.0619 51.6752 50.0001 55.6701 47.5517 58.5051C46.7785 59.4072 46.0052 60.1804 45.1032 60.8247C50.9021 59.5361 56.1856 56.701 60.3093 52.1907C65.5928 46.6495 68.5568 39.3041 68.5568 31.5722C68.5568 23.8402 65.5928 16.4948 60.3093 10.9536C56.0568 6.4433 50.7733 3.4794 45.1032 2.31961Z" fill="#EB6320"/>
<path d="M9.14979 40.4639C8.76319 40.4639 8.50541 40.2062 8.37654 39.8196C7.60335 37.1134 7.2168 34.2783 7.2168 31.4433C7.2168 23.3247 10.3096 15.5928 15.9797 9.66495C18.9436 6.57216 22.294 4.25258 26.16 2.57732C30.1549 0.902062 34.4075 0 38.789 0C39.1756 0 39.5621 0.386606 39.5621 0.773204C39.5621 1.1598 39.1756 1.54641 38.789 1.54641C33.3766 1.54641 28.3507 7.34535 25.5157 16.6237C24.227 21.134 23.4539 26.2886 23.4539 31.4433C23.4539 33.634 23.5827 35.9536 23.8405 38.0155C23.8405 38.4021 23.5827 38.9175 23.1961 38.9175C22.8095 38.9175 22.294 38.6598 22.294 38.2732C22.0363 36.0825 21.9075 33.7629 21.9075 31.4433C21.9075 26.0309 22.6807 20.7474 23.9694 16.1082C25.3869 11.3402 27.4487 7.34536 29.8972 4.51031C30.6704 3.60825 31.4436 2.83507 32.3457 2.19074C26.5467 3.4794 21.2631 6.31442 17.1394 10.8247C11.8559 16.366 8.89204 23.7113 8.89204 31.4433C8.89204 34.1495 9.27862 36.8557 9.92295 39.433C10.0518 39.8196 9.79405 40.335 9.40745 40.4639H9.14979Z" fill="#EB6320"/>
<path d="M17.5262 74.9999C17.2685 74.9999 17.0108 74.871 16.8819 74.6133C14.82 71.7782 12.3715 69.5875 10.0519 67.3968C5.54162 63.2731 1.28906 59.4071 1.28906 52.5772C1.28906 47.036 3.99526 42.0102 8.63444 38.9174C11.2118 37.2421 14.3046 36.3401 17.5262 36.3401C19.4592 36.3401 21.3922 36.7267 23.3252 37.371C26.5468 38.5308 29.3819 40.8504 31.186 43.8143C32.8612 46.3916 33.7633 49.4844 33.7633 52.5772C33.7633 55.67 32.8613 58.6339 30.7994 61.3401C29.253 63.5308 27.1912 65.3349 25.0004 67.3968C22.6808 69.5875 20.2324 71.7782 18.1705 74.6133C18.0417 74.871 17.784 74.9999 17.5262 74.9999ZM17.5262 38.0153C14.6912 38.0153 11.8561 38.7885 9.53652 40.3349C5.4128 43.0411 2.83547 47.6803 2.83547 52.5772C2.83547 58.7628 6.57257 62.2421 10.954 66.237C13.1447 68.2988 15.3355 70.2318 17.3973 72.8091C19.4592 70.2318 21.6499 68.17 23.8406 66.237C25.9025 64.304 27.9643 62.4999 29.3818 60.438C31.1859 57.9895 31.9591 55.5411 31.9591 52.5772C31.9591 49.6133 31.186 47.036 29.6396 44.7164C27.9643 42.1391 25.387 40.0772 22.5519 38.9174C21.1344 38.2731 19.3303 38.0153 17.5262 38.0153Z" fill="#EB6320"/>
<path d="M4.89689 12.2421C2.19071 12.2421 0 10.0514 0 7.34517C0 4.63899 2.19071 2.44824 4.89689 2.44824C7.60308 2.44824 9.79386 4.63899 9.79386 7.34517C9.79386 10.0514 7.60308 12.2421 4.89689 12.2421ZM4.89689 4.12352C3.09277 4.12352 1.67524 5.54105 1.67524 7.34517C1.67524 9.1493 3.09277 10.5668 4.89689 10.5668C6.70101 10.5668 8.11854 9.1493 8.11854 7.34517C8.11854 5.54105 6.70101 4.12352 4.89689 4.12352Z" fill="#EB6320"/>
<path d="M65.3347 67.0104C63.1439 67.0104 61.3398 65.2063 61.3398 63.0156C61.3398 60.8248 63.1439 59.0208 65.3347 59.0208C67.5254 59.0208 69.3295 60.8248 69.3295 63.0156C69.3295 65.2063 67.5254 67.0104 65.3347 67.0104ZM65.3347 60.5671C64.046 60.5671 62.8862 61.598 62.8862 63.0156C62.8862 64.4331 63.9171 65.464 65.3347 65.464C66.7522 65.464 67.7831 64.4331 67.7831 63.0156C67.7831 61.598 66.6233 60.5671 65.3347 60.5671Z" fill="#EB6320"/>
<path d="M65.3349 59.665C67.1391 59.665 68.5566 61.0826 68.5566 62.8867C68.5566 64.6908 67.1391 66.1083 65.3349 66.1083C63.5308 66.1083 62.1133 64.6908 62.1133 62.8867C62.1133 61.0826 63.5308 59.665 65.3349 59.665Z" fill="white"/>
<path d="M4.89716 3.35059C7.08788 3.35059 8.89205 5.15472 8.89205 7.34544C8.89205 9.53616 7.08788 11.3403 4.89716 11.3403C2.70644 11.3403 0.902344 9.53616 0.902344 7.34544C0.902344 5.15472 2.70644 3.35059 4.89716 3.35059Z" fill="white"/>
<path d="M38.6602 43.1702C43.6859 43.1702 48.454 44.33 52.7066 46.5207C50.0004 55.799 44.7169 62.1135 38.6602 62.1135V43.1702Z" fill="white"/>
<path d="M38.6602 31.4431H54.7684C54.7684 36.8555 53.9952 42.0101 52.7066 46.5204C48.454 44.3297 43.6859 43.1699 38.6602 43.1699V31.4431Z" fill="white"/>
<path d="M38.659 31.4431V43.1699C35.824 43.1699 33.1178 43.5565 30.5405 44.2009C28.7364 41.4947 26.1591 39.304 23.0663 38.1442C22.8085 35.9534 22.6797 33.7627 22.6797 31.4431H38.659Z" fill="white"/>
<path d="M54.7689 31.4431H69.3307C69.3307 39.6905 66.1091 47.1648 60.8256 52.5772C58.506 50.1287 55.6709 48.0668 52.5781 46.3916C53.9957 42.0101 54.7689 36.9844 54.7689 31.4431Z" fill="white"/>
<path d="M71.3922 14.6907C72.0366 14.6907 72.552 15.2062 72.552 15.8505C72.552 16.4948 72.0366 17.0103 71.3922 17.0103C70.7479 17.0103 70.2324 16.4948 70.2324 15.8505C70.2324 15.2062 70.7479 14.6907 71.3922 14.6907Z" fill="#EB6320"/>
<path d="M69.3307 31.4431H54.7689C54.7689 26.0307 53.9957 20.8761 52.707 16.3658C55.7998 14.8194 58.506 12.7575 60.9544 10.1802C66.109 15.7214 69.3307 23.1956 69.3307 31.4431Z" fill="white"/>
<path d="M61.7262 1.80396C62.3706 1.80396 62.886 2.31945 62.886 2.96378C62.886 3.60811 62.3706 4.12357 61.7262 4.12357C61.0819 4.12357 60.5664 3.60811 60.5664 2.96378C60.5664 2.31945 61.0819 1.80396 61.7262 1.80396Z" fill="#EB6320"/>
<path d="M38.6602 0.773438C47.423 0.773438 55.2839 4.38168 60.8251 10.3095C58.5055 12.758 55.6704 14.8198 52.5777 16.4951C49.8715 7.08788 44.7169 0.773438 38.6602 0.773438Z" fill="white"/>
<path d="M60.8251 52.5775C55.2839 58.3764 47.423 62.1135 38.6602 62.1135C44.7169 62.1135 49.8715 55.7991 52.7066 46.5208C55.7994 48.0671 58.5055 50.129 60.8251 52.5775Z" fill="white"/>
<path d="M55.1539 67.0103C55.7982 67.0103 56.3137 67.5257 56.3137 68.17C56.3137 68.8144 55.7982 69.3299 55.1539 69.3299C54.5096 69.3299 53.9941 68.8144 53.9941 68.17C53.9941 67.5257 54.5096 67.0103 55.1539 67.0103Z" fill="#EB6320"/>
<path d="M54.7684 31.4433H38.6602V19.7165C43.6859 19.7165 48.454 18.5567 52.7066 16.366C53.9952 20.8763 54.7684 26.0309 54.7684 31.4433Z" fill="white"/>
<path d="M52.7066 16.3662C48.454 18.5569 43.6859 19.7167 38.6602 19.7167V0.773438C44.7169 0.773438 49.8715 7.08788 52.7066 16.3662Z" fill="white"/>
<path d="M38.6594 43.1702V62.1135C35.6955 62.1135 32.8605 61.7269 30.1543 60.9537C31.8296 58.6341 32.8605 56.0568 32.8605 52.5774C32.8605 49.4846 31.9584 46.6496 30.412 44.2011C33.1182 43.5568 35.8244 43.1702 38.6594 43.1702Z" fill="white"/>
<path d="M38.659 19.7165V31.4433H22.6797C22.6797 26.0309 23.4529 20.8763 24.7415 16.366C28.8652 18.5567 33.6332 19.7165 38.659 19.7165Z" fill="white"/>
<path d="M38.6596 0.773438V19.7167C33.6339 19.7167 28.8659 18.5569 24.6133 16.3662C27.4483 7.08788 32.7318 0.773438 38.6596 0.773438Z" fill="white"/>
<path d="M35.1812 65.4639C35.8256 65.4639 36.3411 65.9793 36.3411 66.6237C36.3411 67.268 35.8256 67.7834 35.1812 67.7834C34.5369 67.7834 34.0215 67.268 34.0215 66.6237C34.0215 65.9793 34.5369 65.4639 35.1812 65.4639Z" fill="#EB6320"/>
<path d="M32.9903 52.5774C32.9903 62.5001 23.712 65.7218 17.5264 74.2269C11.3408 65.8506 2.0625 62.629 2.0625 52.5774C2.0625 44.0723 9.02126 37.1135 17.5264 37.1135C26.0316 37.1135 32.9903 44.0723 32.9903 52.5774Z" fill="white"/>
<path d="M38.659 0.773438C32.6023 0.773438 27.4477 7.08788 24.6127 16.3662C21.5199 14.8198 18.8137 12.758 16.3652 10.3095C22.0353 4.38168 29.8961 0.773438 38.659 0.773438Z" fill="white"/>
<path d="M17.5258 41.3662C23.7114 41.3662 28.7371 46.392 28.7371 52.5776C28.7371 58.7631 23.7114 63.7889 17.5258 63.7889C11.3402 63.7889 6.31445 58.7631 6.31445 52.5776C6.31445 46.392 11.3402 41.3662 17.5258 41.3662Z" fill="white"/>
<path d="M17.5268 44.5876C21.9083 44.5876 25.5164 48.1959 25.5164 52.5774C25.5164 56.9588 21.9083 60.567 17.5268 60.567C13.1454 60.567 9.53711 56.9588 9.53711 52.5774C9.53711 48.1959 13.1454 44.5876 17.5268 44.5876Z" fill="white"/>
<path d="M22.6811 31.4433C22.6811 33.7629 22.8099 35.9536 23.0676 38.1443C21.3924 37.5 19.5882 37.1134 17.6553 37.1134C14.5625 37.1134 11.5986 38.0155 9.27897 39.5619C8.50577 36.9845 8.11914 34.1495 8.11914 31.3145L22.6811 31.4433Z" fill="white"/>
<path d="M24.7428 16.366C23.4541 20.8764 22.681 25.9021 22.681 31.4433H7.99023C7.99023 23.1959 11.2119 15.7217 16.4954 10.3093C18.8149 12.7578 21.65 14.8197 24.7428 16.366Z" fill="white"/>
<path d="M6.95865 68.6855C7.60298 68.6855 8.1184 69.201 8.1184 69.8453C8.1184 70.4897 7.60298 71.0051 6.95865 71.0051C6.31432 71.0051 5.79883 70.4897 5.79883 69.8453C5.79883 69.201 6.31432 68.6855 6.95865 68.6855Z" fill="#EB6320"/>
<path d="M3.73795 17.1392C4.38228 17.1392 4.8977 17.6546 4.8977 18.2989C4.8977 18.9433 4.38228 19.4587 3.73795 19.4587C3.09362 19.4587 2.57812 18.9433 2.57812 18.2989C2.57812 17.6546 3.09362 17.1392 3.73795 17.1392Z" fill="#EB6320"/>
<path d="M38.6588 20.6185C33.6331 20.6185 28.7362 19.4587 24.3547 17.1391C21.262 15.5927 18.4269 13.402 15.9785 10.8247C15.7207 10.5669 15.7207 10.0515 15.9785 9.66489C16.2362 9.40716 16.7516 9.40716 17.1382 9.66489C19.4578 12.1133 22.164 14.0463 25.1279 15.5927C29.3805 17.7835 34.0197 18.8144 38.7877 18.8144C43.5558 18.8144 48.1949 17.6546 52.4475 15.5927C55.4114 14.0463 58.1176 12.1133 60.4372 9.66489C60.6949 9.40716 61.2104 9.27829 61.597 9.66489C61.8547 9.92262 61.9836 10.4381 61.597 10.8247C59.1485 13.402 56.3135 15.4639 53.2207 17.1391C48.5815 19.4587 43.6846 20.6185 38.6588 20.6185Z" fill="#EB6320"/>
<path d="M60.8246 53.4792C60.5668 53.4792 60.438 53.3504 60.1802 53.2215C57.8606 50.773 55.1544 48.84 52.1905 47.2937C47.938 45.1029 43.2988 44.072 38.5308 44.072C35.8246 44.072 33.1184 44.4586 30.6699 45.1029C30.2833 45.2318 29.7679 44.9741 29.639 44.5875C29.5101 44.2009 29.7679 43.6854 30.1545 43.5566C32.8607 42.7834 35.6957 42.3967 38.5308 42.3967C43.5565 42.3967 48.4534 43.5565 52.8349 45.8761C55.9276 47.4225 58.7627 49.6132 61.2111 52.1905C61.4689 52.4483 61.4689 52.9637 61.2111 53.3503C61.2111 53.3503 61.0823 53.4792 60.8246 53.4792Z" fill="#EB6320"/>
<path d="M69.3301 32.2165H7.98996C7.60336 32.2165 7.2168 31.8299 7.2168 31.4433C7.2168 31.0567 7.60336 30.6702 7.98996 30.6702H69.3301C69.7167 30.6702 70.1034 31.0567 70.1034 31.4433C70.2322 31.9588 69.8456 32.2165 69.3301 32.2165Z" fill="#EB6320"/>
<path d="M38.6599 62.8866C38.2733 62.8866 37.8867 62.5 37.8867 62.1134V0.773204C37.8867 0.386606 38.2733 0 38.6599 0C39.0465 0 39.4331 0.386606 39.4331 0.773204V62.1134C39.4331 62.6289 39.1753 62.8866 38.6599 62.8866Z" fill="#EB6320"/>
<path d="M17.5266 61.3402C12.6297 61.3402 8.76367 57.3454 8.76367 52.5774C8.76367 47.8093 12.7586 43.8145 17.5266 43.8145C22.2947 43.8145 26.2895 47.8093 26.2895 52.5774C26.2895 57.3454 22.4235 61.3402 17.5266 61.3402ZM17.5266 45.4897C13.5318 45.4897 10.3101 48.7114 10.3101 52.7062C10.3101 56.701 13.5318 59.9227 17.5266 59.9227C21.5215 59.9227 24.7431 56.701 24.7431 52.7062C24.7431 48.7114 21.5215 45.4897 17.5266 45.4897Z" fill="#EB6320"/>
<path d="M38.6595 62.8867C35.6956 62.8867 32.7317 62.5001 30.0255 61.7269C29.6389 61.598 29.3812 61.2114 29.5101 60.696C29.639 60.3094 30.0255 60.0516 30.541 60.1805C33.2472 60.9537 35.9534 61.3403 38.7885 61.3403C39.175 61.3403 39.5616 61.7269 39.5616 62.1135C39.4328 62.6289 39.175 62.8867 38.6595 62.8867Z" fill="#EB6320"/>
<path d="M38.6599 62.8866C38.2733 62.8866 37.8867 62.5 37.8867 62.1134C37.8867 61.7268 38.2733 61.3402 38.6599 61.3402C44.0723 61.3402 49.098 55.5412 51.9331 46.2629C53.2217 41.7526 53.995 36.5979 53.995 31.4433C53.995 26.2886 53.3506 21.134 51.9331 16.6237C49.2269 7.34535 44.0723 1.54641 38.6599 1.54641C38.2733 1.54641 37.8867 1.1598 37.8867 0.773204C37.8867 0.386606 38.2733 0 38.6599 0C43.0413 0 47.2939 0.902062 51.2887 2.57732C55.1547 4.25258 58.5053 6.70103 61.4692 9.66495C67.1393 15.5928 70.232 23.3247 70.232 31.4433C70.232 39.5618 67.1393 47.2938 61.4692 53.2217C58.5053 56.3144 55.1547 58.634 51.2887 60.3093C47.2939 62.1134 43.0413 62.8866 38.6599 62.8866ZM45.1032 2.31961C46.0052 2.96394 46.7785 3.73712 47.5517 4.63918C50.0001 7.47423 52.0619 11.4691 53.4795 16.2371C54.897 20.8763 55.5414 26.1598 55.5414 31.5722C55.5414 36.9845 54.7681 42.268 53.4795 46.9072C52.0619 51.6752 50.0001 55.6701 47.5517 58.5051C46.7785 59.4072 46.0052 60.1804 45.1032 60.8247C50.9021 59.5361 56.1856 56.701 60.3093 52.1907C65.5928 46.6495 68.5568 39.3041 68.5568 31.5722C68.5568 23.8402 65.5928 16.4948 60.3093 10.9536C56.0568 6.4433 50.7733 3.4794 45.1032 2.31961Z" fill="#EB6320"/>
<path d="M9.14979 40.4639C8.76319 40.4639 8.50541 40.2062 8.37654 39.8196C7.60335 37.1134 7.2168 34.2783 7.2168 31.4433C7.2168 23.3247 10.3096 15.5928 15.9797 9.66495C18.9436 6.57216 22.294 4.25258 26.16 2.57732C30.1549 0.902062 34.4075 0 38.789 0C39.1756 0 39.5621 0.386606 39.5621 0.773204C39.5621 1.1598 39.1756 1.54641 38.789 1.54641C33.3766 1.54641 28.3507 7.34535 25.5157 16.6237C24.227 21.134 23.4539 26.2886 23.4539 31.4433C23.4539 33.634 23.5827 35.9536 23.8405 38.0155C23.8405 38.4021 23.5827 38.9175 23.1961 38.9175C22.8095 38.9175 22.294 38.6598 22.294 38.2732C22.0363 36.0825 21.9075 33.7629 21.9075 31.4433C21.9075 26.0309 22.6807 20.7474 23.9694 16.1082C25.3869 11.3402 27.4487 7.34536 29.8972 4.51031C30.6704 3.60825 31.4436 2.83507 32.3457 2.19074C26.5467 3.4794 21.2631 6.31442 17.1394 10.8247C11.8559 16.366 8.89204 23.7113 8.89204 31.4433C8.89204 34.1495 9.27862 36.8557 9.92295 39.433C10.0518 39.8196 9.79405 40.335 9.40745 40.4639H9.14979Z" fill="#EB6320"/>
<path d="M17.5262 74.9999C17.2685 74.9999 17.0108 74.871 16.8819 74.6133C14.82 71.7782 12.3715 69.5875 10.0519 67.3968C5.54162 63.2731 1.28906 59.4071 1.28906 52.5772C1.28906 47.036 3.99526 42.0102 8.63444 38.9174C11.2118 37.2421 14.3046 36.3401 17.5262 36.3401C19.4592 36.3401 21.3922 36.7267 23.3252 37.371C26.5468 38.5308 29.3819 40.8504 31.186 43.8143C32.8612 46.3916 33.7633 49.4844 33.7633 52.5772C33.7633 55.67 32.8613 58.6339 30.7994 61.3401C29.253 63.5308 27.1912 65.3349 25.0004 67.3968C22.6808 69.5875 20.2324 71.7782 18.1705 74.6133C18.0417 74.871 17.784 74.9999 17.5262 74.9999ZM17.5262 38.0153C14.6912 38.0153 11.8561 38.7885 9.53652 40.3349C5.4128 43.0411 2.83547 47.6803 2.83547 52.5772C2.83547 58.7628 6.57257 62.2421 10.954 66.237C13.1447 68.2988 15.3355 70.2318 17.3973 72.8091C19.4592 70.2318 21.6499 68.17 23.8406 66.237C25.9025 64.304 27.9643 62.4999 29.3818 60.438C31.1859 57.9895 31.9591 55.5411 31.9591 52.5772C31.9591 49.6133 31.186 47.036 29.6396 44.7164C27.9643 42.1391 25.387 40.0772 22.5519 38.9174C21.1344 38.2731 19.3303 38.0153 17.5262 38.0153Z" fill="#EB6320"/>
<path d="M4.89689 12.2421C2.19071 12.2421 0 10.0514 0 7.34517C0 4.63899 2.19071 2.44824 4.89689 2.44824C7.60308 2.44824 9.79386 4.63899 9.79386 7.34517C9.79386 10.0514 7.60308 12.2421 4.89689 12.2421ZM4.89689 4.12352C3.09277 4.12352 1.67524 5.54105 1.67524 7.34517C1.67524 9.1493 3.09277 10.5668 4.89689 10.5668C6.70101 10.5668 8.11854 9.1493 8.11854 7.34517C8.11854 5.54105 6.70101 4.12352 4.89689 4.12352Z" fill="#EB6320"/>
<path d="M65.3347 67.0104C63.1439 67.0104 61.3398 65.2063 61.3398 63.0156C61.3398 60.8248 63.1439 59.0208 65.3347 59.0208C67.5254 59.0208 69.3295 60.8248 69.3295 63.0156C69.3295 65.2063 67.5254 67.0104 65.3347 67.0104ZM65.3347 60.5671C64.046 60.5671 62.8862 61.598 62.8862 63.0156C62.8862 64.4331 63.9171 65.464 65.3347 65.464C66.7522 65.464 67.7831 64.4331 67.7831 63.0156C67.7831 61.598 66.6233 60.5671 65.3347 60.5671Z" fill="#EB6320"/>
</svg>
