<svg width="75" height="75" viewBox="0 0 75 75" fill="none" xmlns="http://www.w3.org/2000/svg">
<path d="M6.74413 65.6929C9.0373 65.6929 10.9258 67.5814 10.9258 69.8745C10.9258 72.1677 9.0373 74.0562 6.74413 74.0562C4.45096 74.0562 2.5625 72.1677 2.5625 69.8745C2.5625 67.5814 4.45096 65.6929 6.74413 65.6929Z" fill="white"/>
<path d="M67.4451 1.61914C70.723 1.61914 73.3804 4.27651 73.3804 7.5544C73.3804 10.8323 70.723 13.4897 67.4451 13.4897C64.1672 13.4897 61.5098 10.8323 61.5098 7.5544C61.5098 4.27651 64.1672 1.61914 67.4451 1.61914Z" fill="white"/>
<path d="M21.8516 38.7144C19.9632 38.7144 18.6142 40.1982 18.6142 42.0867C18.6142 43.9752 20.098 45.459 21.9865 45.459H23.6052C26.0333 50.0454 30.8895 53.1479 36.2852 53.1479C44.2438 53.1479 50.7186 46.6731 50.7186 38.7144C52.6071 38.7144 53.956 37.2306 53.956 35.3421C53.956 33.4536 52.4722 31.9698 50.5837 31.9698H48.965C46.5369 27.3835 41.8157 24.281 36.2852 24.281C28.3265 24.4158 21.8516 30.8907 21.8516 38.7144ZM69.4687 33.7234V43.8404L59.7564 44.9195C59.2168 47.0778 58.2726 49.2361 57.1935 51.1245L63.3985 58.6785L56.1143 65.8278L48.5603 59.6228C46.6718 60.7019 44.5136 61.6461 42.3553 62.1857L41.2761 71.898H31.1592L30.0801 62.1857C27.9218 61.6461 25.7635 60.7019 23.875 59.6228L16.321 65.8278L9.17172 58.6785L15.3768 51.1245C14.2977 49.2361 13.3534 47.0778 12.8138 44.9195L3.10156 43.8404V33.7234L12.8138 32.6443C13.3534 30.486 14.2977 28.3277 15.3768 26.4392L9.17172 18.8853L16.321 11.7359L23.875 17.941C25.7635 16.8619 27.9218 15.9176 30.0801 15.378L31.1592 5.66577H41.2761L42.3553 15.378C44.5136 15.9176 46.6718 16.8619 48.5603 17.941L56.1143 11.7359L63.2636 18.8853L57.0585 26.4392C58.1377 28.3277 59.082 30.486 59.6215 32.6443L69.4687 33.7234Z" fill="white"/>
<path d="M72.0324 21.179C72.7069 21.179 73.2464 21.7185 73.2464 22.393C73.2464 23.0674 72.7069 23.607 72.0324 23.607C71.358 23.607 70.8184 23.0674 70.8184 22.393C70.8184 21.7185 71.358 21.179 72.0324 21.179Z" fill="#EB6320"/>
<path d="M69.6046 52.3374C70.2791 52.3374 70.8187 52.877 70.8187 53.5514C70.8187 54.2259 70.2791 54.7655 69.6046 54.7655C68.9301 54.7655 68.3906 54.2259 68.3906 53.5514C68.3906 52.877 68.9301 52.3374 69.6046 52.3374Z" fill="#EB6320"/>
<path d="M52.7433 70.0083C53.4177 70.0083 53.9573 70.5479 53.9573 71.2223C53.9573 71.8968 53.4177 72.4363 52.7433 72.4363C52.0688 72.4363 51.5293 71.8968 51.5293 71.2223C51.5293 70.5479 52.0688 70.0083 52.7433 70.0083Z" fill="#EB6320"/>
<path d="M51.8 3.37207C52.4745 3.37207 53.014 3.91163 53.014 4.58609C53.014 5.26056 52.4745 5.80012 51.8 5.80012C51.1255 5.80012 50.5859 5.26056 50.5859 4.58609C50.5859 3.91163 51.1255 3.37207 51.8 3.37207Z" fill="#EB6320"/>
<path d="M24.0109 70.0083C24.6853 70.0083 25.2249 70.5479 25.2249 71.2223C25.2249 71.8968 24.6853 72.4363 24.0109 72.4363C23.3364 72.4363 22.7969 71.8968 22.7969 71.2223C22.7969 70.5479 23.3364 70.0083 24.0109 70.0083Z" fill="#EB6320"/>
<path d="M21.4484 0C22.1229 0 22.6624 0.539562 22.6624 1.21402C22.6624 1.88849 22.1229 2.42805 21.4484 2.42805C20.774 2.42805 20.2344 1.88849 20.2344 1.21402C20.2344 0.539562 20.774 0 21.4484 0Z" fill="#EB6320"/>
<path d="M3.77648 11.0613C4.45095 11.0613 4.99055 11.6008 4.99055 12.2753C4.99055 12.9498 4.45095 13.4894 3.77648 13.4894C3.10202 13.4894 2.5625 12.9498 2.5625 12.2753C2.5625 11.6008 3.10202 11.0613 3.77648 11.0613Z" fill="#EB6320"/>
<path d="M1.21407 48.9663C1.88853 48.9663 2.42805 49.5059 2.42805 50.1803C2.42805 50.8548 1.88853 51.3944 1.21407 51.3944C0.539603 51.3944 0 50.8548 0 50.1803C0 49.5059 0.539603 48.9663 1.21407 48.9663Z" fill="#EB6320"/>
<path d="M41.277 72.8411H31.1601C30.7554 72.8411 30.3508 72.5713 30.3508 72.0317L29.4065 62.859C27.518 62.3194 25.7644 61.645 24.0108 60.5658L16.8615 66.5011C16.5917 66.7709 16.0522 66.7709 15.7824 66.5011L8.63311 59.3518C8.36332 59.082 8.36332 58.5424 8.63311 58.2727L14.4335 51.1234C13.4892 49.3698 12.6798 47.6162 12.1403 45.7277L2.96761 44.7834C2.56293 44.7834 2.1582 44.3787 2.1582 43.974V33.8571C2.1582 33.4524 2.42804 33.0478 2.96761 33.0478L12.1403 32.1035C12.6798 30.215 13.3543 28.4614 14.4335 26.7078L8.63311 19.5585C8.36332 19.2888 8.36332 18.7492 8.63311 18.4794L15.7824 11.3301C16.0522 11.0603 16.5917 11.0603 16.8615 11.3301L24.0108 17.1304C25.7644 16.1862 27.518 15.3769 29.4065 14.8373L30.3508 5.66459C30.3508 5.25991 30.7554 4.85522 31.1601 4.85522H41.277C41.6817 4.85522 42.0864 5.12502 42.0864 5.66459L43.0307 14.8373C44.9192 15.3769 46.6728 16.0513 48.4264 17.1304L55.5757 11.3301C55.8454 11.0603 56.385 11.0603 56.6548 11.3301L63.8041 18.4794C64.0738 18.7492 64.0738 19.2888 63.8041 19.5585L58.0037 26.7078C58.948 28.4614 59.7573 30.215 60.2969 32.1035L69.4696 33.0478C69.8742 33.0478 70.2789 33.4524 70.2789 33.8571V43.974C70.2789 44.3787 70.0091 44.7834 69.4696 44.7834L60.4318 45.5928C59.8922 47.4813 59.2177 49.2349 58.1386 50.9885L63.939 58.1378C64.2088 58.4075 64.2088 58.9471 63.939 59.2169L56.7896 66.3662C56.5199 66.636 55.9803 66.636 55.7105 66.3662L48.5612 60.5658C46.8076 61.5101 45.054 62.3194 43.1655 62.859L42.2213 72.0317C42.0864 72.4364 41.8166 72.8411 41.277 72.8411ZM31.9695 71.0874H40.6025L41.5468 62.1845C41.5468 61.7799 41.8166 61.5101 42.2213 61.5101C44.2447 60.9705 46.268 60.1612 48.2914 59.082C48.5612 58.9471 48.9659 58.9471 49.2357 59.2169L56.2501 64.8824L62.3203 58.8122L56.6548 51.7978C56.385 51.528 56.385 51.1234 56.5199 50.8536C57.5991 48.9651 58.5433 46.9417 58.948 44.7834C59.0829 44.3787 59.3526 44.2438 59.6224 44.1089L68.5253 43.1647V34.5316L59.6224 33.4524C59.2178 33.4524 58.948 33.1827 58.948 32.778C58.4084 30.6197 57.5991 28.5963 56.5199 26.7078C56.385 26.438 56.385 26.0333 56.6548 25.7636L62.3203 18.7492L56.2501 12.679L49.2357 18.3445C48.9659 18.6143 48.5612 18.6143 48.2914 18.4794C46.4029 17.4002 44.3796 16.456 42.2213 16.0513C41.8166 15.9164 41.6817 15.6466 41.5468 15.3769L40.6025 6.47395H31.9695L31.0252 15.3769C31.0252 15.7815 30.7554 16.0513 30.3508 16.0513C28.1925 16.5909 26.1691 17.4002 24.2806 18.6143C24.0108 18.7492 23.6061 18.7492 23.3363 18.4794L16.3219 12.8139L10.2517 18.8841L15.9172 25.8985C16.187 26.1682 16.1871 26.5729 16.0522 26.8427C14.9731 28.7312 14.0287 30.7546 13.6241 32.9129C13.4892 33.1827 13.2194 33.4524 12.8147 33.4524L3.91187 34.3967V43.0298L12.8147 43.974C13.2194 43.974 13.4892 44.2438 13.4892 44.6485C14.0288 46.6719 14.8381 48.6953 15.9172 50.7187C16.0521 50.9885 16.0522 51.3932 15.7824 51.6629L10.1169 58.6774L16.187 64.7475L23.2015 59.082C23.4713 58.8122 23.876 58.8122 24.1457 58.9471C26.0342 60.0263 28.0576 60.9705 30.2159 61.3752C30.6206 61.5101 30.7555 61.7799 30.8904 62.0497L31.9695 71.0874Z" fill="#EB6320"/>
<path d="M21.8524 39.6581C21.4477 39.6581 21.043 39.2534 21.043 38.8487C21.043 36.4206 21.7175 33.8577 22.7966 31.6994C23.0664 31.2947 23.4711 31.1598 23.8758 31.2947C24.2804 31.5645 24.4153 31.9692 24.2804 32.3739C23.2013 34.2624 22.6617 36.5555 22.6617 38.7138C22.6617 39.2534 22.257 39.6581 21.8524 39.6581Z" fill="#EB6320"/>
<path d="M48.9659 32.9151C48.6962 32.9151 48.4264 32.7802 48.1566 32.5104C45.7286 28.059 41.1422 25.3612 36.1512 25.3612C31.1601 25.3612 26.5738 28.059 24.1458 32.5104C23.876 32.9151 23.4713 33.05 23.0666 32.9151C22.6619 32.6454 22.527 32.2407 22.6619 31.836C25.3598 26.845 30.4857 23.7424 36.1512 23.7424C41.8166 23.7424 46.9426 26.845 49.6404 31.836C49.9102 32.2407 49.6404 32.7803 49.2358 32.9151C49.2358 32.7803 49.1008 32.9151 48.9659 32.9151Z" fill="#EB6320"/>
<path d="M36.2853 53.9572C30.6199 53.9572 25.4939 50.8547 22.7961 45.8636C22.5263 45.459 22.7961 44.9194 23.2008 44.7845C23.6054 44.6496 24.145 44.7845 24.2799 45.1892C26.7079 49.6406 31.2943 52.3385 36.2853 52.3385C41.2764 52.3385 45.8627 49.6406 48.2907 45.1892C48.5605 44.7845 48.9652 44.6496 49.3698 44.7845C49.7745 45.0543 49.9095 45.459 49.7746 45.8636C47.0767 50.8547 41.9508 53.9572 36.2853 53.9572Z" fill="#EB6320"/>
<path d="M48.9654 46.4027C48.8305 46.4027 48.6956 46.4026 48.5607 46.2678C48.156 45.998 48.0212 45.5933 48.1561 45.1886C49.2352 43.3001 49.7748 41.0069 49.7748 38.8487C49.7748 38.444 50.1794 38.0393 50.5841 38.0393C50.9888 38.0393 51.3934 38.444 51.3934 38.8487C51.3934 41.2767 50.719 43.8397 49.6398 45.998C49.5049 46.1328 49.2352 46.4027 48.9654 46.4027Z" fill="#EB6320"/>
<path d="M51.395 49.7747C51.1252 49.7747 50.8554 49.6398 50.7205 49.5049C50.4507 49.1002 50.4508 48.5606 50.8554 48.2908L53.1486 46.4024H21.9884C20.9093 46.4024 19.8301 45.9977 19.0208 45.1883C18.2114 44.379 17.8068 43.2998 17.8068 42.2207C17.8068 39.9275 19.6953 38.039 21.8536 38.039H50.5856C51.2601 38.039 51.7997 37.7692 52.3392 37.3645C52.8788 36.825 53.0137 36.2854 53.0137 35.611C53.0137 34.262 51.9346 33.048 50.4508 33.048H17.6718C17.2672 33.048 16.9974 32.7782 16.8625 32.5084C16.7276 32.2386 16.8625 31.834 16.9974 31.5642L21.1791 27.3825C21.4489 27.1127 21.9884 27.1127 22.3931 27.3825C22.6629 27.6523 22.6629 28.1919 22.3931 28.5965L19.5604 31.4293H50.5856C52.8788 31.4293 54.7673 33.3178 54.7673 35.611C54.7673 36.6901 54.3626 37.7692 53.5533 38.5786C52.7439 39.3879 51.7996 39.7926 50.7205 39.7926H21.8536C20.5046 39.7926 19.4255 41.0067 19.4255 42.3556C19.4255 43.03 19.6953 43.7045 20.1 44.1092C20.6395 44.6487 21.1791 44.7836 21.8536 44.7836H55.5767C55.9814 44.7836 56.2511 45.0534 56.386 45.3232C56.5209 45.7279 56.386 45.9977 56.1162 46.2675L51.9346 49.5049C51.7997 49.6398 51.6647 49.7747 51.395 49.7747Z" fill="#EB6320"/>
<path d="M67.4458 14.2983C63.6688 14.2983 60.7012 11.3307 60.7012 7.55371C60.7012 3.77672 63.6688 0.809082 67.4458 0.809082C71.2228 0.809082 74.1904 3.77672 74.1904 7.55371C74.1904 11.3307 71.2228 14.2983 67.4458 14.2983ZM67.4458 2.56271C64.6131 2.56271 62.3199 4.85586 62.3199 7.68861C62.3199 10.5213 64.6131 12.8145 67.4458 12.8145C70.2785 12.8145 72.5717 10.5213 72.5717 7.68861C72.5717 4.85586 70.2785 2.56271 67.4458 2.56271Z" fill="#EB6320"/>
<path d="M6.74309 74.9998C3.91034 74.9998 1.61719 72.7067 1.61719 69.8739C1.61719 67.0412 3.91034 64.748 6.74309 64.748C9.57583 64.748 11.869 67.0412 11.869 69.8739C11.869 72.7067 9.57583 74.9998 6.74309 74.9998ZM6.74309 66.6365C4.85459 66.6365 3.37077 68.1204 3.37077 70.0088C3.37077 71.8973 4.85459 73.3812 6.74309 73.3812C8.63158 73.3812 10.1154 71.8973 10.1154 70.0088C10.1154 68.1204 8.63158 66.6365 6.74309 66.6365Z" fill="#EB6320"/>
<path d="M6.74413 65.6929C9.0373 65.6929 10.9258 67.5814 10.9258 69.8745C10.9258 72.1677 9.0373 74.0562 6.74413 74.0562C4.45096 74.0562 2.5625 72.1677 2.5625 69.8745C2.5625 67.5814 4.45096 65.6929 6.74413 65.6929Z" fill="white"/>
<path d="M67.4451 1.61914C70.723 1.61914 73.3804 4.27651 73.3804 7.5544C73.3804 10.8323 70.723 13.4897 67.4451 13.4897C64.1672 13.4897 61.5098 10.8323 61.5098 7.5544C61.5098 4.27651 64.1672 1.61914 67.4451 1.61914Z" fill="white"/>
<path d="M21.8516 38.7144C19.9632 38.7144 18.6142 40.1982 18.6142 42.0867C18.6142 43.9752 20.098 45.459 21.9865 45.459H23.6052C26.0333 50.0454 30.8895 53.1479 36.2852 53.1479C44.2438 53.1479 50.7186 46.6731 50.7186 38.7144C52.6071 38.7144 53.956 37.2306 53.956 35.3421C53.956 33.4536 52.4722 31.9698 50.5837 31.9698H48.965C46.5369 27.3835 41.8157 24.281 36.2852 24.281C28.3265 24.4158 21.8516 30.8907 21.8516 38.7144ZM69.4687 33.7234V43.8404L59.7564 44.9195C59.2168 47.0778 58.2726 49.2361 57.1935 51.1245L63.3985 58.6785L56.1143 65.8278L48.5603 59.6228C46.6718 60.7019 44.5136 61.6461 42.3553 62.1857L41.2761 71.898H31.1592L30.0801 62.1857C27.9218 61.6461 25.7635 60.7019 23.875 59.6228L16.321 65.8278L9.17172 58.6785L15.3768 51.1245C14.2977 49.2361 13.3534 47.0778 12.8138 44.9195L3.10156 43.8404V33.7234L12.8138 32.6443C13.3534 30.486 14.2977 28.3277 15.3768 26.4392L9.17172 18.8853L16.321 11.7359L23.875 17.941C25.7635 16.8619 27.9218 15.9176 30.0801 15.378L31.1592 5.66577H41.2761L42.3553 15.378C44.5136 15.9176 46.6718 16.8619 48.5603 17.941L56.1143 11.7359L63.2636 18.8853L57.0585 26.4392C58.1377 28.3277 59.082 30.486 59.6215 32.6443L69.4687 33.7234Z" fill="white"/>
<path d="M72.0324 21.179C72.7069 21.179 73.2464 21.7185 73.2464 22.393C73.2464 23.0674 72.7069 23.607 72.0324 23.607C71.358 23.607 70.8184 23.0674 70.8184 22.393C70.8184 21.7185 71.358 21.179 72.0324 21.179Z" fill="#EB6320"/>
<path d="M69.6046 52.3374C70.2791 52.3374 70.8187 52.877 70.8187 53.5514C70.8187 54.2259 70.2791 54.7655 69.6046 54.7655C68.9301 54.7655 68.3906 54.2259 68.3906 53.5514C68.3906 52.877 68.9301 52.3374 69.6046 52.3374Z" fill="#EB6320"/>
<path d="M52.7433 70.0083C53.4177 70.0083 53.9573 70.5479 53.9573 71.2223C53.9573 71.8968 53.4177 72.4363 52.7433 72.4363C52.0688 72.4363 51.5293 71.8968 51.5293 71.2223C51.5293 70.5479 52.0688 70.0083 52.7433 70.0083Z" fill="#EB6320"/>
<path d="M51.8 3.37207C52.4745 3.37207 53.014 3.91163 53.014 4.58609C53.014 5.26056 52.4745 5.80012 51.8 5.80012C51.1255 5.80012 50.5859 5.26056 50.5859 4.58609C50.5859 3.91163 51.1255 3.37207 51.8 3.37207Z" fill="#EB6320"/>
<path d="M24.0109 70.0083C24.6853 70.0083 25.2249 70.5479 25.2249 71.2223C25.2249 71.8968 24.6853 72.4363 24.0109 72.4363C23.3364 72.4363 22.7969 71.8968 22.7969 71.2223C22.7969 70.5479 23.3364 70.0083 24.0109 70.0083Z" fill="#EB6320"/>
<path d="M21.4484 0C22.1229 0 22.6624 0.539562 22.6624 1.21402C22.6624 1.88849 22.1229 2.42805 21.4484 2.42805C20.774 2.42805 20.2344 1.88849 20.2344 1.21402C20.2344 0.539562 20.774 0 21.4484 0Z" fill="#EB6320"/>
<path d="M3.77648 11.0613C4.45095 11.0613 4.99055 11.6008 4.99055 12.2753C4.99055 12.9498 4.45095 13.4894 3.77648 13.4894C3.10202 13.4894 2.5625 12.9498 2.5625 12.2753C2.5625 11.6008 3.10202 11.0613 3.77648 11.0613Z" fill="#EB6320"/>
<path d="M1.21407 48.9663C1.88853 48.9663 2.42805 49.5059 2.42805 50.1803C2.42805 50.8548 1.88853 51.3944 1.21407 51.3944C0.539603 51.3944 0 50.8548 0 50.1803C0 49.5059 0.539603 48.9663 1.21407 48.9663Z" fill="#EB6320"/>
<path d="M41.277 72.8411H31.1601C30.7554 72.8411 30.3508 72.5713 30.3508 72.0317L29.4065 62.859C27.518 62.3194 25.7644 61.645 24.0108 60.5658L16.8615 66.5011C16.5917 66.7709 16.0522 66.7709 15.7824 66.5011L8.63311 59.3518C8.36332 59.082 8.36332 58.5424 8.63311 58.2727L14.4335 51.1234C13.4892 49.3698 12.6798 47.6162 12.1403 45.7277L2.96761 44.7834C2.56293 44.7834 2.1582 44.3787 2.1582 43.974V33.8571C2.1582 33.4524 2.42804 33.0478 2.96761 33.0478L12.1403 32.1035C12.6798 30.215 13.3543 28.4614 14.4335 26.7078L8.63311 19.5585C8.36332 19.2888 8.36332 18.7492 8.63311 18.4794L15.7824 11.3301C16.0522 11.0603 16.5917 11.0603 16.8615 11.3301L24.0108 17.1304C25.7644 16.1862 27.518 15.3769 29.4065 14.8373L30.3508 5.66459C30.3508 5.25991 30.7554 4.85522 31.1601 4.85522H41.277C41.6817 4.85522 42.0864 5.12502 42.0864 5.66459L43.0307 14.8373C44.9192 15.3769 46.6728 16.0513 48.4264 17.1304L55.5757 11.3301C55.8454 11.0603 56.385 11.0603 56.6548 11.3301L63.8041 18.4794C64.0738 18.7492 64.0738 19.2888 63.8041 19.5585L58.0037 26.7078C58.948 28.4614 59.7573 30.215 60.2969 32.1035L69.4696 33.0478C69.8742 33.0478 70.2789 33.4524 70.2789 33.8571V43.974C70.2789 44.3787 70.0091 44.7834 69.4696 44.7834L60.4318 45.5928C59.8922 47.4813 59.2177 49.2349 58.1386 50.9885L63.939 58.1378C64.2088 58.4075 64.2088 58.9471 63.939 59.2169L56.7896 66.3662C56.5199 66.636 55.9803 66.636 55.7105 66.3662L48.5612 60.5658C46.8076 61.5101 45.054 62.3194 43.1655 62.859L42.2213 72.0317C42.0864 72.4364 41.8166 72.8411 41.277 72.8411ZM31.9695 71.0874H40.6025L41.5468 62.1845C41.5468 61.7799 41.8166 61.5101 42.2213 61.5101C44.2447 60.9705 46.268 60.1612 48.2914 59.082C48.5612 58.9471 48.9659 58.9471 49.2357 59.2169L56.2501 64.8824L62.3203 58.8122L56.6548 51.7978C56.385 51.528 56.385 51.1234 56.5199 50.8536C57.5991 48.9651 58.5433 46.9417 58.948 44.7834C59.0829 44.3787 59.3526 44.2438 59.6224 44.1089L68.5253 43.1647V34.5316L59.6224 33.4524C59.2178 33.4524 58.948 33.1827 58.948 32.778C58.4084 30.6197 57.5991 28.5963 56.5199 26.7078C56.385 26.438 56.385 26.0333 56.6548 25.7636L62.3203 18.7492L56.2501 12.679L49.2357 18.3445C48.9659 18.6143 48.5612 18.6143 48.2914 18.4794C46.4029 17.4002 44.3796 16.456 42.2213 16.0513C41.8166 15.9164 41.6817 15.6466 41.5468 15.3769L40.6025 6.47395H31.9695L31.0252 15.3769C31.0252 15.7815 30.7554 16.0513 30.3508 16.0513C28.1925 16.5909 26.1691 17.4002 24.2806 18.6143C24.0108 18.7492 23.6061 18.7492 23.3363 18.4794L16.3219 12.8139L10.2517 18.8841L15.9172 25.8985C16.187 26.1682 16.1871 26.5729 16.0522 26.8427C14.9731 28.7312 14.0287 30.7546 13.6241 32.9129C13.4892 33.1827 13.2194 33.4524 12.8147 33.4524L3.91187 34.3967V43.0298L12.8147 43.974C13.2194 43.974 13.4892 44.2438 13.4892 44.6485C14.0288 46.6719 14.8381 48.6953 15.9172 50.7187C16.0521 50.9885 16.0522 51.3932 15.7824 51.6629L10.1169 58.6774L16.187 64.7475L23.2015 59.082C23.4713 58.8122 23.876 58.8122 24.1457 58.9471C26.0342 60.0263 28.0576 60.9705 30.2159 61.3752C30.6206 61.5101 30.7555 61.7799 30.8904 62.0497L31.9695 71.0874Z" fill="#EB6320"/>
<path d="M21.8524 39.6581C21.4477 39.6581 21.043 39.2534 21.043 38.8487C21.043 36.4206 21.7175 33.8577 22.7966 31.6994C23.0664 31.2947 23.4711 31.1598 23.8758 31.2947C24.2804 31.5645 24.4153 31.9692 24.2804 32.3739C23.2013 34.2624 22.6617 36.5555 22.6617 38.7138C22.6617 39.2534 22.257 39.6581 21.8524 39.6581Z" fill="#EB6320"/>
<path d="M48.9659 32.9151C48.6962 32.9151 48.4264 32.7802 48.1566 32.5104C45.7286 28.059 41.1422 25.3612 36.1512 25.3612C31.1601 25.3612 26.5738 28.059 24.1458 32.5104C23.876 32.9151 23.4713 33.05 23.0666 32.9151C22.6619 32.6454 22.527 32.2407 22.6619 31.836C25.3598 26.845 30.4857 23.7424 36.1512 23.7424C41.8166 23.7424 46.9426 26.845 49.6404 31.836C49.9102 32.2407 49.6404 32.7803 49.2358 32.9151C49.2358 32.7803 49.1008 32.9151 48.9659 32.9151Z" fill="#EB6320"/>
<path d="M36.2853 53.9572C30.6199 53.9572 25.4939 50.8547 22.7961 45.8636C22.5263 45.459 22.7961 44.9194 23.2008 44.7845C23.6054 44.6496 24.145 44.7845 24.2799 45.1892C26.7079 49.6406 31.2943 52.3385 36.2853 52.3385C41.2764 52.3385 45.8627 49.6406 48.2907 45.1892C48.5605 44.7845 48.9652 44.6496 49.3698 44.7845C49.7745 45.0543 49.9095 45.459 49.7746 45.8636C47.0767 50.8547 41.9508 53.9572 36.2853 53.9572Z" fill="#EB6320"/>
<path d="M48.9654 46.4027C48.8305 46.4027 48.6956 46.4026 48.5607 46.2678C48.156 45.998 48.0212 45.5933 48.1561 45.1886C49.2352 43.3001 49.7748 41.0069 49.7748 38.8487C49.7748 38.444 50.1794 38.0393 50.5841 38.0393C50.9888 38.0393 51.3934 38.444 51.3934 38.8487C51.3934 41.2767 50.719 43.8397 49.6398 45.998C49.5049 46.1328 49.2352 46.4027 48.9654 46.4027Z" fill="#EB6320"/>
<path d="M51.395 49.7747C51.1252 49.7747 50.8554 49.6398 50.7205 49.5049C50.4507 49.1002 50.4508 48.5606 50.8554 48.2908L53.1486 46.4024H21.9884C20.9093 46.4024 19.8301 45.9977 19.0208 45.1883C18.2114 44.379 17.8068 43.2998 17.8068 42.2207C17.8068 39.9275 19.6953 38.039 21.8536 38.039H50.5856C51.2601 38.039 51.7997 37.7692 52.3392 37.3645C52.8788 36.825 53.0137 36.2854 53.0137 35.611C53.0137 34.262 51.9346 33.048 50.4508 33.048H17.6718C17.2672 33.048 16.9974 32.7782 16.8625 32.5084C16.7276 32.2386 16.8625 31.834 16.9974 31.5642L21.1791 27.3825C21.4489 27.1127 21.9884 27.1127 22.3931 27.3825C22.6629 27.6523 22.6629 28.1919 22.3931 28.5965L19.5604 31.4293H50.5856C52.8788 31.4293 54.7673 33.3178 54.7673 35.611C54.7673 36.6901 54.3626 37.7692 53.5533 38.5786C52.7439 39.3879 51.7996 39.7926 50.7205 39.7926H21.8536C20.5046 39.7926 19.4255 41.0067 19.4255 42.3556C19.4255 43.03 19.6953 43.7045 20.1 44.1092C20.6395 44.6487 21.1791 44.7836 21.8536 44.7836H55.5767C55.9814 44.7836 56.2511 45.0534 56.386 45.3232C56.5209 45.7279 56.386 45.9977 56.1162 46.2675L51.9346 49.5049C51.7997 49.6398 51.6647 49.7747 51.395 49.7747Z" fill="#EB6320"/>
<path d="M67.4458 14.2983C63.6688 14.2983 60.7012 11.3307 60.7012 7.55371C60.7012 3.77672 63.6688 0.809082 67.4458 0.809082C71.2228 0.809082 74.1904 3.77672 74.1904 7.55371C74.1904 11.3307 71.2228 14.2983 67.4458 14.2983ZM67.4458 2.56271C64.6131 2.56271 62.3199 4.85586 62.3199 7.68861C62.3199 10.5213 64.6131 12.8145 67.4458 12.8145C70.2785 12.8145 72.5717 10.5213 72.5717 7.68861C72.5717 4.85586 70.2785 2.56271 67.4458 2.56271Z" fill="#EB6320"/>
<path d="M6.74309 74.9998C3.91034 74.9998 1.61719 72.7067 1.61719 69.8739C1.61719 67.0412 3.91034 64.748 6.74309 64.748C9.57583 64.748 11.869 67.0412 11.869 69.8739C11.869 72.7067 9.57583 74.9998 6.74309 74.9998ZM6.74309 66.6365C4.85459 66.6365 3.37077 68.1204 3.37077 70.0088C3.37077 71.8973 4.85459 73.3812 6.74309 73.3812C8.63158 73.3812 10.1154 71.8973 10.1154 70.0088C10.1154 68.1204 8.63158 66.6365 6.74309 66.6365Z" fill="#EB6320"/>
</svg>
