<svg width="367" height="110" viewBox="0 0 367 110" fill="none" xmlns="http://www.w3.org/2000/svg">
<path d="M82.0068 85.085L75.4515 76.5575L72.4452 78.2069L75.1393 84.3667C73.0447 85.4575 70.0313 86.7842 66.4184 87.6728C61.9826 88.7653 58.1906 88.9285 56.3247 88.9285C56.197 88.9285 56.0747 88.9285 55.9594 88.9267L55.727 84.576L45.1988 87.5504C43.2407 86.8977 40.4029 85.7767 37.48 84.0333C36.2846 83.3185 35.098 82.5275 33.9434 81.6744L35.8518 76.671L28.2785 76.451L25.9071 72.9854L23.9561 69.3229C23.4737 68.2906 23.0073 67.1821 22.5922 66.0754L21.5777 62.9201L25.5772 57.9983L20.6554 56.3949C20.4266 53.8675 20.4355 51.3649 20.682 48.9457C21.0669 45.1431 21.9058 41.9913 22.578 39.9357L36.5648 28.5668L35.3463 26.8251L23.7699 33.7209L26.159 28.2529L42.7494 17.2688L41.7349 15.403L32.7125 19.3333L34.2715 14.6971L47.8149 7.52276L56.3744 8.18254L51.2061 3.32282L66.7412 4.02163L75.8222 8.51776L73.6938 3.26074L86.6803 11.1232L89.9455 20.1527L93.3207 22.6571L99.3652 26.5945L101.515 31.2733L105.747 35.3669L111.64 40.5192L119.336 46.6276L118.419 50.0117L117.474 51.4093L117.431 51.5104C117.431 51.5104 117.073 52.3848 115.952 55.2332C115.227 57.0724 114.893 57.6968 114.79 57.8706L114.608 58.0196L113.439 57.938L111.531 62.1574L111.479 62.2124L111.036 59.6034L109.494 57.7074L101.385 61.0915L97.8452 73.1539L98.8491 75.3159L100.93 75.9048L105.337 75.19L106.825 74.3156L107.726 72.5721L107.981 73.9999L107.733 75.958L108.906 78.1289L102.9 90.4928L88.7129 99.9498L82.0068 85.085Z" fill="#FEFEFE"/>
<path d="M150.176 93.8509V86.0186H155.442V87.6219H152.001V89.094H155.254V90.6087H152.001V92.2351H155.642V93.8509H150.176Z" fill="#2B2A29"/>
<path d="M165.824 93.8509L162.671 88.7269H162.637L162.681 93.8509H160.846V86.0186H163.002L166.145 91.1301H166.177L166.133 86.0186H167.97V93.8509H165.824Z" fill="#2B2A29"/>
<path d="M177.486 94.0482C174.986 94.0482 173.184 92.3898 173.184 89.9227C173.184 87.4113 175.042 85.8062 177.431 85.8062C178.661 85.8062 179.799 86.2159 180.452 86.8455L179.258 88.2059C178.893 87.7873 178.261 87.4769 177.499 87.4769C176.17 87.4769 175.197 88.518 175.197 89.9227C175.197 91.3594 176.048 92.3898 177.586 92.3898C178.029 92.3898 178.439 92.3224 178.771 92.1788V90.751H177.277V89.2239H180.507V93.3742C179.744 93.7715 178.692 94.0482 177.486 94.0482Z" fill="#2B2A29"/>
<path d="M186.014 86.0186H187.915V93.8509H186.014V86.0186Z" fill="#2B2A29"/>
<path d="M198.473 93.8509L195.319 88.7269H195.286L195.33 93.8509H193.494V86.0186H195.651L198.794 91.1301H198.826L198.781 86.0186H200.619V93.8509H198.473Z" fill="#2B2A29"/>
<path d="M206.193 93.8509V86.0186H211.459V87.6219H208.018V89.094H211.271V90.6087H208.018V92.2351H211.658V93.8509H206.193Z" fill="#2B2A29"/>
<path d="M216.863 93.8509V86.0186H222.127V87.6219H218.688V89.094H221.939V90.6087H218.688V92.2351H222.328V93.8509H216.863Z" fill="#2B2A29"/>
<path d="M230.399 87.5439H229.391V89.3707H230.289C230.897 89.3707 231.66 89.2146 231.66 88.4183C231.66 87.6875 230.963 87.5439 230.399 87.5439ZM231.738 93.8509L230.046 90.7417H229.404V93.8509H227.545V86.0186H230.532C232.037 86.0186 233.529 86.5932 233.529 88.3846C233.529 89.4363 232.91 90.1883 231.904 90.4987L233.951 93.8509H231.738Z" fill="#2B2A29"/>
<path d="M238.834 86.0186H240.735V93.8509H238.834V86.0186Z" fill="#2B2A29"/>
<path d="M251.295 93.8509L248.141 88.7269H248.11L248.152 93.8509H246.316V86.0186H248.473L251.616 91.1301H251.65L251.604 86.0186H253.441V93.8509H251.295Z" fill="#2B2A29"/>
<path d="M262.949 94.0482C260.448 94.0482 258.645 92.3898 258.645 89.9227C258.645 87.4113 260.503 85.8062 262.892 85.8062C264.121 85.8062 265.26 86.2159 265.913 86.8455L264.719 88.2059C264.354 87.7873 263.722 87.4769 262.96 87.4769C261.631 87.4769 260.658 88.518 260.658 89.9227C260.658 91.3594 261.511 92.3898 263.048 92.3898C263.492 92.3898 263.9 92.3224 264.231 92.1788V90.751H262.738V89.2239H265.97V93.3742C265.205 93.7715 264.155 94.0482 262.949 94.0482Z" fill="#2B2A29"/>
<path d="M288.778 94.0588C286.366 94.0588 284.562 92.3774 284.562 89.9209C284.562 87.4113 286.421 85.8062 288.81 85.8062C289.906 85.8062 291.089 86.2052 291.742 86.9572L290.46 88.2396C290.105 87.7536 289.475 87.5212 288.878 87.5212C287.56 87.5212 286.62 88.5393 286.62 89.9209C286.62 91.3487 287.539 92.3224 288.844 92.3224C289.585 92.3224 290.172 91.9908 290.504 91.5261L291.82 92.7641C291.136 93.5622 290.094 94.0588 288.778 94.0588Z" fill="#2B2A29"/>
<path d="M300.35 87.5088C299.022 87.5088 298.114 88.5287 298.114 89.8997C298.114 91.3168 299.032 92.3331 300.35 92.3331C301.666 92.3331 302.595 91.3168 302.595 89.8997C302.595 88.5287 301.677 87.5088 300.35 87.5088ZM300.35 94.0588C297.904 94.0588 296.09 92.3774 296.09 89.8997C296.09 87.3882 297.904 85.8062 300.35 85.8062C302.805 85.8062 304.621 87.3882 304.621 89.8997C304.621 92.3774 302.805 94.0588 300.35 94.0588Z" fill="#2B2A29"/>
<path d="M316.934 93.8509L316.978 88.3083H316.944L314.91 93.8509H313.581L311.602 88.3083H311.567L311.613 93.8509H309.832V86.0186H312.519L314.302 91.0397H314.346L316.049 86.0186H318.782V93.8509H316.934Z" fill="#2B2A29"/>
<path d="M327.078 87.5439H326.248V89.392H327.044C327.752 89.392 328.405 89.1827 328.405 88.4395C328.405 87.6875 327.752 87.5439 327.078 87.5439ZM327.188 90.896H326.248V93.8509H324.357V86.0186H327.232C328.948 86.0186 330.297 86.6375 330.297 88.4289C330.297 90.2433 328.825 90.896 327.188 90.896Z" fill="#2B2A29"/>
<path d="M337.939 88.1097L336.944 90.7967H338.913L337.939 88.1097ZM340.043 93.8509L339.433 92.3131H336.401L335.827 93.8509H333.768L337.054 86.0186H338.892L342.143 93.8509H340.043Z" fill="#2B2A29"/>
<path d="M351.732 93.8509L348.579 88.7269H348.547L348.59 93.8509H346.754V86.0186H348.911L352.053 91.1301H352.087L352.041 86.0186H353.879V93.8509H351.732Z" fill="#2B2A29"/>
<path d="M363.261 90.5307V93.8509H361.368V90.5307L358.426 86.0186H360.716L362.386 88.9167L364.057 86.0186H366.269L363.261 90.5307Z" fill="#2B2A29"/>
<path d="M189.797 37.9132C187.464 36.7479 185.634 36.5244 178.476 36.5244H150.176V73.5363H161.385V64.4359V55.4472V45.5149H177.756C182.582 45.5149 183.692 46.5134 183.692 50.9528C183.692 54.4486 182.36 55.4472 177.756 55.4472H165.787L169.773 64.4359H179.476C185.912 64.4359 188.41 64.0475 190.574 62.7155C193.626 60.8301 194.901 57.1676 194.901 50.1192C194.901 43.1276 193.514 39.7435 189.797 37.9132Z" fill="#2B2A29"/>
<path d="M246.279 48.5105C246.279 42.7392 244.78 39.3551 241.563 37.8564C239.399 36.8579 236.902 36.5244 231.574 36.5244H199.668V73.5363H210.877V64.2142V55.1687V45.6249H210.925H228.855C232.241 45.6249 233.184 45.7916 234.016 46.6802C234.736 47.457 234.958 48.4556 234.958 50.8411C234.958 54.5036 233.904 55.1687 228.466 55.1687H215.155L219.165 64.2142H228.133C231.185 64.2142 232.074 64.3259 232.961 64.9361C233.961 65.6579 234.349 66.8232 234.349 68.9303V73.5363H245.779V67.71C245.779 64.5476 245.335 62.8822 244.227 61.607C243.116 60.275 241.673 59.8298 237.788 59.6081C237.512 59.6081 236.79 59.5531 235.958 59.4981C240.951 58.7763 242.671 58.2211 243.948 56.8891C245.557 55.1687 246.279 52.5065 246.279 48.5105Z" fill="#2B2A29"/>
<path d="M252.375 73.5363H263.641V36.5244H252.375V73.5363Z" fill="#2B2A29"/>
<path d="M345.199 65.1582L348.913 73.5368H366.401V65.1582H345.199Z" fill="#2B2A29"/>
<path d="M316.137 39.9652C313.585 37.413 309.923 36.5244 302.099 36.5244H270.137V73.5363H281.401V64.7144V45.7366H281.5H300.49C306.982 45.7366 308.314 47.3453 308.314 55.1137C308.314 61.4952 307.594 63.4373 304.873 64.2692C303.541 64.7143 303.319 64.7144 300.269 64.7144H289.913L293.822 73.5363H303.596C307.537 73.5363 309.202 73.4246 311.31 72.9812C315.36 72.2044 318.468 68.7635 319.078 64.3259C319.411 62.2171 319.633 58.3878 319.633 55.0588C319.633 53.2834 319.523 50.7311 319.411 49.0107C319.023 44.2929 318.191 41.9623 316.137 39.9652Z" fill="#2B2A29"/>
<path d="M336.498 65.1578V58.6096V51.2845V44.9048H366.406V36.5244H325.398V73.5363H336.498V65.1578Z" fill="#2B2A29"/>
<path d="M338.723 50.5347L342.708 59.5234H366.405V50.5347H338.723Z" fill="#EB6320"/>
<path d="M78.5182 89.4029C72.1474 93.3812 64.6255 95.6869 56.559 95.6869C33.6208 95.6869 15.0261 77.0905 15.0261 54.1522C15.0261 47.3841 16.6543 40.999 19.5276 35.3536L23.6832 25.8541L27.798 23.1227L31.0437 12.2575L46.1177 4.58836L40.4457 0L25.6767 6.31941L25.9445 19.7085L24.1319 14.4231L13.6321 25.6554L5.97356 26.4713L0 41.3839L9.6556 50.6564L4.63802 48.2053L5.16301 63.5701L0.315705 69.5614L6.63512 84.3233L20.0242 84.0555L14.7388 85.8681L25.9711 96.368L26.787 104.026L41.6979 110H41.6996L50.9721 100.344L48.521 105.362L63.8859 104.837L69.8772 109.683L84.639 103.365V103.358L78.5182 89.4029Z" fill="#EB6320"/>
<path d="M92.0721 35.529L93.1966 36.5985L95.4633 37.464L97.5278 38.4413L97.7122 38.773L97.565 39.0124L94.8195 39.2891L93.4555 39.0674L87.262 34.4595L86.9676 34.0551L90.0644 33.7607L93.8972 34.1651L94.7627 34.7735L95.1139 35.8057L95.0021 35.9352L93.436 35.2896L92.5333 35.0306L91.8522 35.1973L92.0721 35.529ZM118.336 46.5503L111.341 47.4282L110.431 45.9952L109.847 46.0945L110.52 50.6367L116.371 52.0929L114.595 55.9789L111.043 55.5443L97.3504 60.2161L91.1693 74.1762L97.5367 80.0079L106.318 77.6277L107.222 78.4666L101.994 88.9895L101.526 86.2067L98.9112 90.4634L93.4484 94.619L93.4821 89.793L89.1598 95.6903L87.7516 89.7256L84.9457 80.0487L79.1389 75.2493L65.7019 67.3407L66.406 56.8852L67.4117 44.7536L67.5784 64.6927L85.9088 72.6687L93.1469 58.2261L84.5023 57.8234L100.252 52.194L100.016 51.5235L82.9592 53.7352L86.7122 50.5179L93.2817 49.6807L101.962 49.7464L102.095 49.1096L92.7443 46.8323L98.6097 44.5195L109.353 43.8704L109.418 43.5919L93.1806 28.9365L92.0402 29.0713L88.6898 29.1369L88.7909 28.7697L91.3715 27.3952L88.7909 26.4232L86.0436 25.6198L86.0045 25.2491H93.6063L98.5778 28.8336L99.007 30.8892L105.795 36.673L118.701 45.9952L118.336 46.5503ZM59.9607 30.5487L53.6076 27.8563L48.982 32.4819L48.5722 41.029L46.1122 31.3983L51.9084 24.8695L61.5995 28.2075L59.9607 30.5487ZM46.0271 84.8641L52.9797 53.4373L54.5352 82.3509L46.0271 84.8641ZM35.5255 74.531L29.3834 74.6977L45.6954 47.8876L35.5255 74.531ZM25.5027 56.3939L22.0122 55.085L39.5569 39.0993L25.5027 56.3939ZM112.338 39.7165L106.485 34.5996L102.396 30.6462L100.201 25.8681L93.9522 21.7994L90.8341 19.4866L87.5511 10.4057L71.4999 0.687988L73.7772 6.31746L67.009 2.96532L48.3771 2.12817L53.4373 6.8868L47.5843 6.4363L33.3936 13.9529L30.9336 21.2673L42.1588 16.3792L25.3041 27.5371L21.4606 36.3342L35.8873 27.7393L21.6646 39.3015H21.6611C20.9676 41.3642 20.0347 44.7235 19.6179 48.8365C19.2897 52.0698 19.4228 54.9874 19.6586 57.1938L23.7664 58.5293L20.3823 62.6938L21.5901 66.4468C21.9803 67.4897 22.4503 68.6248 23.0126 69.822L24.9902 73.536L27.6754 77.4645C27.6861 77.477 27.6949 77.4894 27.7038 77.5L34.3176 77.6916L32.6575 82.0423C33.8866 82.9858 35.3126 83.9808 36.9302 84.9474C40.0181 86.7902 42.9995 87.9591 45.1722 88.665H45.174L54.7303 85.9637L54.9449 89.9597V89.9632C56.1811 90.0253 60.8723 90.1353 66.6703 88.7075C71.0423 87.6292 74.5576 85.9194 76.505 84.8392L73.8091 78.6724L75.1606 77.931L81.0827 85.6356L88.2553 101.533L103.728 91.219L110.099 78.103L108.831 75.7512L109.056 73.9723L108.526 71.0015L107.964 70.1625L107.357 70.0703L107.052 71.5495L106.016 73.5519L104.965 74.1674L100.988 74.813L99.6065 74.4228L98.9786 73.0677L102.263 61.8779L109.166 58.9958L110.028 60.0582L110.708 64.056L111.174 64.0914L112.426 62.7577L114.101 59.0508L114.947 59.1111L115.558 58.618C115.558 58.618 115.823 58.4602 116.94 55.6224C118.057 52.7846 118.414 51.9137 118.414 51.9137L119.398 50.4629L120.546 46.2275L112.338 39.7165Z" fill="#2B2A29"/>
<path d="M78.5182 89.4029C72.1474 93.3812 64.6255 95.6869 56.559 95.6869C33.6208 95.6869 15.0261 77.0905 15.0261 54.1522C15.0261 47.3841 16.6543 40.999 19.5276 35.3536L23.6832 25.8541L27.798 23.1227L31.0437 12.2575L46.1177 4.58836L40.4457 0L25.6767 6.31941L25.9445 19.7085L24.1319 14.4231L13.6321 25.6554L5.97356 26.4713L0 41.3839L9.6556 50.6564L4.63802 48.2053L5.16301 63.5701L0.315705 69.5614L6.63512 84.3233L20.0242 84.0555L14.7388 85.8681L25.9711 96.368L26.787 104.026L41.6979 110H41.6996L50.9721 100.344L48.521 105.362L63.8859 104.837L69.8772 109.683L84.639 103.365V103.358L78.5182 89.4029Z" fill="#EB6320"/>
</svg>
