<svg width="86" height="110" viewBox="0 0 86 110" fill="none" xmlns="http://www.w3.org/2000/svg">
<path d="M79.5362 89.4029C73.0828 93.3812 65.4633 95.6869 57.2923 95.6869C34.0567 95.6869 15.2209 77.0905 15.2209 54.1522C15.2209 47.3841 16.8702 40.999 19.7807 35.3536L23.9902 25.8541L28.1584 23.1227L31.4462 12.2575L46.7156 4.58836L40.97 0L26.0096 6.31941L26.2809 19.7085L24.4448 14.4231L13.8088 25.6554L6.051 26.4713L0 41.3839L9.78078 50.6564L4.69815 48.2053L5.22995 63.5701L0.319798 69.5614L6.72114 84.3233L20.2838 84.0555L14.9299 85.8681L26.3079 96.368L27.1343 104.026L42.2385 110H42.2403L51.633 100.344L49.15 105.362L64.7141 104.837L70.7831 109.683L85.7363 103.365V103.358L79.5362 89.4029Z" fill="#EB6320"/>
</svg>
