<svg width="20" height="19" viewBox="0 0 20 19" fill="none" xmlns="http://www.w3.org/2000/svg">
<path d="M12.0306 17.3342C12.8354 17.8534 13.7945 18.0797 14.7466 17.975C15.6987 17.8703 16.5857 17.4409 17.2584 16.7591L17.8466 16.1841C18.1044 15.9203 18.2488 15.5661 18.2488 15.1973C18.2488 14.8285 18.1044 14.4743 17.8466 14.2105L15.3503 11.7404C15.0887 11.4833 14.7367 11.3393 14.37 11.3393C14.0034 11.3393 13.6513 11.4833 13.3898 11.7404V11.7404C13.1261 11.9982 12.7719 12.1426 12.403 12.1426C12.0342 12.1426 11.68 11.9982 11.4163 11.7404L7.49537 7.81944C7.36457 7.69055 7.2607 7.53693 7.18981 7.36753C7.11891 7.19813 7.0824 7.01632 7.0824 6.83268C7.0824 6.64904 7.11891 6.46724 7.18981 6.29783C7.2607 6.12843 7.36457 5.97482 7.49537 5.84592V5.84592C7.75239 5.58439 7.89641 5.23237 7.89641 4.86569C7.89641 4.499 7.75239 4.14699 7.49537 3.88546L5.01212 1.40222C4.74839 1.14437 4.3942 1 4.02536 1C3.65652 1 3.30234 1.14437 3.0386 1.40222L2.46353 1.99035C1.78174 2.66311 1.35239 3.5501 1.24766 4.50218C1.14293 5.45426 1.36922 6.41337 1.88846 7.21824C4.59395 11.2055 8.03637 14.639 12.0306 17.3342V17.3342Z" stroke="white" stroke-width="2" stroke-linecap="round" stroke-linejoin="round"/>
</svg>
