<svg width="30" height="29" viewBox="0 0 30 29" fill="none" xmlns="http://www.w3.org/2000/svg">
<path d="M15 28.9165C22.9617 28.9165 29.416 22.4622 29.416 14.5005C29.416 6.53874 22.9617 0.0844727 15 0.0844727C7.03825 0.0844727 0.583984 6.53874 0.583984 14.5005C0.583984 22.4622 7.03825 28.9165 15 28.9165Z" fill="white"/>
<path d="M14.984 0.0844727C12.1359 0.0844727 9.35185 0.929018 6.98378 2.51131C4.61571 4.0936 2.77003 6.34258 1.68013 8.97383C0.590224 11.6051 0.305056 14.5004 0.860683 17.2938C1.41631 20.0871 2.78778 22.6529 4.80165 24.6668C6.81553 26.6807 9.38136 28.0522 12.1747 28.6078C14.968 29.1634 17.8634 28.8782 20.4946 27.7883C23.1259 26.6984 25.3749 24.8528 26.9572 22.4847C28.5394 20.1166 29.384 17.3325 29.384 14.4845C29.384 10.6654 27.8669 7.00266 25.1663 4.30213C22.4658 1.60161 18.8031 0.0844727 14.984 0.0844727ZM21.752 10.4205L14.648 20.2765C14.4364 20.5621 14.1276 20.7605 13.7798 20.8342C13.432 20.9079 13.0693 20.8518 12.76 20.6765L8.67999 18.2925C8.349 18.093 8.1108 17.7703 8.01778 17.3952C7.92476 17.0201 7.98455 16.6235 8.18399 16.2925C8.38343 15.9615 8.70619 15.7233 9.08127 15.6303C9.45634 15.5372 9.853 15.597 10.184 15.7965L13.08 17.5245L19.48 8.74047C19.7175 8.50251 20.0308 8.35517 20.3656 8.32399C20.7004 8.2928 21.0355 8.37974 21.3129 8.56974C21.5903 8.75973 21.7924 9.0408 21.8843 9.36422C21.9762 9.68763 21.952 10.033 21.816 10.3405L21.752 10.4205Z" fill="#8E8E8E"/>
</svg>
