<svg width="22" height="25" viewBox="0 0 22 25" fill="none" xmlns="http://www.w3.org/2000/svg">
<path d="M18.4819 6.24992L12.732 0.5H0V24.3211H18.4819V6.24992Z" fill="#CECECE"/>
<path d="M4.10797 9.94739H14.3757C14.6024 9.94739 14.7864 9.76381 14.7864 9.53669C14.7864 9.30956 14.6024 9.12598 14.3757 9.12598H4.10797C3.88126 9.12598 3.69727 9.30956 3.69727 9.53669C3.69727 9.76381 3.88126 9.94739 4.10797 9.94739Z" fill="#8F8F8F"/>
<path d="M4.10797 6.66028H8.21506C8.44177 6.66028 8.62577 6.4767 8.62577 6.24958C8.62577 6.02245 8.44177 5.83887 8.21506 5.83887H4.10797C3.88126 5.83887 3.69727 6.02245 3.69727 6.24958C3.69727 6.4767 3.88126 6.66028 4.10797 6.66028Z" fill="#8F8F8F"/>
<path d="M14.3757 12.4111H4.10797C3.88126 12.4111 3.69727 12.5947 3.69727 12.8218C3.69727 13.049 3.88126 13.2325 4.10797 13.2325H14.3757C14.6024 13.2325 14.7864 13.049 14.7864 12.8218C14.7864 12.5947 14.6024 12.4111 14.3757 12.4111Z" fill="#8F8F8F"/>
<path d="M14.3757 15.6953H4.10797C3.88126 15.6953 3.69727 15.8789 3.69727 16.106C3.69727 16.3331 3.88126 16.5167 4.10797 16.5167H14.3757C14.6024 16.5167 14.7864 16.3331 14.7864 16.106C14.7864 15.8789 14.6024 15.6953 14.3757 15.6953Z" fill="#8F8F8F"/>
<path d="M14.3757 18.9824H4.10797C3.88126 18.9824 3.69727 19.166 3.69727 19.3931C3.69727 19.6203 3.88126 19.8038 4.10797 19.8038H14.3757C14.6024 19.8038 14.7864 19.6203 14.7864 19.3931C14.7864 19.166 14.6024 18.9824 14.3757 18.9824Z" fill="#8F8F8F"/>
<path d="M12.7324 0.5V6.24992H18.4823L12.7324 0.5Z" fill="#8F8F8F"/>
<path d="M11.1567 19.2494C11.1567 22.1492 13.5074 24.4999 16.4072 24.4999C19.3069 24.4999 21.6576 22.1492 21.6576 19.2494C21.6576 16.3497 19.3069 13.999 16.4072 13.999C13.5074 13.999 11.1567 16.3497 11.1567 19.2494Z" fill="#EB6320"/>
<path d="M16.8843 16.8633H15.9297V24.5003H16.8843V16.8633Z" fill="white"/>
<path d="M18.9323 20.0642L16.4059 17.5378L13.8795 20.0642L13.2046 19.3893L16.4059 16.188L19.6072 19.3893L18.9323 20.0642Z" fill="white"/>
</svg>
