<svg width="20" height="19" viewBox="0 0 20 19" fill="none" xmlns="http://www.w3.org/2000/svg">
<path d="M13.7163 9.4998C13.7162 10.2729 13.4877 11.0287 13.0594 11.6724C12.6311 12.3161 12.0223 12.8188 11.3092 13.1176C10.5962 13.4163 9.81074 13.4978 9.05158 13.3516C8.29241 13.2055 7.59335 12.8383 7.04218 12.2961C6.49102 11.754 6.11232 11.0611 5.95364 10.3045C5.79496 9.54781 5.86338 8.76114 6.15031 8.04326C6.43724 7.32537 6.92988 6.70826 7.56637 6.26942C8.20286 5.83059 8.95482 5.5896 9.72782 5.57672C10.2485 5.56804 10.7657 5.6631 11.2492 5.85637C11.7328 6.04963 12.173 6.33723 12.5442 6.70239C12.9155 7.06755 13.2103 7.50296 13.4115 7.98325C13.6128 8.46353 13.7164 8.97907 13.7163 9.4998V9.4998Z" stroke="white" stroke-width="2" stroke-linecap="round" stroke-linejoin="round"/>
<path d="M13.7113 9.50002V11.2C13.7113 15.7639 20.8644 11.4616 17.1113 5.26309C16.3555 3.97245 15.2769 2.90072 13.9815 2.15326C12.6861 1.4058 11.2184 1.00836 9.72279 1C8.46631 1.00388 7.22632 1.28627 6.09207 1.82685C4.95782 2.36743 3.95752 3.15275 3.16317 4.12628C2.36882 5.09981 1.80019 6.23734 1.49819 7.457C1.19619 8.67665 1.16835 9.94808 1.41666 11.1798C1.66497 12.4115 2.18326 13.5728 2.93423 14.5802C3.68519 15.5876 4.65015 16.4159 5.75965 17.0057C6.86915 17.5954 8.09559 17.9318 9.35069 17.9907C10.6058 18.0495 11.8583 17.8294 13.0182 17.3462" stroke="white" stroke-width="2" stroke-linecap="round" stroke-linejoin="round"/>
</svg>
