<svg width="37" height="38" viewBox="0 0 37 38" fill="none" xmlns="http://www.w3.org/2000/svg">
<path d="M18.378 26.4366L18.3778 26.4364C18.1069 26.272 17.8013 26.0725 17.4695 25.8491C16.5278 25.2123 15.5865 24.5087 14.7163 23.7113C12.1451 21.3536 10.6743 18.8531 10.6743 16.2719C10.6743 13.8942 12.6015 11.9673 14.9789 11.9673C16.401 11.9673 17.7217 12.6847 18.5352 13.7843L18.9287 14.3162L19.333 13.7925C20.1774 12.6988 21.5101 11.9673 22.8409 11.9673C25.2184 11.9673 27.1455 13.8942 27.1455 16.2719C27.1455 18.8531 25.6747 21.3536 23.1036 23.7113C22.2334 24.5086 21.2922 25.2122 20.3504 25.849C20.0186 26.0725 19.713 26.272 19.4421 26.4364L19.4419 26.4366C19.3411 26.4978 19.2724 26.5412 19.2211 26.5736C19.1696 26.6061 19.1357 26.6275 19.1046 26.6448L19.1036 26.6453C18.991 26.708 18.8289 26.708 18.7162 26.6453L18.7153 26.6448C18.6841 26.6275 18.6502 26.6061 18.5988 26.5736C18.5475 26.5412 18.4788 26.4978 18.378 26.4366Z" stroke="#EB6320"/>
</svg>
