<svg width="60" height="60" viewBox="0 0 60 60" fill="none" xmlns="http://www.w3.org/2000/svg">
<rect width="60" height="60" rx="30" fill="#EB6320"/>
<path opacity="0.7" d="M29.069 43.3453L29.0694 43.3455C29.2585 43.4604 29.3846 43.5401 29.4776 43.5989C29.5691 43.6567 29.6285 43.6943 29.6843 43.7251L29.6861 43.7262C29.8671 43.8268 30.1329 43.8268 30.3139 43.7262L30.3157 43.7251C30.3715 43.6943 30.4309 43.6567 30.5224 43.5989C30.6154 43.5401 30.7415 43.4604 30.9306 43.3455L30.931 43.3453C31.4255 43.045 31.984 42.6805 32.5914 42.2715C34.314 41.1067 36.0344 39.8206 37.6242 38.3638C42.3252 34.053 45 29.4941 45 24.8C45 20.4915 41.5079 17 37.2 17C34.7921 17 32.3744 18.3246 30.8415 20.3103L30.0329 21.3576L29.246 20.294C27.7709 18.3001 25.3764 17 22.8 17C18.4921 17 15 20.4915 15 24.8C15 29.494 17.6747 34.0529 22.3756 38.3636L29.069 43.3453ZM29.069 43.3453C28.5747 43.0451 28.0164 42.6808 27.4094 42.272M29.069 43.3453L27.4094 42.272M27.4094 42.272C25.6865 41.107 23.9658 39.8208 22.3758 38.3638L27.4094 42.272Z" stroke="#FEFEFE" stroke-width="2"/>
</svg>
