<svg width="270" height="82" viewBox="0 0 270 82" fill="none" xmlns="http://www.w3.org/2000/svg">
<path d="M60.4309 63.1689L55.6003 56.885L53.385 58.1005L55.3703 62.6396C53.8267 63.4434 51.6062 64.421 48.9439 65.0758C45.6751 65.8809 42.8808 66.0012 41.5059 66.0012C41.4118 66.0012 41.3216 66.0012 41.2366 65.9998L41.0654 62.7938L33.3072 64.9856C31.8643 64.5047 29.7732 63.6787 27.6193 62.3939C26.7384 61.8672 25.864 61.2843 25.0132 60.6556L26.4195 56.9687L20.8387 56.8066L19.0913 54.2528L17.6536 51.5539C17.2981 50.7932 16.9544 49.9764 16.6486 49.1608L15.901 46.8357L18.8482 43.2089L15.2213 42.0273C15.0527 40.1649 15.0593 38.3208 15.2409 36.5381C15.5246 33.7359 16.1428 31.4134 16.6381 29.8986L26.9449 21.5209L26.047 20.2375L17.5164 25.319L19.2769 21.2896L31.5023 13.1955L30.7547 11.8206L24.1061 14.7168L25.255 11.3004L35.235 6.0137L41.5425 6.4999L37.734 2.91879L49.1817 3.43374L55.8734 6.74692L54.3051 2.87305L63.8747 8.66686L66.2809 15.3207L68.768 17.1661L73.2222 20.0676L74.8063 23.5154L77.9247 26.5319L82.2678 30.3286L87.9387 34.8298L87.263 37.3236L86.5664 38.3534L86.535 38.4279C86.535 38.4279 86.271 39.0723 85.445 41.1713C84.9105 42.5266 84.6647 42.9867 84.5889 43.1147L84.4543 43.2245L83.593 43.1644L82.1867 46.2737L82.1488 46.3142L81.8221 44.3917L80.6863 42.9945L74.7108 45.4882L72.1021 54.3769L72.8419 55.9701L74.375 56.404L77.6228 55.8773L78.7193 55.233L79.3833 53.9482L79.5715 55.0004L79.3885 56.4433L80.2524 58.043L75.827 67.1539L65.3725 74.1227L60.4309 63.1689Z" fill="#FEFEFE"/>
<path d="M110.663 69.629V63.8574H114.543V65.0389H112.008V66.1237H114.405V67.2399H112.008V68.4384H114.691V69.629H110.663Z" fill="#2B2A29"/>
<path d="M122.198 69.629L119.874 65.8532H119.849L119.882 69.629H118.529V63.8574H120.119L122.435 67.6241H122.458L122.425 63.8574H123.779V69.629H122.198Z" fill="#2B2A29"/>
<path d="M130.789 69.7742C128.946 69.7742 127.618 68.5522 127.618 66.7342C127.618 64.8835 128.988 63.7007 130.748 63.7007C131.654 63.7007 132.493 64.0026 132.974 64.4666L132.095 65.469C131.825 65.1606 131.36 64.9318 130.798 64.9318C129.819 64.9318 129.102 65.699 129.102 66.7342C129.102 67.7928 129.729 68.5522 130.862 68.5522C131.189 68.5522 131.491 68.5025 131.735 68.3966V67.3445H130.635V66.2192H133.015V69.2775C132.453 69.5703 131.678 69.7742 130.789 69.7742Z" fill="#2B2A29"/>
<path d="M137.073 63.8574H138.474V69.629H137.073V63.8574Z" fill="#2B2A29"/>
<path d="M146.253 69.629L143.929 65.8532H143.904L143.937 69.629H142.584V63.8574H144.173L146.489 67.6241H146.513L146.48 63.8574H147.834V69.629H146.253Z" fill="#2B2A29"/>
<path d="M151.941 69.629V63.8574H155.822V65.0389H153.286V66.1237H155.683V67.2399H153.286V68.4384H155.968V69.629H151.941Z" fill="#2B2A29"/>
<path d="M159.809 69.629V63.8574H163.688V65.0389H161.153V66.1237H163.549V67.2399H161.153V68.4384H163.835V69.629H159.809Z" fill="#2B2A29"/>
<path d="M169.777 64.9814H169.034V66.3276H169.696C170.144 66.3276 170.706 66.2126 170.706 65.6258C170.706 65.0873 170.192 64.9814 169.777 64.9814ZM170.764 69.629L169.517 67.3379H169.044V69.629H167.674V63.8574H169.875C170.984 63.8574 172.084 64.2809 172.084 65.6009C172.084 66.376 171.627 66.9301 170.886 67.1588L172.395 69.629H170.764Z" fill="#2B2A29"/>
<path d="M175.997 63.8574H177.398V69.629H175.997V63.8574Z" fill="#2B2A29"/>
<path d="M185.176 69.629L182.853 65.8532H182.829L182.861 69.629H181.508V63.8574H183.097L185.413 67.6241H185.438L185.404 63.8574H186.758V69.629H185.176Z" fill="#2B2A29"/>
<path d="M193.768 69.7742C191.925 69.7742 190.596 68.5522 190.596 66.7342C190.596 64.8835 191.965 63.7007 193.726 63.7007C194.632 63.7007 195.471 64.0026 195.952 64.4666L195.072 65.469C194.803 65.1606 194.338 64.9318 193.776 64.9318C192.797 64.9318 192.079 65.699 192.079 66.7342C192.079 67.7928 192.708 68.5522 193.841 68.5522C194.168 68.5522 194.468 68.5025 194.713 68.3966V67.3445H193.612V66.2192H195.993V69.2775C195.43 69.5703 194.656 69.7742 193.768 69.7742Z" fill="#2B2A29"/>
<path d="M212.801 69.782C211.024 69.782 209.694 68.543 209.694 66.7329C209.694 64.8835 211.064 63.7007 212.825 63.7007C213.632 63.7007 214.504 63.9948 214.985 64.5489L214.04 65.4938C213.779 65.1357 213.315 64.9645 212.874 64.9645C211.903 64.9645 211.21 65.7147 211.21 66.7329C211.21 67.785 211.887 68.5025 212.849 68.5025C213.396 68.5025 213.828 68.2581 214.073 67.9157L215.042 68.8279C214.538 69.4161 213.771 69.782 212.801 69.782Z" fill="#2B2A29"/>
<path d="M221.328 64.9554C220.349 64.9554 219.68 65.7069 219.68 66.7172C219.68 67.7614 220.357 68.5103 221.328 68.5103C222.298 68.5103 222.982 67.7614 222.982 66.7172C222.982 65.7069 222.305 64.9554 221.328 64.9554ZM221.328 69.782C219.525 69.782 218.188 68.543 218.188 66.7172C218.188 64.8665 219.525 63.7007 221.328 63.7007C223.137 63.7007 224.475 64.8665 224.475 66.7172C224.475 68.543 223.137 69.782 221.328 69.782Z" fill="#2B2A29"/>
<path d="M233.547 69.629L233.579 65.5447H233.554L232.055 69.629H231.076L229.618 65.5447H229.592L229.626 69.629H228.313V63.8574H230.294L231.607 67.5575H231.64L232.894 63.8574H234.908V69.629H233.547Z" fill="#2B2A29"/>
<path d="M241.021 64.9814H240.41V66.3433H240.997C241.518 66.3433 241.999 66.1891 241.999 65.6414C241.999 65.0873 241.518 64.9814 241.021 64.9814ZM241.103 67.4516H240.41V69.629H239.017V63.8574H241.135C242.399 63.8574 243.394 64.3136 243.394 65.6336C243.394 66.9706 242.309 67.4516 241.103 67.4516Z" fill="#2B2A29"/>
<path d="M249.025 65.3983L248.292 67.3784H249.743L249.025 65.3983ZM250.575 69.629L250.126 68.4959H247.892L247.469 69.629H245.951L248.373 63.8574H249.727L252.123 69.629H250.575Z" fill="#2B2A29"/>
<path d="M259.191 69.629L256.867 65.8532H256.844L256.875 69.629H255.522V63.8574H257.112L259.428 67.6241H259.453L259.419 63.8574H260.773V69.629H259.191Z" fill="#2B2A29"/>
<path d="M267.685 67.1824V69.629H266.29V67.1824L264.122 63.8574H265.809L267.041 65.993L268.272 63.8574H269.902L267.685 67.1824Z" fill="#2B2A29"/>
<path d="M139.86 28.4086C138.141 27.5499 136.792 27.3853 131.517 27.3853H110.663V54.6592H118.923V47.9531V41.3293V34.0103H130.987C134.543 34.0103 135.361 34.7461 135.361 38.0175C135.361 40.5935 134.379 41.3293 130.987 41.3293H122.167L125.104 47.9531H132.254C136.997 47.9531 138.837 47.6669 140.432 46.6853C142.681 45.296 143.621 42.5971 143.621 37.4032C143.621 32.2511 142.599 29.7574 139.86 28.4086Z" fill="#2B2A29"/>
<path d="M181.481 36.2178C181.481 31.9649 180.377 29.4712 178.006 28.3668C176.411 27.631 174.571 27.3853 170.645 27.3853H147.134V54.6592H155.394V47.7897V41.1241V34.0913H155.429H168.641C171.136 34.0913 171.832 34.2142 172.445 34.869C172.975 35.4414 173.139 36.1773 173.139 37.9351C173.139 40.634 172.362 41.1241 168.355 41.1241H158.546L161.501 47.7897H168.109C170.359 47.7897 171.013 47.8721 171.667 48.3216C172.404 48.8536 172.69 49.7123 172.69 51.265V54.6592H181.112V50.3658C181.112 48.0354 180.786 46.8082 179.969 45.8685C179.151 44.8869 178.087 44.5589 175.225 44.3955C175.021 44.3955 174.489 44.355 173.876 44.3145C177.555 43.7825 178.823 43.3735 179.764 42.3919C180.949 41.1242 181.481 39.1624 181.481 36.2178Z" fill="#2B2A29"/>
<path d="M185.975 54.6592H194.277V27.3853H185.975V54.6592Z" fill="#2B2A29"/>
<path d="M254.376 48.4849L257.113 54.659H270V48.4849H254.376Z" fill="#2B2A29"/>
<path d="M232.956 29.9208C231.075 28.04 228.377 27.3853 222.612 27.3853H199.059V54.6592H207.359V48.1583V34.1737H207.432H221.426C226.21 34.1737 227.191 35.3591 227.191 41.0836C227.191 45.7861 226.661 47.2173 224.656 47.8302C223.674 48.1583 223.511 48.1583 221.263 48.1583H213.631L216.512 54.6592H223.715C226.619 54.6592 227.846 54.5768 229.399 54.2501C232.384 53.6776 234.674 51.1421 235.123 47.872C235.369 46.3181 235.532 43.4963 235.532 41.0431C235.532 39.7348 235.451 37.8541 235.369 36.5863C235.083 33.1098 234.47 31.3924 232.956 29.9208Z" fill="#2B2A29"/>
<path d="M247.96 48.485V43.6597V38.2619V33.5607H270V27.3853H239.781V54.6592H247.96V48.485Z" fill="#2B2A29"/>
<path d="M249.601 37.7095L252.537 44.3332H270V37.7095H249.601Z" fill="#EB6320"/>
<path d="M57.8597 66.3513C53.165 69.2828 47.6222 70.9819 41.6781 70.9819C24.775 70.9819 11.0727 57.2783 11.0727 40.3752C11.0727 35.3878 12.2725 30.6827 14.3898 26.5226L17.452 19.5224L20.4842 17.5097L22.8759 9.50319L33.9839 3.85184L29.8042 0.470703L18.921 5.12745L19.1184 14.9938L17.7827 11.099L10.0454 19.3761L4.40189 19.9773L0 30.9663L7.11516 37.7992L3.41773 35.9929L3.8046 47.3152L0.232641 51.7302L4.88939 62.6081L14.7557 62.4108L10.8609 63.7465L19.138 71.4838L19.7392 77.1273L30.7269 81.5292H30.7282L37.5611 74.414L35.7549 78.1114L47.0772 77.7246L51.4921 81.2952L62.3701 76.6398V76.6345L57.8597 66.3513Z" fill="#EB6320"/>
<path d="M67.85 26.6522L68.6787 27.4403L70.349 28.0781L71.8703 28.7983L72.0062 29.0427L71.8977 29.2191L69.8745 29.423L68.8695 29.2596L64.3055 25.8641L64.0886 25.5661L66.3705 25.3492L69.1949 25.6472L69.8327 26.0954L70.0915 26.8561L70.0092 26.9515L68.8551 26.4758L68.1898 26.285L67.688 26.4078L67.85 26.6522ZM87.2037 34.7737L82.049 35.4207L81.3785 34.3647L80.9485 34.4379L81.4439 37.785L85.7556 38.858L84.4473 41.7216L81.8294 41.4014L71.7396 44.844L67.1848 55.1312L71.8768 59.4285L78.3476 57.6745L79.0142 58.2927L75.1612 66.047L74.8162 63.9964L72.8897 67.1331L68.8643 70.1953L68.8891 66.6391L65.704 70.9847L64.6662 66.5894L62.5986 59.4585L58.3196 55.9219L48.418 50.0941L48.9368 42.3895L49.6779 33.4498L49.8007 48.1428L63.3083 54.0202L68.6421 43.3776L62.2719 43.0809L73.8778 38.9325L73.704 38.4385L61.1348 40.0683L63.9004 37.6974L68.7414 37.0806L75.1377 37.1289L75.2357 36.6597L68.3454 34.9816L72.6675 33.2773L80.5839 32.7989L80.6322 32.5937L68.6669 21.7942L67.8265 21.8935L65.3576 21.9419L65.4321 21.6713L67.3338 20.6584L65.4321 19.9422L63.4076 19.3502L63.3789 19.077H68.9806L72.644 21.7184L72.9603 23.2332L77.9621 27.4952L87.4729 34.3647L87.2037 34.7737ZM44.1873 22.9822L39.5057 20.9982L36.0971 24.4068L35.7952 30.7051L33.9824 23.6083L38.2536 18.7973L45.3949 21.257L44.1873 22.9822ZM33.9197 63.007L39.043 39.8487L40.1893 61.155L33.9197 63.007ZM26.1811 55.3926L21.6551 55.5154L33.6753 35.7592L26.1811 55.3926ZM18.7954 42.0274L16.2233 41.0629L29.1519 29.2831L18.7954 42.0274ZM82.7835 29.738L78.4705 25.9674L75.4579 23.0541L73.8399 19.5331L69.2354 16.5349L66.9378 14.8306L64.5186 8.13893L52.6905 0.978027L54.3686 5.12636L49.3812 2.65618L35.6514 2.03929L39.3802 5.5459L35.0672 5.21393L24.6101 10.7529L22.7974 16.1428L31.0692 12.5408L18.649 20.763L15.8168 27.2456L26.4477 20.912L15.9671 29.4321H15.9645C15.4535 30.9522 14.766 33.4276 14.4589 36.4584C14.2171 38.841 14.3151 40.991 14.4889 42.6169L17.5159 43.601L15.0222 46.6698L15.9122 49.4354C16.1998 50.2039 16.5461 51.0403 16.9604 51.9225L18.4177 54.6593L20.3964 57.5543C20.4043 57.5634 20.4108 57.5726 20.4174 57.5804L25.2911 57.7216L24.0677 60.9276C24.9735 61.6229 26.0243 62.3561 27.2162 63.0684C29.4917 64.4264 31.6887 65.2877 33.2897 65.8078H33.291L40.333 63.8173L40.4912 66.7619V66.7645C41.4021 66.8103 44.8591 66.8913 49.1316 65.8392C52.3533 65.0446 54.9437 63.7846 56.3787 62.9887L54.3921 58.4443L55.388 57.898L59.752 63.5755L65.0374 75.2899L76.4395 67.6899L81.1341 58.0248L80.1996 56.2918L80.3656 54.9809L79.9748 52.7917L79.5605 52.1735L79.1135 52.1055L78.8887 53.1955L78.1255 54.6711L77.3504 55.1246L74.4202 55.6004L73.4021 55.3128L72.9394 54.3143L75.3599 46.0686L80.4466 43.9448L81.0818 44.7277L81.5824 47.6736L81.9261 47.6997L82.8489 46.7169L84.0827 43.9853L84.7061 44.0297L85.157 43.6664C85.157 43.6664 85.3517 43.5501 86.1751 41.4589C86.9985 39.3678 87.2612 38.726 87.2612 38.726L87.9866 37.6569L88.8322 34.5359L82.7835 29.738Z" fill="#2B2A29"/>
<path d="M57.8597 66.3513C53.165 69.2828 47.6222 70.9819 41.6781 70.9819C24.775 70.9819 11.0727 57.2783 11.0727 40.3752C11.0727 35.3878 12.2725 30.6827 14.3898 26.5226L17.452 19.5224L20.4842 17.5097L22.8759 9.50319L33.9839 3.85184L29.8042 0.470703L18.921 5.12745L19.1184 14.9938L17.7827 11.099L10.0454 19.3761L4.40189 19.9773L0 30.9663L7.11516 37.7992L3.41773 35.9929L3.8046 47.3152L0.232641 51.7302L4.88939 62.6081L14.7557 62.4108L10.8609 63.7465L19.138 71.4838L19.7392 77.1273L30.7269 81.5292H30.7282L37.5611 74.414L35.7549 78.1114L47.0772 77.7246L51.4921 81.2952L62.3701 76.6398V76.6345L57.8597 66.3513Z" fill="#EB6320"/>
</svg>
