<svg width="20" height="21" viewBox="0 0 20 21" fill="none" xmlns="http://www.w3.org/2000/svg">
<g clip-path="url(#clip0_1011_26791)">
<path d="M2.85721 5.52693C4.04068 5.52693 5.00007 4.56754 5.00007 3.38407C5.00007 2.2006 4.04068 1.24121 2.85721 1.24121C1.67375 1.24121 0.714355 2.2006 0.714355 3.38407C0.714355 4.56754 1.67375 5.52693 2.85721 5.52693Z" stroke="#EB6320" stroke-width="2" stroke-linecap="round" stroke-linejoin="round"/>
<path d="M5 3.38428H19.2857" stroke="#EB6320" stroke-width="2" stroke-linecap="round" stroke-linejoin="round"/>
<path d="M10 12.67C11.1835 12.67 12.1429 11.7106 12.1429 10.5271C12.1429 9.34367 11.1835 8.38428 10 8.38428C8.81657 8.38428 7.85718 9.34367 7.85718 10.5271C7.85718 11.7106 8.81657 12.67 10 12.67Z" stroke="#EB6320" stroke-width="2" stroke-linecap="round" stroke-linejoin="round"/>
<path d="M0.714355 10.5269H7.85721" stroke="#EB6320" stroke-width="2" stroke-linecap="round" stroke-linejoin="round"/>
<path d="M12.1428 10.5269H19.2857" stroke="#EB6320" stroke-width="2" stroke-linecap="round" stroke-linejoin="round"/>
<path d="M17.1429 19.8126C18.3263 19.8126 19.2857 18.8532 19.2857 17.6697C19.2857 16.4862 18.3263 15.5269 17.1429 15.5269C15.9594 15.5269 15 16.4862 15 17.6697C15 18.8532 15.9594 19.8126 17.1429 19.8126Z" stroke="#EB6320" stroke-width="2" stroke-linecap="round" stroke-linejoin="round"/>
<path d="M15.0001 17.6699H0.714355" stroke="#EB6320" stroke-width="2" stroke-linecap="round" stroke-linejoin="round"/>
</g>
<defs>
<clipPath id="clip0_1011_26791">
<rect width="20" height="20" fill="white" transform="translate(0 0.526855)"/>
</clipPath>
</defs>
</svg>
