<svg width="32" height="29" viewBox="0 0 32 29" fill="none" xmlns="http://www.w3.org/2000/svg">
<path opacity="0.7" d="M15.069 27.3453L15.0694 27.3455C15.2585 27.4604 15.3846 27.5401 15.4776 27.5989C15.5691 27.6567 15.6285 27.6943 15.6843 27.7251L15.6861 27.7262C15.8671 27.8268 16.1329 27.8268 16.3139 27.7262L16.3157 27.7251C16.3715 27.6943 16.4309 27.6567 16.5224 27.5989C16.6154 27.5401 16.7415 27.4604 16.9306 27.3455L16.931 27.3453C17.4255 27.045 17.984 26.6805 18.5914 26.2715C20.314 25.1067 22.0344 23.8206 23.6242 22.3638C28.3252 18.053 31 13.4941 31 8.80002C31 4.49154 27.5079 1 23.2 1C20.7921 1 18.3744 2.32464 16.8415 4.31032L16.0329 5.35764L15.246 4.29398C13.7709 2.30011 11.3764 1 8.8 1C4.49208 1 1 4.49154 1 8.80002C1 13.494 3.67468 18.0529 8.37561 22.3636L15.069 27.3453ZM15.069 27.3453C14.5747 27.0451 14.0164 26.6808 13.4094 26.272M15.069 27.3453L13.4094 26.272M13.4094 26.272C11.6865 25.107 9.9658 23.8208 8.37585 22.3638L13.4094 26.272Z" stroke="#FEFEFE" stroke-width="2"/>
</svg>
