<svg width="20" height="21" viewBox="0 0 20 21" fill="none" xmlns="http://www.w3.org/2000/svg">
<g clip-path="url(#clip0_1011_26764)">
<path d="M14.9998 7.3125H16.4284C16.6178 7.3125 16.7995 7.38776 16.9334 7.52171C17.0674 7.65566 17.1426 7.83735 17.1426 8.02679V18.7411C17.1426 18.9305 17.0674 19.1122 16.9334 19.2461C16.7995 19.3801 16.6178 19.4554 16.4284 19.4554H3.57122C3.38178 19.4554 3.2001 19.3801 3.06614 19.2461C2.93219 19.1122 2.85693 18.9305 2.85693 18.7411V8.02679C2.85693 7.83735 2.93219 7.65566 3.06614 7.52171C3.2001 7.38776 3.38178 7.3125 3.57122 7.3125H4.99979" stroke="#EB6320" stroke-width="1.5" stroke-linecap="round" stroke-linejoin="round"/>
<path d="M10 1.59814V13.0267" stroke="#EB6320" stroke-width="1.5" stroke-linecap="round" stroke-linejoin="round"/>
<path d="M7.14258 10.1694L9.99972 13.0266L12.8569 10.1694" stroke="#EB6320" stroke-width="1.5" stroke-linecap="round" stroke-linejoin="round"/>
</g>
<defs>
<clipPath id="clip0_1011_26764">
<rect width="20" height="20" fill="white" transform="translate(0 0.526855)"/>
</clipPath>
</defs>
</svg>
