<svg width="20" height="20" viewBox="0 0 20 20" fill="none" xmlns="http://www.w3.org/2000/svg">
<rect width="20" height="20" rx="5" fill="#EB6320"/>
<path d="M13.7133 6.21261C13.8894 6.04497 14.1237 5.95229 14.3668 5.95413C14.6099 5.95597 14.8428 6.05218 15.0164 6.22246C15.1899 6.39275 15.2905 6.62379 15.2969 6.86682C15.3033 7.10986 15.2151 7.34589 15.0508 7.52511L10.0633 13.7626C9.97755 13.855 9.87404 13.9291 9.75897 13.9806C9.64391 14.032 9.51965 14.0597 9.39362 14.0621C9.2676 14.0644 9.1424 14.0413 9.0255 13.9941C8.90861 13.947 8.80243 13.8767 8.71331 13.7876L5.40581 10.4801C5.3137 10.3943 5.23982 10.2908 5.18858 10.1758C5.13734 10.0608 5.10979 9.93664 5.10757 9.81076C5.10535 9.68488 5.1285 9.55984 5.17565 9.44311C5.22281 9.32637 5.29299 9.22033 5.38201 9.13131C5.47103 9.04228 5.57708 8.9721 5.69381 8.92495C5.81055 8.8778 5.93558 8.85464 6.06146 8.85687C6.18734 8.85909 6.31148 8.88664 6.42648 8.93788C6.54148 8.98912 6.64498 9.063 6.73081 9.15511L9.34831 11.7714L13.6896 6.24011C13.6974 6.23048 13.7057 6.2213 13.7146 6.21261H13.7133Z" fill="#F9F9F9"/>
</svg>
