<svg width="26" height="26" viewBox="0 0 26 26" fill="none" xmlns="http://www.w3.org/2000/svg">
<rect x="0.5" y="0.0585938" width="25" height="25" rx="5" fill="#8E8E8E"/>
<path d="M17.6402 7.82411C17.8603 7.61456 18.1532 7.49871 18.4571 7.50101C18.761 7.50331 19.0521 7.62358 19.269 7.83643C19.4859 8.04929 19.6116 8.33808 19.6197 8.64188C19.6277 8.94567 19.5174 9.24071 19.312 9.46473L13.0777 17.2616C12.9705 17.3771 12.8411 17.4697 12.6973 17.5341C12.5534 17.5984 12.3981 17.633 12.2406 17.6359C12.083 17.6389 11.9265 17.61 11.7804 17.551C11.6343 17.4921 11.5016 17.4043 11.3902 17.2929L7.25579 13.1585C7.14066 13.0512 7.04831 12.9218 6.98426 12.7781C6.92021 12.6343 6.88577 12.4791 6.88299 12.3218C6.88022 12.1644 6.90916 12.0082 6.9681 11.8622C7.02704 11.7163 7.11477 11.5838 7.22605 11.4725C7.33733 11.3612 7.46988 11.2735 7.6158 11.2145C7.76172 11.1556 7.91801 11.1267 8.07536 11.1294C8.23271 11.1322 8.38789 11.1666 8.53164 11.2307C8.67538 11.2947 8.80476 11.3871 8.91204 11.5022L12.1839 14.7725L17.6105 7.85848C17.6203 7.84645 17.6307 7.83498 17.6417 7.82411H17.6402Z" fill="#F9F9F9"/>
</svg>
