<svg width="270" height="82" viewBox="0 0 270 82" fill="none" xmlns="http://www.w3.org/2000/svg">
<path d="M60.4309 62.6982L55.6003 56.4143L53.385 57.6298L55.3703 62.1689C53.8267 62.9727 51.6062 63.9503 48.9439 64.6051C45.6751 65.4102 42.8808 65.5305 41.5059 65.5305C41.4118 65.5305 41.3216 65.5305 41.2366 65.5291L41.0654 62.3231L33.3072 64.5149C31.8643 64.034 29.7732 63.208 27.6193 61.9232C26.7384 61.3965 25.864 60.8136 25.0132 60.1849L26.4195 56.498L20.8387 56.3359L19.0913 53.7821L17.6536 51.0832C17.2981 50.3225 16.9544 49.5057 16.6486 48.6901L15.901 46.365L18.8482 42.7381L15.2213 41.5566C15.0527 39.6942 15.0593 37.8501 15.2409 36.0674C15.5246 33.2652 16.1428 30.9427 16.6381 29.4279L26.9449 21.0502L26.047 19.7668L17.5164 24.8483L19.2769 20.8189L31.5023 12.7248L30.7547 11.3499L24.1061 14.2461L25.255 10.8297L35.235 5.543L41.5425 6.02919L37.734 2.44809L49.1817 2.96304L55.8734 6.27621L54.3051 2.40234L63.8747 8.19616L66.2809 14.85L68.768 16.6954L73.2222 19.5969L74.8063 23.0447L77.9247 26.0612L82.2678 29.8579L87.9387 34.3591L87.263 36.8528L86.5664 37.8827L86.535 37.9572C86.535 37.9572 86.271 38.6016 85.445 40.7006C84.9105 42.0559 84.6647 42.516 84.5889 42.644L84.4543 42.7538L83.593 42.6937L82.1867 45.803L82.1488 45.8435L81.8221 43.921L80.6863 42.5238L74.7108 45.0175L72.1021 53.9062L72.8419 55.4994L74.375 55.9333L77.6228 55.4066L78.7193 54.7623L79.3833 53.4775L79.5715 54.5297L79.3885 55.9726L80.2524 57.5723L75.827 66.6832L65.3725 73.652L60.4309 62.6982Z" fill="#FEFEFE"/>
<path d="M110.663 69.1583V63.3867H114.543V64.5682H112.008V65.653H114.405V66.7692H112.008V67.9677H114.691V69.1583H110.663Z" fill="#2B2A29"/>
<path d="M122.198 69.1583L119.874 65.3825H119.849L119.882 69.1583H118.529V63.3867H120.119L122.435 67.1534H122.458L122.425 63.3867H123.779V69.1583H122.198Z" fill="#2B2A29"/>
<path d="M130.789 69.3035C128.946 69.3035 127.618 68.0815 127.618 66.2635C127.618 64.4128 128.988 63.23 130.748 63.23C131.654 63.23 132.493 63.5319 132.974 63.9959L132.095 64.9983C131.825 64.6899 131.36 64.4611 130.798 64.4611C129.819 64.4611 129.102 65.2283 129.102 66.2635C129.102 67.3221 129.729 68.0815 130.862 68.0815C131.189 68.0815 131.491 68.0318 131.735 67.9259V66.8738H130.635V65.7485H133.015V68.8068C132.453 69.0996 131.678 69.3035 130.789 69.3035Z" fill="#2B2A29"/>
<path d="M137.073 63.3867H138.474V69.1583H137.073V63.3867Z" fill="#2B2A29"/>
<path d="M146.253 69.1583L143.929 65.3825H143.904L143.937 69.1583H142.584V63.3867H144.173L146.489 67.1534H146.513L146.48 63.3867H147.834V69.1583H146.253Z" fill="#2B2A29"/>
<path d="M151.941 69.1583V63.3867H155.822V64.5682H153.286V65.653H155.683V66.7692H153.286V67.9677H155.968V69.1583H151.941Z" fill="#2B2A29"/>
<path d="M159.809 69.1583V63.3867H163.688V64.5682H161.153V65.653H163.549V66.7692H161.153V67.9677H163.835V69.1583H159.809Z" fill="#2B2A29"/>
<path d="M169.777 64.5107H169.034V65.8569H169.696C170.144 65.8569 170.706 65.7419 170.706 65.1551C170.706 64.6166 170.192 64.5107 169.777 64.5107ZM170.764 69.1583L169.517 66.8672H169.044V69.1583H167.674V63.3867H169.875C170.984 63.3867 172.084 63.8102 172.084 65.1302C172.084 65.9053 171.627 66.4594 170.886 66.6881L172.395 69.1583H170.764Z" fill="#2B2A29"/>
<path d="M175.997 63.3867H177.398V69.1583H175.997V63.3867Z" fill="#2B2A29"/>
<path d="M185.176 69.1583L182.853 65.3825H182.829L182.861 69.1583H181.508V63.3867H183.097L185.413 67.1534H185.438L185.404 63.3867H186.758V69.1583H185.176Z" fill="#2B2A29"/>
<path d="M193.768 69.3035C191.925 69.3035 190.596 68.0815 190.596 66.2635C190.596 64.4128 191.965 63.23 193.726 63.23C194.632 63.23 195.471 63.5319 195.952 63.9959L195.072 64.9983C194.803 64.6899 194.338 64.4611 193.776 64.4611C192.797 64.4611 192.079 65.2283 192.079 66.2635C192.079 67.3221 192.708 68.0815 193.841 68.0815C194.168 68.0815 194.468 68.0318 194.713 67.9259V66.8738H193.612V65.7485H195.993V68.8068C195.43 69.0996 194.656 69.3035 193.768 69.3035Z" fill="#2B2A29"/>
<path d="M212.801 69.3113C211.024 69.3113 209.694 68.0723 209.694 66.2622C209.694 64.4128 211.064 63.23 212.825 63.23C213.632 63.23 214.504 63.524 214.985 64.0782L214.04 65.0231C213.779 64.665 213.315 64.4938 212.874 64.4938C211.903 64.4938 211.21 65.244 211.21 66.2622C211.21 67.3143 211.887 68.0318 212.849 68.0318C213.396 68.0318 213.828 67.7874 214.073 67.445L215.042 68.3572C214.538 68.9454 213.771 69.3113 212.801 69.3113Z" fill="#2B2A29"/>
<path d="M221.328 64.4847C220.349 64.4847 219.68 65.2362 219.68 66.2465C219.68 67.2907 220.357 68.0396 221.328 68.0396C222.298 68.0396 222.982 67.2907 222.982 66.2465C222.982 65.2362 222.305 64.4847 221.328 64.4847ZM221.328 69.3113C219.525 69.3113 218.188 68.0723 218.188 66.2465C218.188 64.3958 219.525 63.23 221.328 63.23C223.137 63.23 224.475 64.3958 224.475 66.2465C224.475 68.0723 223.137 69.3113 221.328 69.3113Z" fill="#2B2A29"/>
<path d="M233.547 69.1583L233.579 65.074H233.554L232.055 69.1583H231.076L229.618 65.074H229.592L229.626 69.1583H228.313V63.3867H230.294L231.607 67.0868H231.64L232.894 63.3867H234.908V69.1583H233.547Z" fill="#2B2A29"/>
<path d="M241.021 64.5107H240.41V65.8726H240.997C241.518 65.8726 241.999 65.7184 241.999 65.1707C241.999 64.6166 241.518 64.5107 241.021 64.5107ZM241.103 66.9809H240.41V69.1583H239.017V63.3867H241.135C242.399 63.3867 243.394 63.8429 243.394 65.1629C243.394 66.4999 242.309 66.9809 241.103 66.9809Z" fill="#2B2A29"/>
<path d="M249.025 64.9276L248.292 66.9077H249.743L249.025 64.9276ZM250.575 69.1583L250.126 68.0252H247.892L247.469 69.1583H245.951L248.373 63.3867H249.727L252.123 69.1583H250.575Z" fill="#2B2A29"/>
<path d="M259.191 69.1583L256.867 65.3825H256.844L256.875 69.1583H255.522V63.3867H257.112L259.428 67.1534H259.453L259.419 63.3867H260.773V69.1583H259.191Z" fill="#2B2A29"/>
<path d="M267.685 66.7117V69.1583H266.29V66.7117L264.122 63.3867H265.809L267.041 65.5223L268.272 63.3867H269.902L267.685 66.7117Z" fill="#2B2A29"/>
<path d="M139.86 27.9379C138.141 27.0792 136.792 26.9146 131.517 26.9146H110.663V54.1885H118.923V47.4824V40.8586V33.5396H130.987C134.543 33.5396 135.361 34.2754 135.361 37.5468C135.361 40.1228 134.379 40.8586 130.987 40.8586H122.167L125.104 47.4824H132.254C136.997 47.4824 138.837 47.1962 140.432 46.2146C142.681 44.8253 143.621 42.1264 143.621 36.9325C143.621 31.7804 142.599 29.2867 139.86 27.9379Z" fill="#2B2A29"/>
<path d="M181.481 35.7471C181.481 31.4942 180.377 29.0005 178.006 27.8961C176.411 27.1603 174.571 26.9146 170.645 26.9146H147.134V54.1885H155.394V47.319V40.6534V33.6206H155.429H168.641C171.136 33.6206 171.832 33.7435 172.445 34.3983C172.975 34.9707 173.139 35.7066 173.139 37.4644C173.139 40.1633 172.362 40.6534 168.355 40.6534H158.546L161.501 47.319H168.109C170.359 47.319 171.013 47.4013 171.667 47.8509C172.404 48.3829 172.69 49.2416 172.69 50.7943V54.1885H181.112V49.8951C181.112 47.5647 180.786 46.3375 179.969 45.3978C179.151 44.4162 178.087 44.0882 175.225 43.9248C175.021 43.9248 174.489 43.8843 173.876 43.8438C177.555 43.3118 178.823 42.9027 179.764 41.9212C180.949 40.6534 181.481 38.6917 181.481 35.7471Z" fill="#2B2A29"/>
<path d="M185.975 54.1885H194.277V26.9146H185.975V54.1885Z" fill="#2B2A29"/>
<path d="M254.376 48.0142L257.113 54.1883H270V48.0142H254.376Z" fill="#2B2A29"/>
<path d="M232.956 29.4501C231.075 27.5693 228.377 26.9146 222.612 26.9146H199.059V54.1885H207.359V47.6876V33.703H207.432H221.426C226.21 33.703 227.191 34.8884 227.191 40.6129C227.191 45.3154 226.661 46.7466 224.656 47.3595C223.674 47.6876 223.511 47.6876 221.263 47.6876H213.631L216.512 54.1885H223.715C226.619 54.1885 227.846 54.1061 229.399 53.7794C232.384 53.2069 234.674 50.6714 235.123 47.4013C235.369 45.8474 235.532 43.0256 235.532 40.5724C235.532 39.2641 235.451 37.3834 235.369 36.1156C235.083 32.6391 234.47 30.9217 232.956 29.4501Z" fill="#2B2A29"/>
<path d="M247.96 48.0143V43.189V37.7912V33.09H270V26.9146H239.781V54.1885H247.96V48.0143Z" fill="#2B2A29"/>
<path d="M249.601 37.2388L252.537 43.8625H270V37.2388H249.601Z" fill="#EB6320"/>
<path d="M57.8597 65.8806C53.165 68.8121 47.6222 70.5112 41.6781 70.5112C24.775 70.5112 11.0727 56.8076 11.0727 39.9045C11.0727 34.9171 12.2725 30.212 14.3898 26.0519L17.452 19.0517L20.4842 17.039L22.8759 9.03249L33.9839 3.38114L29.8042 0L18.921 4.65674L19.1184 14.5231L17.7827 10.6283L10.0454 18.9054L4.40189 19.5066L0 30.4956L7.11516 37.3284L3.41773 35.5222L3.8046 46.8445L0.232641 51.2595L4.88939 62.1374L14.7557 61.9401L10.8609 63.2758L19.138 71.0131L19.7392 76.6566L30.7269 81.0585H30.7282L37.5611 73.9433L35.7549 77.6407L47.0772 77.2539L51.4921 80.8245L62.3701 76.1691V76.1638L57.8597 65.8806Z" fill="#EB6320"/>
<path d="M67.85 26.1815L68.6787 26.9696L70.349 27.6074L71.8703 28.3276L72.0062 28.572L71.8977 28.7484L69.8745 28.9523L68.8695 28.7889L64.3055 25.3934L64.0886 25.0954L66.3705 24.8785L69.1949 25.1764L69.8327 25.6247L70.0915 26.3854L70.0092 26.4808L68.8551 26.0051L68.1898 25.8142L67.688 25.9371L67.85 26.1815ZM87.2037 34.303L82.049 34.95L81.3785 33.894L80.9485 33.9672L81.4439 37.3143L85.7556 38.3873L84.4473 41.2509L81.8294 40.9307L71.7396 44.3733L67.1848 54.6605L71.8768 58.9578L78.3476 57.2038L79.0142 57.822L75.1612 65.5763L74.8162 63.5257L72.8897 66.6624L68.8643 69.7246L68.8891 66.1684L65.704 70.514L64.6662 66.1187L62.5986 58.9878L58.3196 55.4512L48.418 49.6234L48.9368 41.9188L49.6779 32.9791L49.8007 47.6721L63.3083 53.5495L68.6421 42.9068L62.2719 42.6102L73.8778 38.4618L73.704 37.9678L61.1348 39.5976L63.9004 37.2267L68.7414 36.6098L75.1377 36.6582L75.2357 36.189L68.3454 34.5108L72.6675 32.8066L80.5839 32.3282L80.6322 32.123L68.6669 21.3235L67.8265 21.4228L65.3576 21.4712L65.4321 21.2006L67.3338 20.1877L65.4321 19.4715L63.4076 18.8794L63.3789 18.6063H68.9806L72.644 21.2477L72.9603 22.7625L77.9621 27.0245L87.4729 33.894L87.2037 34.303ZM44.1873 22.5115L39.5057 20.5275L36.0971 23.9361L35.7952 30.2344L33.9824 23.1376L38.2536 18.3266L45.3949 20.7863L44.1873 22.5115ZM33.9197 62.5363L39.043 39.378L40.1893 60.6843L33.9197 62.5363ZM26.1811 54.9219L21.6551 55.0447L33.6753 35.2885L26.1811 54.9219ZM18.7954 41.5567L16.2233 40.5922L29.1519 28.8124L18.7954 41.5567ZM82.7835 29.2673L78.4705 25.4967L75.4579 22.5834L73.8399 19.0624L69.2354 16.0642L66.9378 14.3599L64.5186 7.66823L52.6905 0.507324L54.3686 4.65566L49.3812 2.18548L35.6514 1.56859L39.3802 5.0752L35.0672 4.74323L24.6101 10.2822L22.7974 15.6721L31.0692 12.0701L18.649 20.2923L15.8168 26.7749L26.4477 20.4413L15.9671 28.9614H15.9645C15.4535 30.4815 14.766 32.9569 14.4589 35.9877C14.2171 38.3703 14.3151 40.5203 14.4889 42.1462L17.5159 43.1303L15.0222 46.1991L15.9122 48.9647C16.1998 49.7332 16.5461 50.5696 16.9604 51.4518L18.4177 54.1886L20.3964 57.0836C20.4043 57.0927 20.4108 57.1019 20.4174 57.1097L25.2911 57.2509L24.0677 60.4569C24.9735 61.1522 26.0243 61.8854 27.2162 62.5977C29.4917 63.9557 31.6887 64.8169 33.2897 65.3371H33.291L40.333 63.3466L40.4912 66.2912V66.2938C41.4021 66.3396 44.8591 66.4206 49.1316 65.3685C52.3533 64.5739 54.9437 63.3139 56.3787 62.518L54.3921 57.9736L55.388 57.4273L59.752 63.1048L65.0374 74.8192L76.4395 67.2192L81.1341 57.5541L80.1996 55.8211L80.3656 54.5102L79.9748 52.321L79.5605 51.7028L79.1135 51.6348L78.8887 52.7248L78.1255 54.2004L77.3504 54.6539L74.4202 55.1297L73.4021 54.8421L72.9394 53.8436L75.3599 45.5979L80.4466 43.4741L81.0818 44.257L81.5824 47.2029L81.9261 47.229L82.8489 46.2462L84.0827 43.5146L84.7061 43.559L85.157 43.1957C85.157 43.1957 85.3517 43.0794 86.1751 40.9882C86.9985 38.8971 87.2612 38.2553 87.2612 38.2553L87.9866 37.1862L88.8322 34.0652L82.7835 29.2673Z" fill="#2B2A29"/>
<path d="M57.8597 65.8806C53.165 68.8121 47.6222 70.5112 41.6781 70.5112C24.775 70.5112 11.0727 56.8076 11.0727 39.9045C11.0727 34.9171 12.2725 30.212 14.3898 26.0519L17.452 19.0517L20.4842 17.039L22.8759 9.03249L33.9839 3.38114L29.8042 0L18.921 4.65674L19.1184 14.5231L17.7827 10.6283L10.0454 18.9054L4.40189 19.5066L0 30.4956L7.11516 37.3284L3.41773 35.5222L3.8046 46.8445L0.232641 51.2595L4.88939 62.1374L14.7557 61.9401L10.8609 63.2758L19.138 71.0131L19.7392 76.6566L30.7269 81.0585H30.7282L37.5611 73.9433L35.7549 77.6407L47.0772 77.2539L51.4921 80.8245L62.3701 76.1691V76.1638L57.8597 65.8806Z" fill="#EB6320"/>
</svg>
