<svg width="60" height="61" viewBox="0 0 60 61" fill="none" xmlns="http://www.w3.org/2000/svg">
<path d="M29.0483 52.9155H30.9531C41.315 52.9155 46.4769 52.9155 49.6769 49.7155C52.8578 46.5155 52.8578 41.3345 52.8578 31.0107V29.0678C52.8578 18.7821 52.8578 13.6012 49.6769 10.4012C46.4769 7.20117 41.2959 7.20117 30.9531 7.20117H29.0483C18.6864 7.20117 13.5245 7.20117 10.3245 10.4012C7.14355 13.6012 7.14355 18.7821 7.14355 29.1059V31.0488C7.14355 41.3345 7.14355 46.5155 10.3436 49.7155C13.5436 52.9155 18.7245 52.9155 29.0483 52.9155Z" fill="#EB6320"/>
<path d="M31.5073 41.3086C19.9762 41.3086 13.399 33.5665 13.125 20.6836H18.9011C19.0908 30.1393 23.3491 34.1446 26.722 34.9704V20.6836H32.1608V28.8386C35.4915 28.4876 38.9909 24.7714 40.1714 20.6836H45.6102C45.1653 22.8037 44.2786 24.811 43.0054 26.5801C41.7322 28.3492 40.1 29.842 38.2109 30.9651C40.3196 31.9913 42.1822 33.4438 43.6757 35.2268C45.1691 37.0097 46.2596 39.0826 46.875 41.3086H40.8881C40.3357 39.3752 39.2128 37.6444 37.6603 36.3333C36.1078 35.0222 34.1947 34.189 32.1608 33.9381V41.3086H31.5073Z" fill="#FEFEFE"/>
</svg>
