<svg width="60" height="61" viewBox="0 0 60 61" fill="none" xmlns="http://www.w3.org/2000/svg">
<g clip-path="url(#clip0_263_4088)">
<path d="M47.143 1.48682H12.8573C6.54546 1.48682 1.42871 6.60357 1.42871 12.9154V47.2011C1.42871 53.5129 6.54546 58.6297 12.8573 58.6297H47.143C53.4548 58.6297 58.5716 53.5129 58.5716 47.2011V12.9154C58.5716 6.60356 53.4548 1.48682 47.143 1.48682Z" fill="#8E8E8E"/>
<path d="M45.0237 29.3634C45.0264 29.3634 45.0285 29.3634 45.0312 29.3634C45.2226 29.3634 45.4051 29.2831 45.5348 29.1425C45.6666 28.9998 45.7317 28.8083 45.7146 28.6148C45.0257 21.038 39.027 15.0372 31.4494 14.3469C31.2573 14.3318 31.0638 14.3943 30.9211 14.5267C30.7784 14.6584 30.6988 14.8444 30.7009 15.0385C30.8202 25.1081 32.1486 29.2227 45.0237 29.3634ZM45.0237 30.7549C32.1486 30.8955 30.8209 35.0102 30.7016 45.0797C30.6995 45.2739 30.7791 45.4598 30.9218 45.5915C31.0494 45.7089 31.2161 45.7741 31.3877 45.7741C31.4083 45.7741 31.4295 45.7734 31.4501 45.7713C39.0276 45.0811 45.0264 39.0809 45.7146 31.5034C45.7317 31.3099 45.6672 31.1185 45.5348 30.9758C45.4024 30.8331 45.2178 30.7624 45.0237 30.7549ZM28.508 14.3504C20.9545 15.0605 14.975 21.06 14.2895 28.6162C14.2724 28.8097 14.3369 29.0011 14.4693 29.1438C14.599 29.2845 14.7822 29.3641 14.9729 29.3641C14.9756 29.3641 14.9784 29.3641 14.9811 29.3641C27.8137 29.2166 29.1386 25.104 29.2593 15.0413C29.2614 14.8471 29.1811 14.6605 29.0384 14.5288C28.8943 14.397 28.7015 14.3325 28.508 14.3504ZM14.9804 30.7542C14.7671 30.7302 14.5996 30.8317 14.4686 30.9744C14.3369 31.1171 14.2717 31.3086 14.2888 31.502C14.9743 39.0583 20.9545 45.0577 28.508 45.7679C28.5293 45.7699 28.5512 45.7706 28.5725 45.7706C28.744 45.7706 28.9101 45.7061 29.0377 45.5888C29.1804 45.4571 29.2607 45.2704 29.2586 45.0763C29.1379 35.0143 27.8137 30.9017 14.9804 30.7542Z" fill="#FEFEFE"/>
</g>
<defs>
<clipPath id="clip0_263_4088">
<rect x="7.5" y="7.55859" width="45" height="45" rx="10" fill="white"/>
</clipPath>
</defs>
</svg>
