<svg width="60" height="61" viewBox="0 0 60 61" fill="none" xmlns="http://www.w3.org/2000/svg">
<path d="M4.20845 18.6982C4.44944 14.988 7.4324 12.0803 11.1459 11.8963C16.5232 11.6299 24.209 11.3086 30 11.3086C35.791 11.3086 43.4768 11.6299 48.8541 11.8963C52.5676 12.0803 55.5506 14.988 55.7915 18.6982C56.0224 22.2528 56.25 26.6267 56.25 30.0586C56.25 33.4905 56.0224 37.8644 55.7915 41.419C55.5506 45.1292 52.5676 48.0369 48.8541 48.2209C43.4768 48.4873 35.791 48.8086 30 48.8086C24.209 48.8086 16.5232 48.4873 11.1459 48.2209C7.4324 48.0369 4.44944 45.1292 4.20845 41.419C3.97756 37.8644 3.75 33.4905 3.75 30.0586C3.75 26.6267 3.97756 22.2528 4.20845 18.6982Z" fill="#8E8E8E"/>
<path d="M24.375 22.5586V37.5586L39.375 30.0586L24.375 22.5586Z" fill="#FEFEFE"/>
</svg>
