<svg width="11" height="13" viewBox="0 0 11 13" fill="none" xmlns="http://www.w3.org/2000/svg">
<path d="M6.16667 1.11719C6.16667 0.748998 5.86819 0.450521 5.5 0.450521C5.13181 0.450521 4.83333 0.748998 4.83333 1.11719H6.16667ZM5.0286 12.7651C5.28895 13.0254 5.71105 13.0254 5.9714 12.7651L10.214 8.52242C10.4744 8.26207 10.4744 7.83996 10.214 7.57961C9.9537 7.31926 9.53159 7.31926 9.27124 7.57961L5.5 11.3508L1.72876 7.57961C1.46841 7.31926 1.0463 7.31926 0.785955 7.57961C0.525605 7.83996 0.525605 8.26207 0.785955 8.52242L5.0286 12.7651ZM4.83333 1.11719L4.83333 12.2937H6.16667L6.16667 1.11719H4.83333Z" fill="#FEFEFE"/>
</svg>
