<svg width="20" height="21" viewBox="0 0 20 21" fill="none" xmlns="http://www.w3.org/2000/svg">
<rect y="0.5" width="20" height="20" rx="5" fill="#EB6320"/>
<path d="M13.7123 6.71261C13.8884 6.54497 14.1227 6.45229 14.3659 6.45413C14.609 6.45597 14.8419 6.55218 15.0154 6.72246C15.1889 6.89275 15.2895 7.12379 15.2959 7.36682C15.3024 7.60986 15.2141 7.84589 15.0498 8.02511L10.0623 14.2626C9.97657 14.355 9.87306 14.4291 9.758 14.4806C9.64293 14.532 9.51867 14.5597 9.39264 14.5621C9.26662 14.5644 9.14142 14.5413 9.02453 14.4941C8.90763 14.447 8.80145 14.3767 8.71233 14.2876L5.40483 10.9801C5.31272 10.8943 5.23884 10.7908 5.1876 10.6758C5.13636 10.5608 5.10881 10.4366 5.10659 10.3108C5.10437 10.1849 5.12753 10.0598 5.17468 9.94311C5.22183 9.82637 5.29201 9.72033 5.38103 9.63131C5.47006 9.54228 5.5761 9.4721 5.69283 9.42495C5.80957 9.3778 5.93461 9.35464 6.06048 9.35687C6.18636 9.35909 6.3105 9.38664 6.4255 9.43788C6.5405 9.48912 6.644 9.563 6.72983 9.65511L9.34733 12.2714L13.6886 6.74011C13.6964 6.73048 13.7047 6.7213 13.7136 6.71261H13.7123Z" fill="#F9F9F9"/>
</svg>
