<svg width="451" height="412" viewBox="0 0 451 412" fill="none" xmlns="http://www.w3.org/2000/svg">
<g opacity="0.025">
<path d="M306.811 318.322L282.286 286.418L271.039 292.589L281.118 315.634C273.282 319.715 262.008 324.679 248.492 328.003C231.896 332.091 217.709 332.701 210.729 332.701C210.251 332.701 209.793 332.701 209.362 332.694L208.493 316.417L169.104 327.545C161.779 325.103 151.162 320.91 140.227 314.387C135.754 311.713 131.315 308.753 126.995 305.562L134.135 286.843L105.802 286.02L96.9298 273.054L89.6308 259.352C87.8259 255.49 86.0808 251.343 84.5281 247.202L80.7326 235.398L95.6956 216.984L77.2821 210.986C76.4261 201.53 76.4593 192.168 77.3816 183.117C78.8215 168.89 81.9601 157.099 84.475 149.408L136.803 106.875L132.244 100.359L88.9341 126.157L97.8721 105.7L159.941 64.6065L156.145 57.6259L122.39 72.3302L128.223 54.985L178.892 28.1443L210.915 30.6128L191.579 12.4315L249.699 15.0459L283.673 31.8669L275.71 12.1992L324.296 41.6144L336.512 75.3958L349.139 84.7652L371.753 99.496L379.795 117L395.627 132.315L417.677 151.591L446.469 174.444L443.038 187.105L439.501 192.333L439.342 192.712C439.342 192.712 438.002 195.983 433.808 206.64C431.094 213.521 429.847 215.856 429.462 216.507L428.778 217.064L424.406 216.759L417.266 232.545L417.073 232.75L415.414 222.989L409.648 215.896L379.311 228.557L366.066 273.685L369.822 281.773L377.605 283.976L394.095 281.302L399.662 278.031L403.033 271.508L403.988 276.85L403.059 284.176L407.445 292.297L384.977 338.553L331.9 373.934L306.811 318.322Z" fill="#FEFEFE"/>
<path d="M293.754 334.476C269.919 349.359 241.778 357.986 211.6 357.986C125.783 357.986 56.216 288.412 56.216 202.595C56.216 177.274 62.3074 153.386 73.0569 132.266L88.6039 96.7258L103.998 86.5071L116.141 45.858L172.536 17.1661L151.316 0L96.0623 23.6423L97.0642 73.7338L90.2827 53.9599L51.0005 95.9826L22.3484 99.035L0 154.826L36.1237 189.517L17.3519 180.346L19.316 237.83L1.18112 260.245L24.8234 315.472L74.9149 314.47L55.1411 321.251L97.1637 360.534L100.216 389.186L156.001 411.534H156.007L190.698 375.41L181.528 394.182L239.011 392.218L261.426 410.346L316.653 386.711V386.684L293.754 334.476Z" fill="#EB6320"/>
<path d="M344.472 132.923L348.679 136.924L357.159 140.162L364.883 143.818L365.573 145.059L365.023 145.955L354.751 146.99L349.648 146.161L326.477 128.921L325.375 127.409L336.961 126.307L351.3 127.82L354.538 130.096L355.852 133.958L355.434 134.442L349.575 132.027L346.198 131.058L343.65 131.682L344.472 132.923ZM442.731 174.156L416.561 177.44L413.157 172.079L410.973 172.45L413.488 189.444L435.379 194.892L428.737 209.43L415.446 207.804L364.22 225.282L341.095 277.51L364.916 299.328L397.769 290.423L401.153 293.562L381.591 332.93L379.84 322.519L370.059 338.444L349.622 353.991L349.748 335.936L333.577 357.999L328.308 335.684L317.811 299.481L296.086 281.525L245.816 251.937L248.45 212.821L252.212 167.434L252.836 242.03L321.414 271.87L348.494 217.837L316.152 216.331L375.075 195.27L374.193 192.762L310.379 201.036L324.42 188.999L348.998 185.867L381.472 186.113L381.97 183.731L346.987 175.211L368.931 166.558L409.122 164.129L409.368 163.088L348.62 108.258L344.353 108.763L331.818 109.008L332.197 107.635L341.851 102.492L332.197 98.856L321.918 95.8501L321.772 94.4632H350.212L368.811 107.874L370.417 115.564L395.811 137.203L444.098 172.079L442.731 174.156ZM224.336 114.29L200.568 104.217L183.263 121.523L181.73 153.499L172.526 117.469L194.211 93.0433L230.468 105.531L224.336 114.29ZM172.208 317.496L198.219 199.921L204.038 308.094L172.208 317.496ZM132.919 278.838L109.94 279.461L170.967 179.159L132.919 278.838ZM95.4217 210.983L82.363 206.086L148.002 146.28L95.4217 210.983ZM420.29 148.589L398.393 129.446L383.098 114.655L374.883 96.779L351.506 81.5572L339.841 72.9045L327.558 38.9307L267.507 2.57471L276.027 23.6358L250.706 11.0947L181 7.96274L199.931 25.7658L178.034 24.0804L124.943 52.2017L115.74 79.5665L157.736 61.2791L94.6785 103.023L80.2994 135.935L134.273 103.78L81.0624 147.036H81.0492C78.4547 154.753 74.9644 167.321 73.4051 182.709C72.1775 194.805 72.6752 205.721 73.5577 213.975L88.9255 218.972L76.265 234.552L80.7838 248.593C82.2436 252.495 84.002 256.741 86.1054 261.22L93.504 275.115L103.55 289.813C103.59 289.859 103.623 289.906 103.656 289.945L128.4 290.662L122.189 306.939C126.788 310.469 132.123 314.192 138.174 317.808C149.727 324.702 160.881 329.075 169.01 331.716H169.016L204.768 321.61L205.571 336.56V336.573C210.196 336.805 227.747 337.217 249.439 331.875C265.795 327.841 278.947 321.444 286.232 317.403L276.147 294.331L281.203 291.558L303.359 320.382L330.193 379.857L388.081 341.271L411.916 292.201L407.171 283.403L408.014 276.747L406.03 265.633L403.927 262.494L401.657 262.149L400.516 267.683L396.641 275.175L392.706 277.477L377.829 279.893L372.66 278.433L370.311 273.363L382.6 231.5L408.425 220.717L411.65 224.692L414.192 239.648L415.937 239.781L420.622 234.791L426.885 220.923L430.051 221.148L432.34 219.304C432.34 219.304 433.329 218.713 437.509 208.096C441.689 197.48 443.023 194.222 443.023 194.222L446.706 188.794L450.999 172.948L420.29 148.589Z" fill="#2B2A29"/>
<path d="M293.754 334.476C269.919 349.359 241.778 357.986 211.6 357.986C125.783 357.986 56.216 288.412 56.216 202.595C56.216 177.274 62.3074 153.386 73.0569 132.266L88.6039 96.7258L103.998 86.5071L116.141 45.858L172.536 17.1661L151.316 0L96.0623 23.6423L97.0642 73.7338L90.2827 53.9599L51.0005 95.9826L22.3484 99.035L0 154.826L36.1237 189.517L17.3519 180.346L19.316 237.83L1.18112 260.245L24.8234 315.472L74.9149 314.47L55.1411 321.251L97.1637 360.534L100.216 389.186L156.001 411.534H156.007L190.698 375.41L181.528 394.182L239.011 392.218L261.426 410.346L316.653 386.711V386.684L293.754 334.476Z" fill="#EB6320"/>
</g>
</svg>
