<svg width="610" height="580" viewBox="0 0 610 580" fill="none" xmlns="http://www.w3.org/2000/svg">
<g opacity="0.025">
<path d="M414.544 462.192L381.408 415.87L366.211 424.83L379.83 458.29C369.241 464.216 354.009 471.422 335.746 476.249C313.324 482.184 294.155 483.07 284.724 483.07C284.078 483.07 283.46 483.07 282.877 483.061L281.702 459.427L228.483 475.584C218.585 472.039 204.241 465.95 189.466 456.479C183.423 452.596 177.425 448.299 171.588 443.665L181.235 416.486L142.953 415.291L130.966 396.466L121.104 376.57C118.665 370.963 116.307 364.941 114.209 358.929L109.081 341.79L129.298 315.054L104.419 306.344C103.262 292.615 103.307 279.02 104.554 265.879C106.499 245.223 110.74 228.102 114.138 216.936L184.839 155.178L178.68 145.717L120.162 183.176L132.239 153.473L216.102 93.806L210.974 83.6705L165.366 105.021L173.247 79.8359L241.707 40.8642L284.975 44.4483L258.849 18.0496L337.378 21.8456L383.281 46.2692L372.523 17.7124L438.168 60.4223L454.673 109.472L471.735 123.076L502.289 144.464L513.155 169.88L534.547 192.117L564.339 220.105L603.24 253.287L598.605 271.669L593.827 279.261L593.611 279.811C593.611 279.811 591.8 284.56 586.134 300.033C582.467 310.024 580.782 313.416 580.262 314.36L579.338 315.169L573.43 314.726L563.783 337.647L563.523 337.945L561.282 323.773L553.491 313.474L512.501 331.856L494.606 397.381L499.68 409.125L510.197 412.324L532.476 408.441L539.998 403.691L544.552 394.221L545.843 401.977L544.588 412.613L550.514 424.406L520.157 491.568L448.442 542.94L414.544 462.192Z" fill="#FEFEFE"/>
<path d="M396.902 485.648C364.698 507.259 326.675 519.783 285.9 519.783C169.95 519.783 75.9555 418.765 75.9555 294.162C75.9555 257.396 84.1858 222.712 98.7099 192.045L119.716 140.443L140.516 125.605L156.923 66.5843L233.12 24.9246L204.449 0L129.793 34.3279L131.147 107.059L121.984 78.3481L68.9087 139.364L30.1957 143.796L0 224.803L48.8081 275.172L23.4447 261.857L26.0985 345.321L1.59585 377.867L33.5398 458.055L101.22 456.6L74.5031 466.447L131.281 523.483L135.406 565.085L210.778 597.534H210.787L257.659 545.084L245.269 572.34L322.936 569.488L353.222 595.81L427.841 561.491V561.453L396.902 485.648Z" fill="#EB6320"/>
<path d="M465.431 192.999L471.115 198.809L482.573 203.511L493.009 208.819L493.941 210.621L493.197 211.922L479.318 213.424L472.424 212.22L441.117 187.19L439.628 184.993L455.282 183.394L474.656 185.59L479.032 188.895L480.807 194.502L480.242 195.206L472.325 191.699L467.762 190.292L464.319 191.198L465.431 192.999ZM598.192 252.868L562.832 257.637L558.233 249.853L555.283 250.392L558.681 275.066L588.258 282.976L579.284 304.086L561.326 301.725L492.112 327.102L460.867 402.936L493.054 434.614L537.442 421.685L542.014 426.242L515.584 483.404L513.217 468.287L500.002 491.41L472.388 513.984L472.559 487.768L450.71 519.803L443.591 487.402L429.408 434.836L400.055 408.765L332.132 365.804L335.691 309.009L340.775 243.109L341.618 351.42L434.276 394.747L470.864 316.293L427.166 314.105L506.78 283.525L505.587 279.884L419.366 291.898L438.337 274.421L471.545 269.873L515.422 270.23L516.095 266.771L468.829 254.4L498.478 241.837L552.782 238.311L553.113 236.798L471.034 157.188L465.27 157.92L448.334 158.276L448.845 156.282L461.89 148.815L448.845 143.536L434.957 139.171L434.76 137.157H473.186L498.316 156.629L500.486 167.795L534.797 199.214L600.039 249.853L598.192 252.868ZM303.111 165.945L270.997 151.32L247.615 176.447L245.544 222.876L233.108 170.56L262.408 135.096L311.395 153.228L303.111 165.945ZM232.678 460.994L267.823 290.279L275.686 447.342L232.678 460.994ZM179.593 404.863L148.546 405.769L231.002 260.133L179.593 404.863ZM128.93 306.34L111.285 299.23L199.972 212.394L128.93 306.34ZM567.871 215.746L538.284 187.951L517.619 166.475L506.52 140.52L474.934 118.418L459.173 105.855L442.578 56.5259L361.44 3.73828L372.952 34.3183L338.74 16.109L244.557 11.5615L270.136 37.411L240.55 34.9638L168.817 75.795L156.382 115.528L213.124 88.9751L127.925 149.586L108.497 197.373L181.422 150.684L109.528 213.492H109.51C106.005 224.697 101.289 242.945 99.182 265.287C97.5234 282.851 98.1958 298.7 99.3883 310.685L120.152 317.94L103.046 340.562L109.152 360.949C111.124 366.614 113.5 372.78 116.342 379.283L126.338 399.458L139.912 420.798C139.966 420.866 140.011 420.933 140.056 420.991L173.488 422.032L165.096 445.665C171.309 450.791 178.518 456.196 186.694 461.447C202.303 471.457 217.374 477.806 228.357 481.641H228.366L276.672 466.967L277.757 488.674V488.693C284.005 489.03 307.719 489.628 337.027 481.872C359.127 476.014 376.897 466.726 386.741 460.859L373.113 427.36L379.945 423.332L409.881 465.185L446.137 551.539L524.352 495.514L556.556 424.267L550.146 411.491L551.284 401.828L548.604 385.69L545.762 381.133L542.695 380.632L541.153 388.667L535.918 399.545L530.601 402.888L510.5 406.395L503.516 404.275L500.343 396.914L516.947 336.13L551.84 320.474L556.197 326.245L559.631 347.961L561.989 348.154L568.319 340.909L576.782 320.773L581.059 321.1L584.152 318.422C584.152 318.422 585.488 317.564 591.136 302.149C596.784 286.734 598.586 282.003 598.586 282.003L603.562 274.122L609.363 251.115L567.871 215.746Z" fill="#2B2A29"/>
<path d="M396.902 485.648C364.698 507.259 326.675 519.783 285.9 519.783C169.95 519.783 75.9555 418.765 75.9555 294.162C75.9555 257.396 84.1858 222.712 98.7099 192.045L119.716 140.443L140.516 125.605L156.923 66.5843L233.12 24.9246L204.449 0L129.793 34.3279L131.147 107.059L121.984 78.3481L68.9087 139.364L30.1957 143.796L0 224.803L48.8081 275.172L23.4447 261.857L26.0985 345.321L1.59585 377.867L33.5398 458.055L101.22 456.6L74.5031 466.447L131.281 523.483L135.406 565.085L210.778 597.534H210.787L257.659 545.084L245.269 572.34L322.936 569.488L353.222 595.81L427.841 561.491V561.453L396.902 485.648Z" fill="#EB6320"/>
</g>
</svg>
