<svg width="17" height="16" viewBox="0 0 17 16" fill="none" xmlns="http://www.w3.org/2000/svg">
  <path d="M15.3535 7C15.9058 7 16.3535 7.44772 16.3535 8C16.3535 8.55228 15.9058 9 15.3535 9V7ZM0.67582 8.70711C0.285295 8.31658 0.285295 7.68342 0.67582 7.29289L7.03978 0.928932C7.43031 0.538408 8.06347 0.538408 8.45399 0.928932C8.84452 1.31946 8.84452 1.95262 8.45399 2.34315L2.79714 8L8.45399 13.6569C8.84452 14.0474 8.84452 14.6805 8.45399 15.0711C8.06347 15.4616 7.43031 15.4616 7.03978 15.0711L0.67582 8.70711ZM15.3535 9H1.38293V7H15.3535V9Z" fill="#2B2A29" />
</svg>