<svg width="17" height="16" viewBox="0 0 17 16" fill="none" xmlns="http://www.w3.org/2000/svg">
<path d="M1.64648 7C1.0942 7 0.646484 7.44772 0.646484 8C0.646484 8.55228 1.0942 9 1.64648 9V7ZM16.3242 8.70711C16.7147 8.31658 16.7147 7.68342 16.3242 7.29289L9.96022 0.928932C9.56969 0.538408 8.93653 0.538408 8.54601 0.928932C8.15548 1.31946 8.15548 1.95262 8.54601 2.34315L14.2029 8L8.54601 13.6569C8.15548 14.0474 8.15548 14.6805 8.54601 15.0711C8.93653 15.4616 9.56969 15.4616 9.96022 15.0711L16.3242 8.70711ZM1.64648 9H15.6171V7H1.64648V9Z" fill="#FEFEFE"/>
</svg>
