<svg width="51" height="50" viewBox="0 0 51 50" fill="none" xmlns="http://www.w3.org/2000/svg">
<path fill-rule="evenodd" clip-rule="evenodd" d="M23.5538 6.77486C23.7392 6.4503 24.0844 6.25 24.4582 6.25C26.4724 6.25 28.2917 7.24499 29.5851 8.59426C30.8727 9.93745 31.7498 11.7466 31.7498 13.5417V18.7396L41.229 18.6458C41.4954 18.6458 41.7718 18.672 41.9785 18.6927C41.9926 18.6941 42.0067 18.6958 42.0208 18.6978C44.6759 19.0735 46.731 21.3051 46.2764 23.9475L43.5062 39.8816C43.506 39.8825 43.5059 39.8833 43.5057 39.8842C43.1116 42.2121 40.8579 43.7726 38.4529 43.75H16.1248C16.0645 43.75 16.0053 43.7449 15.9478 43.735C15.8902 43.7449 15.831 43.75 15.7707 43.75H9.87484C6.91087 43.75 4.6665 41.1191 4.6665 38.0833V26.5C4.6665 23.4643 6.91087 20.8333 9.87484 20.8333H15.5203L23.5538 6.77486ZM17.1665 22.1516L25.0386 8.37539C26.1549 8.53616 27.2298 9.14782 28.0812 10.0359C29.0853 11.0834 29.6665 12.3992 29.6665 13.5417V19.7917C29.6665 20.0697 29.7777 20.3362 29.9753 20.5319C30.1728 20.7275 30.4404 20.836 30.7185 20.8333L41.229 20.7292C41.2306 20.7292 41.2321 20.7292 41.2337 20.7292C41.3777 20.7295 41.5505 20.7438 41.749 20.7635C43.4967 21.02 44.4336 22.3649 44.2236 23.5924M44.2236 23.5924L41.4527 39.5299L41.4518 39.5351C41.2617 40.6622 40.061 41.6833 38.469 41.6667L17.1665 41.6667V22.1516M15.0832 41.6667V22.9167H9.87484C8.25547 22.9167 6.74984 24.4107 6.74984 26.5V38.0833C6.74984 40.1726 8.25547 41.6667 9.87484 41.6667H15.0832Z" fill="#EB6320"/>
</svg>
