<svg width="51" height="50" viewBox="0 0 51 50" fill="none" xmlns="http://www.w3.org/2000/svg">
<path fill-rule="evenodd" clip-rule="evenodd" d="M26.8053 6.95957C26.3661 6.01358 25.1341 6.01358 24.6949 6.95957L24.6925 6.96466L20.3124 16.2671C19.8408 17.2398 18.9363 17.9553 17.8405 18.1138L8.02729 19.6139C7.10701 19.7499 6.60033 21.037 7.3709 21.8354C7.37161 21.8361 7.37233 21.8369 7.37305 21.8376L14.4593 29.0489C15.206 29.8255 15.5609 30.9469 15.382 32.0238C15.3819 32.0244 15.3821 32.0232 15.382 32.0238L13.7157 42.2094C13.7156 42.2094 13.7157 42.2093 13.7157 42.2094C13.5231 43.3912 14.6568 44.026 15.4138 43.6087L24.1865 38.7952C25.1443 38.2699 26.3139 38.2698 27.2718 38.7951L36.0428 43.6077L36.0486 43.6109C36.8325 44.0475 37.9545 43.4033 37.7637 42.2308M37.7637 42.2308L36.0971 32.0433C35.9192 30.9466 36.2739 29.8458 37.02 29.0698L37.0279 29.0616L44.1112 21.8533C44.9011 21.0511 44.387 19.7489 43.4728 19.6139L43.4677 19.6131L33.6652 18.1146C33.6634 18.1143 33.6615 18.1141 33.6597 18.1138C32.5638 17.9553 31.6594 17.2398 31.1878 16.267L31.1826 16.2564L26.8053 6.95957M28.6937 6.07966C27.5071 3.52911 23.993 3.52911 22.8065 6.07967C22.8061 6.08053 22.8057 6.08139 22.8053 6.08226L18.4355 15.3628C18.2409 15.7606 17.8989 16.001 17.5402 16.0522L7.72283 17.5529C7.72188 17.5531 7.72092 17.5532 7.71997 17.5534C4.97664 17.9609 4.02637 21.3781 5.87707 23.2876L12.9608 30.4963C13.2531 30.8027 13.3969 31.262 13.3267 31.683L13.3262 31.6861L11.6596 41.8736C11.2273 44.5247 13.926 46.807 16.4188 45.4336C16.4185 45.4338 16.4191 45.4335 16.4188 45.4336L25.1884 40.6218C25.5223 40.4387 25.9362 40.4387 26.27 40.6218L35.0349 45.431C35.0359 45.4315 35.0369 45.4321 35.0378 45.4326C37.5447 46.8258 40.2534 44.5543 39.8198 41.895L38.1533 31.7083C38.1533 31.7086 38.1533 31.7081 38.1533 31.7083C38.0817 31.2653 38.2253 30.8243 38.5184 30.5172C38.5195 30.5161 38.5206 30.5149 38.5218 30.5137L45.5965 23.3143C47.4716 21.4087 46.5301 17.9619 43.7802 17.5534C43.7792 17.5532 43.7783 17.5531 43.7773 17.5529L33.97 16.0537L33.9599 16.0522C33.6012 16.001 33.2592 15.7606 33.0646 15.3627L28.6949 6.08226C28.6945 6.08139 28.6941 6.08052 28.6937 6.07966Z" fill="#EB6320"/>
</svg>
