<svg width="51" height="50" viewBox="0 0 51 50" fill="none" xmlns="http://www.w3.org/2000/svg">
<path fill-rule="evenodd" clip-rule="evenodd" d="M25.4998 6.25008C15.1445 6.25008 6.74984 14.6447 6.74984 25.0001C6.74984 35.3554 15.1445 43.7501 25.4998 43.7501C35.8552 43.7501 44.2498 35.3554 44.2498 25.0001C44.2498 14.6447 35.8552 6.25008 25.4998 6.25008ZM4.6665 25.0001C4.6665 13.4941 13.9939 4.16675 25.4998 4.16675C37.0058 4.16675 46.3332 13.4941 46.3332 25.0001C46.3332 36.506 37.0058 45.8334 25.4998 45.8334C13.9939 45.8334 4.6665 36.506 4.6665 25.0001Z" fill="#EB6320"/>
<path fill-rule="evenodd" clip-rule="evenodd" d="M4.6665 24.9999C4.6665 24.4246 5.13287 23.9583 5.70817 23.9583H45.2915C45.8668 23.9583 46.3332 24.4246 46.3332 24.9999C46.3332 25.5752 45.8668 26.0416 45.2915 26.0416H5.70817C5.13287 26.0416 4.6665 25.5752 4.6665 24.9999Z" fill="#EB6320"/>
<path fill-rule="evenodd" clip-rule="evenodd" d="M25.5 4.16675C25.7907 4.16675 26.0682 4.28825 26.2654 4.50187C31.4196 10.0856 34.6584 17.4039 34.8746 24.9703C34.8751 24.9902 34.8751 25.01 34.8746 25.0298C34.6584 32.5963 31.4196 39.9146 26.2654 45.4983C26.0682 45.7119 25.7907 45.8334 25.5 45.8334C25.2093 45.8334 24.9318 45.7119 24.7346 45.4983C19.5804 39.9146 16.3416 32.5963 16.1254 25.0298C16.1249 25.01 16.1249 24.9902 16.1254 24.9703C16.3416 17.4039 19.5804 10.0856 24.7346 4.50187C24.9318 4.28825 25.2093 4.16675 25.5 4.16675ZM18.2088 25.0001C18.4057 31.6294 21.1106 38.1065 25.5 43.225C29.8894 38.1065 32.5943 31.6294 32.7912 25.0001C32.5943 18.3707 29.8894 11.8937 25.5 6.77519C21.1106 11.8937 18.4057 18.3707 18.2088 25.0001Z" fill="#EB6320"/>
<path fill-rule="evenodd" clip-rule="evenodd" d="M7.7915 15.6249C7.7915 15.0496 8.25787 14.5833 8.83317 14.5833H42.1665C42.7418 14.5833 43.2082 15.0496 43.2082 15.6249C43.2082 16.2002 42.7418 16.6666 42.1665 16.6666H8.83317C8.25787 16.6666 7.7915 16.2002 7.7915 15.6249Z" fill="#EB6320"/>
<path fill-rule="evenodd" clip-rule="evenodd" d="M7.7915 34.3749C7.7915 33.7996 8.25787 33.3333 8.83317 33.3333H42.1665C42.7418 33.3333 43.2082 33.7996 43.2082 34.3749C43.2082 34.9502 42.7418 35.4166 42.1665 35.4166H8.83317C8.25787 35.4166 7.7915 34.9502 7.7915 34.3749Z" fill="#EB6320"/>
</svg>
