<svg width="13" height="11" viewBox="0 0 13 11" fill="none" xmlns="http://www.w3.org/2000/svg">
    <path d="M0.826172 4.50916C0.449917 4.50916 0.144902 4.81417 0.144902 5.19043C0.144902 5.56668 0.449917 5.8717 0.826172 5.8717V4.50916ZM12.7292 5.67216C12.9952 5.40611 12.9952 4.97475 12.7292 4.7087L8.39362 0.373122C8.12757 0.10707 7.69621 0.10707 7.43016 0.373122C7.16411 0.639175 7.16411 1.07053 7.43016 1.33658L11.284 5.19043L7.43016 9.04428C7.16411 9.31033 7.16411 9.74168 7.43016 10.0077C7.69621 10.2738 8.12757 10.2738 8.39362 10.0077L12.7292 5.67216ZM0.826172 5.8717H12.2475V4.50916H0.826172V5.8717Z"
          fill="#2b2a29"/>
</svg>
