<svg width="21" height="18" viewBox="0 0 21 18" fill="none" xmlns="http://www.w3.org/2000/svg">
<path d="M15.4831 1.51367H5.51673C5.28696 1.51998 5.0619 1.58027 4.85975 1.68967C4.6576 1.79907 4.48403 1.95451 4.35307 2.14341L1.86149 5.5933C1.67648 5.85474 1.58408 6.17048 1.59897 6.49042C1.61385 6.81036 1.73515 7.11617 1.94363 7.35931L9.41838 15.9703C9.54635 16.1352 9.71032 16.2687 9.89777 16.3605C10.0852 16.4523 10.2912 16.5 10.4999 16.5C10.7086 16.5 10.9146 16.4523 11.102 16.3605C11.2895 16.2687 11.4534 16.1352 11.5814 15.9703L19.0561 7.35931C19.2646 7.11617 19.3859 6.81036 19.4008 6.49042C19.4157 6.17048 19.3233 5.85474 19.1383 5.5933L16.6467 2.14341C16.5158 1.95451 16.3422 1.79907 16.14 1.68967C15.9379 1.58027 15.7128 1.51998 15.4831 1.51367V1.51367Z" stroke="#EB6320" stroke-width="1.5" stroke-linecap="round" stroke-linejoin="round"/>
<path d="M9.78787 1.5L6.44751 6.67483L10.4998 16.4632" stroke="#EB6320" stroke-width="1.5" stroke-linecap="round" stroke-linejoin="round"/>
<path d="M11.253 1.5L14.5796 6.67483L10.5 16.4632" stroke="#EB6320" stroke-width="1.5" stroke-linecap="round" stroke-linejoin="round"/>
<path d="M1.62891 6.6748H19.3712" stroke="#EB6320" stroke-width="1.5" stroke-linecap="round" stroke-linejoin="round"/>
</svg>
