<svg width="19" height="18" viewBox="0 0 19 18" fill="none" xmlns="http://www.w3.org/2000/svg">
<path d="M10.1072 1.87757L12.0248 5.74895C12.0685 5.84721 12.1371 5.93233 12.2238 5.99581C12.3106 6.05929 12.4125 6.09893 12.5193 6.11076L16.7525 6.7379C16.8751 6.75366 16.9906 6.80396 17.0857 6.88294C17.1807 6.96191 17.2514 7.0663 17.2893 7.18391C17.3272 7.30152 17.3309 7.4275 17.2999 7.54713C17.269 7.66676 17.2046 7.77511 17.1143 7.85952L14.063 10.8867C13.9852 10.9594 13.9267 11.0505 13.893 11.1516C13.8593 11.2527 13.8514 11.3606 13.8701 11.4656L14.6058 15.7229C14.6271 15.8452 14.6136 15.9711 14.5669 16.0861C14.5202 16.2012 14.4422 16.3008 14.3416 16.3737C14.2411 16.4466 14.1221 16.4898 13.9983 16.4984C13.8744 16.507 13.7506 16.4807 13.6409 16.4224L9.82985 14.4083C9.73226 14.3604 9.625 14.3355 9.51628 14.3355C9.40757 14.3355 9.3003 14.3604 9.20271 14.4083L5.39163 16.4224C5.28199 16.4807 5.15818 16.507 5.03431 16.4984C4.91044 16.4898 4.79147 16.4466 4.69094 16.3737C4.59041 16.3008 4.51235 16.2012 4.46566 16.0861C4.41896 15.9711 4.4055 15.8452 4.4268 15.7229L5.16248 11.4173C5.18113 11.3124 5.17324 11.2045 5.13954 11.1034C5.10584 11.0023 5.04739 10.9112 4.96952 10.8384L1.88206 7.85952C1.79072 7.7728 1.72648 7.66145 1.69713 7.53897C1.66778 7.41649 1.67457 7.28812 1.71669 7.16942C1.75881 7.05072 1.83445 6.94678 1.93444 6.87019C2.03443 6.7936 2.15448 6.74765 2.28005 6.7379L6.51325 6.11076C6.6201 6.09893 6.72198 6.05929 6.80874 5.99581C6.8955 5.93233 6.96411 5.84721 7.00772 5.74895L8.92532 1.87757C8.97754 1.76481 9.06093 1.66935 9.16564 1.60245C9.27036 1.53555 9.39202 1.5 9.51628 1.5C9.64054 1.5 9.76221 1.53555 9.86692 1.60245C9.97163 1.66935 10.055 1.76481 10.1072 1.87757V1.87757Z" stroke="#EB6320" stroke-width="1.5" stroke-linecap="round" stroke-linejoin="round"/>
</svg>
